<?xml version="1.0" encoding="UTF-8"?><svg version="1.1" viewBox="0 0 80 66" xmlns="http://www.w3.org/2000/svg" xmlns:xlink="http://www.w3.org/1999/xlink"><!--Generated by IJSVG (https://github.com/curthard89/IJSVG)--><defs><path id="path-3" d="M7.09262,1.53476c1.53476,1.53476 1.53476,4.0231 0,5.55786c-1.53476,1.53476 -4.0231,1.53476 -5.55786,3.55271e-15c-1.53476,-1.53476 -1.53476,-4.0231 -3.55271e-15,-5.55786c1.53476,-1.53476 4.0231,-1.53476 5.55786,-1.77636e-15"></path><path id="path-1" d="M11.063,2.39391c2.39391,2.39391 2.39391,6.27522 0,8.66913c-2.39391,2.39391 -6.27522,2.39391 -8.66913,0c-2.39391,-2.39391 -2.39391,-6.27522 0,-8.66913c2.39391,-2.39391 6.27522,-2.39391 8.66913,0"></path><path id="path-2" d="M7.5438,1.63239c1.63239,1.63239 1.63239,4.27902 0,5.91141c-1.63239,1.63239 -4.27902,1.63239 -5.91141,3.55271e-15c-1.63239,-1.63239 -1.63239,-4.27902 -3.55271e-15,-5.91141c1.63239,-1.63239 4.27902,-1.63239 5.91141,0"></path></defs><g transform="translate(-364, -396)"><g transform="translate(364, 396)"><g stroke="none" stroke-width="1"><use fill="#F8BD36" transform="translate(23.3115, 6.59152)" xlink:href="#path-1"></use><path fill="#FCED99" d="M5.81,0c-3.20877,0 -5.81,2.60123 -5.81,5.81c0,3.20877 2.60123,5.81 5.81,5.81c3.20877,0 5.81,-2.60123 5.81,-5.81c0,-1.54091 -0.612123,-3.0187 -1.70171,-4.10829c-1.08959,-1.08959 -2.56738,-1.70171 -4.10829,-1.70171v0Zm0,11.41c-3.09279,0 -5.6,-2.50721 -5.6,-5.6c0,-3.09279 2.50721,-5.6 5.6,-5.6c3.09279,0 5.6,2.50721 5.6,5.6c-0.0055159,3.08889 -2.51111,5.59 -5.6,5.59v0.01Z" transform="translate(24.19, 7.51)"></path><path opacity="0.11" fill="#FFFFFF" d="M1.42516,0c-1.42516,2.62137 -0.755881,5.88812 1.5853,7.73786c2.34119,1.84973 5.67415,1.74509 7.89469,-0.247858l-9.48,-7.49Z" transform="translate(23.2448, 10.36)"></path><use fill="#E2AF5B" transform="translate(25.4519, 8.7319)" xlink:href="#path-2"></use><use fill="#FCED99" transform="translate(25.8763, 9.00631)" xlink:href="#path-3"></use><path fill="#E2AF5B" d="M1.4388,5.23c-0.486163,-0.0232993 -0.963992,-0.135132 -1.41,-0.33v-1.1c0.26899,0.136191 0.550238,0.246682 0.84,0.33c0.259267,0.0805675 0.528563,0.124328 0.8,0.13c0.140062,0.0056608 0.27975,-0.0181884 0.41,-0.07c0.0854293,-0.0437709 0.136561,-0.134235 0.13,-0.23c0.0023948,-0.0741411 -0.0311159,-0.144886 -0.09,-0.19c-0.0992476,-0.0696467 -0.206731,-0.126747 -0.32,-0.17l-0.6,-0.23c-0.242125,-0.0838109 -0.471088,-0.201659 -0.68,-0.35c-0.160007,-0.114194 -0.290313,-0.265075 -0.38,-0.44c-0.0850561,-0.188288 -0.126095,-0.393481 -0.12,-0.6c-0.0188009,-0.324747 0.109773,-0.640671 0.35,-0.86c0.305898,-0.232568 0.676016,-0.365252 1.06,-0.38v-0.74h0.69v0.73c0.4627,0.0296809 0.916432,0.141421 1.34,0.33l-0.4,0.95c-0.393532,-0.190776 -0.822875,-0.296408 -1.26,-0.31c-0.126377,-0.0103721 -0.253377,0.0102225 -0.37,0.06c-0.0694891,0.0375979 -0.111995,0.111017 -0.11,0.19c-0.0003183,0.0686832 0.0288054,0.134211 0.08,0.18c0.0818899,0.0659644 0.172815,0.119846 0.27,0.16l0.54,0.2c0.370971,0.109646 0.712669,0.300997 1,0.56c0.204281,0.219027 0.312326,0.510748 0.3,0.81c0.0148793,0.338794 -0.111929,0.668495 -0.35,0.91c-0.278382,0.247199 -0.629082,0.398 -1,0.43v0.89h-0.69l-0.03,-0.86Z" transform="translate(28.4212, 10.36)"></path><use fill="#F8BD36" transform="translate(15.5415, 8.78152)" xlink:href="#path-1"></use><path fill="#FCED99" d="M5.81,0c-3.20877,0 -5.81,2.60123 -5.81,5.81c0,3.20877 2.60123,5.81 5.81,5.81c3.20877,0 5.81,-2.60123 5.81,-5.81c0,-3.20877 -2.60123,-5.81 -5.81,-5.81v0Zm0,11.41c-3.09279,0 -5.6,-2.50721 -5.6,-5.6c0,-3.09279 2.50721,-5.6 5.6,-5.6c3.09279,0 5.6,2.50721 5.6,5.6c0,3.09279 -2.50721,5.6 -5.6,5.6Z" transform="translate(16.46, 9.7)"></path><path opacity="0.11" fill="#FFFFFF" d="M1.37543,0c-1.37543,2.61977 -0.683219,5.84813 1.64536,7.6737c2.32858,1.82557 5.62886,1.72725 7.84464,-0.233701l-9.49,-7.44Z" transform="translate(15.5246, 12.56)"></path><use fill="#E2AF5B" transform="translate(17.6819, 10.9219)" xlink:href="#path-2"></use><use fill="#FCED99" transform="translate(18.1163, 11.1963)" xlink:href="#path-3"></use><path fill="#E2AF5B" d="M1.4388,5.23c-0.486163,-0.0232993 -0.963992,-0.135132 -1.41,-0.33v-1.1c0.26899,0.136191 0.550238,0.246682 0.84,0.33c0.259267,0.0805675 0.528563,0.124328 0.8,0.13c0.140062,0.0056608 0.27975,-0.0181884 0.41,-0.07c0.0854293,-0.0437709 0.136561,-0.134235 0.13,-0.23c0.0023948,-0.0741411 -0.0311159,-0.144886 -0.09,-0.19c-0.0992476,-0.0696467 -0.206731,-0.126747 -0.32,-0.17l-0.6,-0.23c-0.242125,-0.0838109 -0.471088,-0.201659 -0.68,-0.35c-0.160007,-0.114194 -0.290313,-0.265075 -0.38,-0.44c-0.0850561,-0.188289 -0.126095,-0.393481 -0.12,-0.6c-0.0188009,-0.324747 0.109773,-0.640671 0.35,-0.86c0.305898,-0.232568 0.676016,-0.365252 1.06,-0.38v-0.74h0.69v0.73c0.4627,0.0296809 0.916432,0.141421 1.34,0.33l-0.4,0.95c-0.393532,-0.190776 -0.822875,-0.296408 -1.26,-0.31c-0.126377,-0.0103721 -0.253377,0.0102225 -0.37,0.06c-0.0694891,0.0375979 -0.111995,0.111017 -0.11,0.19c-0.0003183,0.0686832 0.0288054,0.134212 0.08,0.18c0.0818899,0.0659644 0.172815,0.119846 0.27,0.16l0.54,0.2c0.370971,0.109646 0.712669,0.300997 1,0.56c0.204281,0.219027 0.312326,0.510748 0.3,0.81c0.0148793,0.338794 -0.111929,0.668495 -0.35,0.91c-0.278382,0.247199 -0.629082,0.398 -1,0.43v0.89h-0.72v-0.86Z" transform="translate(20.6612, 12.56)"></path><path fill="#F8BD36" d="M11.063,2.39391c2.39391,2.39391 2.39391,6.27522 0,8.66913c-2.39391,2.39391 -6.27522,2.39391 -8.66913,0c-2.39391,-2.39391 -2.39391,-6.27522 0,-8.66913c2.39391,-2.39391 6.27522,-2.39391 8.66913,-8.88178e-16" transform="translate(17.7115, -0.598478)"></path><path fill="#FCED99" d="M6.08155,0.23182c-3.20877,0 -5.81,2.60123 -5.81,5.81c0,3.20877 2.60123,5.81 5.81,5.81c3.20877,0 5.81,-2.60123 5.81,-5.81c0,-1.54091 -0.612123,-3.0187 -1.70171,-4.10829c-1.08959,-1.08959 -2.56738,-1.70171 -4.10829,-1.70171v5.55112e-17Zm0,11.41c-2.26856,0.0162044 -4.32277,-1.33787 -5.20216,-3.42911c-0.879391,-2.09124 -0.410203,-4.50643 1.18819,-6.11633c1.59839,-1.60989 4.01016,-2.09638 6.10765,-1.23201c2.09749,0.864378 3.46626,2.90883 3.46631,5.17744c-0.0054097,3.07334 -2.48673,5.56805 -5.56,5.59v0.01Z" transform="translate(18.3585, 0.0881805)"></path><path opacity="0.11" fill="#FFFFFF" d="M1.42516,0c-1.42516,2.62137 -0.755881,5.88812 1.5853,7.73786c2.34119,1.84973 5.67415,1.74509 7.8947,-0.247858l-9.48,-7.49Z" transform="translate(17.6448, 3.17)"></path><path fill="#E2AF5B" d="M7.5438,1.63239c1.63239,1.63239 1.63239,4.27902 0,5.91141c-1.63239,1.63239 -4.27902,1.63239 -5.91141,-8.88178e-16c-1.63239,-1.63239 -1.63239,-4.27902 -3.55271e-15,-5.91141c1.63239,-1.63239 4.27902,-1.63239 5.91141,-4.44089e-16" transform="translate(19.8519, 1.5419)"></path><path fill="#FCED99" d="M7.09262,1.53476c1.53476,1.53476 1.53476,4.0231 0,5.55786c-1.53476,1.53476 -4.0231,1.53476 -5.55786,0c-1.53476,-1.53476 -1.53476,-4.0231 -3.55271e-15,-5.55786c1.53476,-1.53476 4.0231,-1.53476 5.55786,-8.88178e-16" transform="translate(20.2863, 1.81631)"></path><path fill="#E2AF5B" d="M1.41,5.23c-0.486163,-0.0232993 -0.963992,-0.135132 -1.41,-0.33v-1.07c0.26899,0.136191 0.550238,0.246682 0.84,0.33c0.259267,0.0805675 0.528563,0.124328 0.8,0.13c0.140062,0.00566078 0.27975,-0.0181883 0.41,-0.07c0.0853659,-0.0564754 0.12552,-0.160876 0.1,-0.26c0.0023948,-0.0741411 -0.0311159,-0.144886 -0.09,-0.19c-0.0992476,-0.0696467 -0.206731,-0.126747 -0.32,-0.17l-0.59,-0.23c-0.242125,-0.0838109 -0.471088,-0.201659 -0.68,-0.35c-0.138173,-0.120942 -0.247514,-0.271286 -0.32,-0.44c-0.0850561,-0.188289 -0.126095,-0.393481 -0.12,-0.6c-0.0188009,-0.324747 0.109773,-0.640671 0.35,-0.86c0.305898,-0.232568 0.676016,-0.365252 1.06,-0.38v-0.74h0.71v0.73c0.4627,0.0296809 0.916432,0.141421 1.34,0.33l-0.4,0.95c-0.393532,-0.190776 -0.822875,-0.296408 -1.26,-0.31c-0.126377,-0.0103721 -0.253377,0.0102225 -0.37,0.06c-0.0694891,0.0375979 -0.111995,0.111017 -0.11,0.19c-0.0003183,0.0686832 0.0288054,0.134211 0.08,0.18c0.0818899,0.0659644 0.172815,0.119846 0.27,0.16l0.54,0.2c0.370971,0.109646 0.712669,0.300997 1,0.56c0.204281,0.219027 0.312326,0.510748 0.3,0.81c0.0221441,0.365475 -0.121029,0.721572 -0.39,0.97c-0.278382,0.247199 -0.629082,0.398 -1,0.43v0.89h-0.69l-0.05,-0.92Z" transform="translate(22.85, 3.17)"></path><path fill="#73BCC4" d="M35.6979,0.908907l12.16,14.74l0.09,0.12c0.589713,0.846994 0.438096,2.00362 -0.35,2.67l-32.11,26.41c-0.794017,0.627804 -1.9319,0.563395 -2.65,-0.15l-0.1,-0.12l-12.12,-14.73v-0.05c-0.617939,-0.84277 -0.482866,-2.01921 0.31,-2.7l32.02,-26.45c0.819423,-0.648907 2.00033,-0.557398 2.71,0.21l0.04,0.05Z" transform="translate(31.5121, 1.56109)"></path><path fill="#5E9BA3" d="M35.6979,0.858907c-0.709672,-0.767398 -1.89058,-0.858907 -2.71,-0.21l-4.93,4.06l-22.21,18.32l-4.92,4.06c-0.792866,0.680789 -0.927939,1.85723 -0.31,2.7v0.05l3.34,4l5.57,6.7v0l3.34,4v0.05v0l0.06,0.06v0l0.06,0.06v0h0.05v0v0v0v0v0v0v0v0v0v0v0v0v0v0v0h1.34v0v0v0v0v0v0v0v0v0v0h0.05v0l0.08,-0.06v0l6.02,-3.86l22.18,-18.35l4.93,-4l0.07,-0.06v0v0v0v0v0v0v0v0v0v0v0v0v0v0v0v0v0v0v0v0v-0.67v0v-0.58v0v0v0v0v-0.05v0v-0.06v0v-0.06v0v-0.07v0l-0.05,-0.07v0v-0.05v0l-3.34,-4l-5.24,-7.82l-3.34,-4l-0.04,-0.09Zm7.59,12.41c-0.426702,0.726129 -0.762552,1.50194 -1,2.31c-0.514229,1.6173 -0.596962,3.34089 -0.24,5l-23.27,19.17c-1.57434,-0.675547 -3.29902,-0.923899 -5,-0.72c-1.00514,0.103837 -1.98924,0.356603 -2.92,0.75l-5.85,-7.14c0.562294,-0.837799 0.997037,-1.75447 1.29,-2.72c0.510911,-1.61818 0.590196,-3.34175 0.23,-5l23.25,-19.18c1.57434,0.675546 3.29902,0.923899 5,0.72c0.840309,-0.0881832 1.66654,-0.279627 2.46,-0.57l6.05,7.38Z" transform="translate(31.4721, 1.56109)"></path><path fill="#5E9BA3" d="M9.12144,17.1697h-0.84c-4.65671,-0.227958 -8.28144,-4.12889 -8.16743,-8.78979c0.114013,-4.6609 3.92514,-8.37994 8.58743,-8.37994c4.66229,0 8.47342,3.71904 8.58743,8.37994c0.114013,4.6609 -3.51072,8.56183 -8.16743,8.78979Zm0,-17c-3.90382,0.0204358 -7.27111,2.74614 -8.10422,6.56009c-0.833107,3.81394 1.09092,7.69547 4.63064,9.34185c3.53972,1.64638 7.74788,0.617031 10.128,-2.47739c2.38008,-3.09442 2.29516,-7.42581 -0.204388,-10.4246v0c-1.60841,-1.89953 -3.98118,-2.9814 -6.47,-2.95l0.02,-0.05Z" transform="translate(46.1586, 15.4603)"></path><g transform="translate(55.2705, 24.0182)"><g transform="rotate(-39.52)"><g fill="#5E9BA3" stroke="none" stroke-width="1" transform="translate(-55.2705, -24.0182)"><path d="M13.3912,2.89769c2.89769,2.89769 2.89769,7.59577 0,10.4935c-2.89769,2.89769 -7.59577,2.89769 -10.4935,0c-2.89769,-2.89769 -2.89769,-7.59577 0,-10.4935c2.89769,-2.89769 7.59577,-2.89769 10.4935,0" transform="translate(47.1261, 15.8737)"></path></g></g></g><path fill="#73BCC4" d="M7.55099,9.78c-0.839702,0.634232 -1.78879,1.10878 -2.8,1.4l-1.53,-1.85c0.637799,-0.144404 1.26056,-0.348641 1.86,-0.61c0.541774,-0.221754 1.05,-0.517936 1.51,-0.88c0.249398,-0.181894 0.4545,-0.41776 0.6,-0.69c0.0861372,-0.187673 0.0506042,-0.408767 -0.09,-0.56c-0.102792,-0.124205 -0.259168,-0.191223 -0.42,-0.18c-0.270356,0.0294004 -0.535842,0.0932516 -0.79,0.19c-0.333333,0.0933333 -0.773333,0.24 -1.32,0.44c-0.523914,0.193622 -1.07278,0.311477 -1.63,0.35c-0.424177,0.0301237 -0.849395,-0.0418889 -1.24,-0.21c-0.390974,-0.203167 -0.732397,-0.489962 -1,-0.84c-0.480564,-0.520079 -0.700993,-1.22913 -0.6,-1.93c0.188964,-0.810291 0.621731,-1.5432 1.24,-2.1l-1,-1.24l1.15,-1l1,1.23c0.812772,-0.588937 1.72354,-1.02908 2.69,-1.3l0.65,2.14c-0.922258,0.220447 -1.78772,0.632735 -2.54,1.21c-0.229557,0.161862 -0.415151,0.378388 -0.54,0.63c-0.0629357,0.159341 -0.0321079,0.340454 0.08,0.47c0.0910594,0.119343 0.230072,0.192507 0.38,0.2c0.230802,-0.0034972 0.459867,-0.0405519 0.68,-0.11c0.3,-0.08 0.693333,-0.213333 1.18,-0.4c0.773609,-0.327628 1.61073,-0.477968 2.45,-0.44c0.647521,0.0817238 1.23495,0.420485 1.63,0.94c0.486845,0.546864 0.725739,1.27078 0.66,2c-0.127717,0.822182 -0.525245,1.57854 -1.13,2.15l1.21,1.5l-1.15,1l-1.19,-1.51Z" transform="translate(50.109, 18.4)"></path><path fill="#73BCC4" d="M24.75,1.0309v10.4v0.08c-0.0318542,0.561867 -0.497231,1.0009 -1.06,1h-22.63c-0.562769,0.0009022 -1.02815,-0.438133 -1.06,-1v-0.08v-10.43c0.0318542,-0.561868 0.497231,-1.0009 1.06,-1h22.63c0.562769,-0.0009022 1.02815,0.438132 1.06,1v0.03Z" transform="translate(0, 51.7691)"></path><path fill="#5E9BA3" d="M24.75,1.0009c-0.0318542,-0.561868 -0.497231,-1.0009 -1.06,-1h-22.62c-0.562769,-0.0009022 -1.02815,0.438132 -1.06,1v7.58h-0.01v2.89v0v0v0v0v0v0.45v0v0v0v0v0v0v0v0v0v0v0v0v0v0v0h24.33v0v0v0v0v0v0v0v0v0v0v0v0v-0.49v0v0v0v0v0v0v0v-10.43h0.42Zm-1.11,7.84c-0.433468,0.152113 -0.846572,0.356986 -1.23,0.61c-0.773064,0.496752 -1.40369,1.18596 -1.83,2h-16.4c-0.426307,-0.814036 -1.05694,-1.50325 -1.83,-2c-0.459708,-0.302605 -0.961869,-0.53515 -1.49,-0.69v-5c0.528131,-0.15485 1.03029,-0.387394 1.49,-0.69c0.773064,-0.496752 1.40369,-1.18596 1.83,-2h16.4c0.426307,0.814036 1.05694,1.50325 1.83,2c0.383428,0.253014 0.796532,0.457886 1.23,0.61v5.16Z" transform="translate(0, 51.7691)"></path><path fill="#5E9BA3" d="M2.11289,8.79018l-0.3,-0.34c-1.78638,-1.79771 -1.81289,-4.69211 -0.0597423,-6.52224c1.75315,-1.83013 4.64601,-1.92795 6.51878,-0.220423c1.87277,1.70752 2.04183,4.5971 0.380969,6.51137c-1.66086,1.91427 -4.5454,2.15448 -6.50001,0.541284l-0.04,0.03Zm5.86,-7.13c-1.64197,-1.34742 -3.9987,-1.37628 -5.67318,-0.0694826c-1.67448,1.3068 -2.21908,3.59992 -1.31098,5.52007c0.908103,1.92014 3.02615,2.95401 5.09862,2.48875c2.07247,-0.465263 3.54534,-2.30528 3.54554,-4.42933v0c0.0001237,-1.35953 -0.609032,-2.64757 -1.66,-3.51v0Z" transform="translate(7.18711, 52.5498)"></path><path fill="#5E9BA3" d="M7.29114,1.57772c1.57772,1.57772 1.57772,4.1357 0,5.71342c-1.57772,1.57772 -4.1357,1.57772 -5.71342,0c-1.57772,-1.57772 -1.57772,-4.1357 -1.77636e-15,-5.71342c1.57772,-1.57772 4.1357,-1.57772 5.71342,0" transform="translate(7.83557, 53.2756)"></path><path fill="#73BCC4" d="M1.67513,6.16c-0.572548,-0.0272466 -1.13522,-0.159441 -1.66,-0.39v-1.3c0.320226,0.161384 0.655065,0.291971 1,0.39c0.304356,0.096838 0.620745,0.150692 0.94,0.16c0.167262,0.0103273 0.334709,-0.017011 0.49,-0.08c0.103501,-0.048843 0.166859,-0.155759 0.16,-0.27c0.0008051,-0.0867463 -0.0401199,-0.168596 -0.11,-0.22c-0.114793,-0.0813824 -0.239033,-0.14854 -0.37,-0.2l-0.71,-0.28c-0.288676,-0.100591 -0.561448,-0.242029 -0.81,-0.42c-0.189527,-0.134741 -0.343867,-0.31309 -0.45,-0.52c-0.0999403,-0.222976 -0.147816,-0.465776 -0.14,-0.71c-0.0151251,-0.379106 0.138713,-0.745387 0.42,-1c0.357885,-0.272736 0.790494,-0.429732 1.24,-0.45v-0.87h0.81v0.87c0.545595,0.0354844 1.08056,0.167533 1.58,0.39l-0.47,1.12c-0.461971,-0.225638 -0.966196,-0.351695 -1.48,-0.37c-0.151014,-0.0099293 -0.302146,0.0175492 -0.44,0.08c-0.083613,0.0456386 -0.134024,0.134827 -0.13,0.23c-0.0012227,0.0796124 0.0315064,0.15598 0.09,0.21c0.0970024,0.0783525 0.204773,0.142341 0.32,0.19c0.153333,0.0666667 0.363333,0.146667 0.63,0.24c0.437624,0.129266 0.840797,0.354769 1.18,0.66c0.254822,0.268163 0.385425,0.630948 0.36,1c0.0145953,0.399504 -0.137544,0.787096 -0.42,1.07c-0.337081,0.303406 -0.767272,0.48324 -1.22,0.51v1.05h-0.81v-1.09Z" transform="translate(10.1649, 54.13)"></path><path fill="#AE4441" d="M14.8461,0.92c0.0060732,0.0665284 0.0060732,0.133472 0,0.2c-0.0517422,-0.393111 -0.374304,-0.694728 -0.77,-0.72h-13.3c-0.217253,0.0034213 -0.422025,0.102151 -0.56,0.27c-0.106723,0.129957 -0.17895,0.284729 -0.21,0.45c-0.0060732,-0.0665284 -0.0060732,-0.133472 0,-0.2c-0.0028146,-0.237082 0.0787007,-0.467451 0.23,-0.65c0.137975,-0.167849 0.342747,-0.266579 0.56,-0.27h13.22c0.233621,0.0075757 0.454095,0.109919 0.61067,0.283472c0.156575,0.173553 0.235761,0.403362 0.21933,0.636528v0Z" transform="translate(27.9839, 25.37)"></path><path fill="#F8BD36" d="M8.92,4.95c-0.18,0.86 -1.85,2.27 -4.7,0.51c0.641586,-0.2834 1.16723,-0.777292 1.49,-1.4v0c0.417392,-0.961256 0.171514,-2.08181 -0.61,-2.78c-0.653398,-0.658273 -1.50936,-1.07745 -2.43,-1.19c-2.67,-0.09 -1.67,3.48 0.08,5.06l0.11,0.09l0.24,0.21c-0.58813,0.471514 -1.26991,0.812405 -2,1c-0.263923,0.0632319 -0.442272,0.309523 -0.42,0.58v0c0.0128084,0.0991461 0.0908539,0.177192 0.19,0.19c0.31,0.05 1.2,0 2.8,-1.29c1.05079,0.90167 2.35994,1.44773 3.74,1.56c1.28718,0.104661 2.45864,-0.744227 2.76,-2l-1.25,-0.54Zm-5.25,-3.53c0.305663,0.135428 0.558554,0.367245 0.72,0.66c0.0893257,0.164003 0.166209,0.334482 0.23,0.51c0.125206,0.345269 0.0960697,0.727686 -0.08,1.05c-0.22605,0.408312 -0.505139,0.784914 -0.83,1.12c-1.94,-1.03 -2.28,-4.34 -0.04,-3.34Z" transform="translate(3, 35.58)"></path><path fill="#F8BD36" d="M58.0728,16.64c-0.216156,-0.188181 -0.49341,-0.291262 -0.78,-0.29h-2.87v0c-2.17,-6.16 -9.11,-11.64 -15.25,-12.77l-0.56,-0.08v-3.5h-0.06c-2.33,0 -4.2,1.43 -4.2,3.16l-13.37,0.12c-9.68,0 -17.83,5.9 -20.17,13.89c-0.639442,2.32986 -0.812753,4.76302 -0.51,7.16c0,0 1.6,9.74 10.62,12.86v4.66v0c0.128443,2.01048 1.82626,3.55796 3.84,3.5c0.9941,0.0713474 1.97556,-0.25704 2.72655,-0.912279c0.75099,-0.655239 1.20939,-1.58313 1.27345,-2.57772v0v-2.36c0.74,0.07 16.4,0.1 16.7,0.09v2.23v0c0.357966,1.8882 2.00817,3.25495 3.93,3.25495c1.92183,0 3.57203,-1.36675 3.93,-3.25495v0v-3.82c5.26,-2.19 9.31,-5.5 11.08,-10.5h2.89c0.280238,0.016337 0.555349,-0.0802195 0.763909,-0.268111c0.20856,-0.187891 0.3332,-0.451471 0.346091,-0.731889v-9.2c-0.015442,-0.255784 -0.134638,-0.494176 -0.33,-0.66v0Z" transform="translate(9.23725, 20.5)"></path><path fill="#DA9530" d="M4.76085,0.07369v4.65c-0.05,-0.23 -0.57,1 -2.68,1c-0.691991,0.0020083 -1.37556,-0.151794 -2,-0.45c-0.0540373,-0.259839 -0.0808488,-0.524603 -0.08,-0.79c0.118891,-2.52194 2.23633,-4.48369 4.76,-4.41v0Z" transform="translate(40.0092, 28.4463)"></path><path fill="#434E5B" d="M4.18699,0.808385c0.906016,0.808385 0.906016,2.11904 0,2.92742c-0.906016,0.808385 -2.37496,0.808385 -3.28098,0c-0.906016,-0.808385 -0.906016,-2.11904 0,-2.92742c0.906016,-0.808385 2.37496,-0.808385 3.28098,0" transform="translate(52.0835, 34.7979)"></path><path fill="#FFFFFF" d="M1.80474,0.390524c0.390524,0.390524 0.390524,1.02369 0,1.41421c-0.390524,0.390524 -1.02369,0.390524 -1.41421,0c-0.390524,-0.390524 -0.390524,-1.02369 0,-1.41421c0.390524,-0.390524 1.02369,-0.390524 1.41421,0" transform="translate(54.1124, 35.3724)"></path><path fill="#F8BD36" d="M7.58765,1.05126v9.17c-0.0128915,0.280418 -0.137531,0.543998 -0.346091,0.731889c-0.20856,0.187891 -0.483671,0.284448 -0.763909,0.268111h-2.89c-2.18725,-1.01072 -3.58765,-3.20051 -3.58765,-5.61c0,-2.40949 1.40039,-4.59928 3.58765,-5.61v0h2.87c0.28659,-0.0012621 0.563844,0.101819 0.78,0.29c0.2292,0.18458 0.358731,0.465846 0.35,0.76v0Z" transform="translate(60.0524, 36.7787)"></path><path fill="#434E5B" d="M14.81,0.531536v0c-0.107804,0.330075 -0.423191,0.547159 -0.77,0.53h-13.28c-0.34049,0.0139379 -0.649644,-0.197589 -0.76,-0.52v0c0.0375303,-0.116625 0.106781,-0.220501 0.2,-0.3c0.156947,-0.131134 0.35549,-0.202042 0.56,-0.2h13.24c0.350375,-0.0415359 0.684152,0.160379 0.81,0.49Z" transform="translate(28, 25.7585)"></path><path fill="#DA9530" d="M5.23,1.14c0,0 -0.07,1.2 -0.12,1.36c-0.447982,0.977578 -1.42466,1.60436 -2.5,1.60436c-1.07534,0 -2.05202,-0.626778 -2.5,-1.60436c-0.0562996,-0.154858 -0.0932463,-0.31608 -0.11,-0.48l0.21,-0.23l0.9,-1.79c2.13,1.03 1.58,0.86 4.12,1.14Z" transform="translate(26.2, 58.3)"></path><path fill="#DA9530" d="M6.46,0.54v2.15v0c-0.256919,1.25094 -1.35795,2.14882 -2.635,2.14882c-1.27705,0 -2.37808,-0.897884 -2.635,-2.14882l-1.19,-0.16l2.69,-2.15c3.88,-0.38 3.77,0.16 3.77,0.16Z" transform="translate(47.73, 57.07)"></path><path fill="#E1A730" d="M58.22,0v3.87c-0.0128915,0.280418 -0.137531,0.543997 -0.346091,0.731889c-0.20856,0.187891 -0.483671,0.284448 -0.763909,0.268111h-2.89c-1.77,5 -5.82,8.27 -11.08,10.46v3.85v0c-0.357966,1.8882 -2.00817,3.25495 -3.93,3.25495c-1.92183,0 -3.57203,-1.36675 -3.93,-3.25495v0v-2.24c-0.31,0 -16,0 -16.7,-0.09v2.32v0c-0.0616485,0.992666 -0.516148,1.91989 -1.26301,2.57669c-0.746867,0.656792 -1.72458,0.98905 -2.71699,0.923314c-2.04441,0.108395 -3.79602,-1.4471 -3.93,-3.49v0v-4.66c-8.96,-3.13 -10.56,-12.85 -10.56,-12.85c-0.06,-0.59 -0.09,-1.14 -0.11,-1.66l58.22,-0.01Z" transform="translate(9.4, 43.33)"></path></g></g></g></svg>