<?xml version="1.0" encoding="UTF-8"?><svg version="1.1" viewBox="0 0 76 67" xmlns="http://www.w3.org/2000/svg" xmlns:xlink="http://www.w3.org/1999/xlink"><!--Generated by IJSVG (https://github.com/curthard89/IJSVG)--><defs><path id="path-4" d="M22.6134,0.47644c4.89327,0.47644 4.89327,1.2489 0,1.72534c-4.89327,0.47644 -12.8268,0.47644 -17.7201,7.10543e-15c-4.89327,-0.47644 -4.89327,-1.2489 0,-1.72534c4.89327,-0.47644 12.8268,-0.47644 17.7201,-7.10543e-15"></path><path id="path-7" d="M23.5879,5.10415c5.10415,5.10415 5.10415,13.3796 0,18.4838c-5.10415,5.10415 -13.3796,5.10415 -18.4838,0c-5.10415,-5.10415 -5.10415,-13.3796 -3.55271e-15,-18.4838c5.10415,-5.10415 13.3796,-5.10415 18.4838,0"></path><path id="path-6" d="M20.4477,0.390524c4.42464,0.390524 4.42464,1.02369 0,1.41421c-4.42464,0.390524 -11.5984,0.390524 -16.023,0c-4.42464,-0.390524 -4.42464,-1.02369 0,-1.41421c4.42464,-0.390524 11.5984,-0.390524 16.023,0"></path><path id="path-2" d="M25.05,0v2.69c0,0.57 -4.05,1.05 -9.52,1.18h-3c-6.92,0 -12.53,-0.55 -12.53,-1.22v-2.65h25.05Z"></path><path id="path-3" d="M0,0v2.69c0,0.67 5.61,1.22 12.53,1.22c6.92,0 12.53,-0.55 12.53,-1.22v-2.69h-25.06Z"></path><path id="path-5" d="M22.6134,0.47644c4.89327,0.47644 4.89327,1.2489 0,1.72534c-4.89327,0.47644 -12.8268,0.47644 -17.7201,0c-4.89327,-0.47644 -4.89327,-1.2489 -3.55271e-15,-1.72534c4.89327,-0.47644 12.8268,-0.47644 17.7201,-2.22045e-16"></path><path id="path-1" d="M3.96748,3.94748v0c-0.125749,0.126409 -0.296697,0.19748 -0.475,0.19748c-0.178303,0 -0.349251,-0.0710715 -0.475,-0.19748l-2.82,-2.8c-0.126409,-0.125749 -0.19748,-0.296697 -0.19748,-0.475c0,-0.178303 0.0710715,-0.349251 0.19748,-0.475v0c0.125749,-0.126409 0.296697,-0.19748 0.475,-0.19748c0.178303,0 0.349251,0.0710715 0.475,0.19748l2.82,2.8c0.126409,0.125749 0.19748,0.296697 0.19748,0.475c0,0.178303 -0.0710715,0.349251 -0.19748,0.475Z"></path></defs><g transform="translate(-29, -300)"><g transform="translate(28, 300)"><g stroke="none" stroke-width="1"><path fill="#E3E4E3" d="M47.3383,10.2435c10.2435,10.2435 10.2435,26.8514 0,37.0948c-10.2435,10.2435 -26.8514,10.2435 -37.0948,1.42109e-14c-10.2435,-10.2435 -10.2435,-26.8514 0,-37.0948c10.2435,-10.2435 26.8514,-10.2435 37.0948,0" transform="translate(0.779137, 0.309138)"></path><path fill="#2F363E" d="M28.7334,2.31042c14.4864,0 26.23,11.7436 26.23,26.23c0,14.4864 -11.7436,26.23 -26.23,26.23c-14.4864,0 -26.23,-11.7436 -26.23,-26.23c-4.44089e-16,-14.4864 11.7436,-26.23 26.23,-26.23v-4.44089e-16Zm0,-2.31c-1.93129,-0.000421458 -3.8577,0.193895 -5.75,0.58c-3.65269,0.748947 -7.12206,2.21009 -10.21,4.3c-4.58577,3.09931 -8.17409,7.46225 -10.33,12.56c-0.732267,1.72715 -1.29166,3.52258 -1.67,5.36c-0.773392,3.79432 -0.773392,7.70568 0,11.5c0.748947,3.65269 2.21009,7.12206 4.3,10.21c3.09663,4.58427 7.45592,8.17245 12.55,10.33c1.72751,0.728849 3.52293,1.28489 5.36,1.66c3.79432,0.773392 7.70568,0.773392 11.5,0c3.65261,-0.749197 7.12194,-2.21033 10.21,-4.3c4.58427,-3.09663 8.17245,-7.45592 10.33,-12.55c0.728849,-1.72751 1.28489,-3.52293 1.66,-5.36c0.773392,-3.79432 0.773392,-7.70568 0,-11.5c-0.748947,-3.65269 -2.21009,-7.12207 -4.3,-10.21c-3.09394,-4.58278 -7.44959,-8.17081 -12.54,-10.33c-1.72751,-0.728849 -3.52293,-1.28489 -5.36,-1.66c-1.89231,-0.386038 -3.81871,-0.580354 -5.75,-0.58v-0.01Z" transform="translate(0.836608, 0.559579)"></path><g transform="translate(33.2536, 36.2473)"><g transform="rotate(-30)"><g fill="#EC8457" stroke="none" stroke-width="1" transform="translate(-33.2536, -36.2473)"><path d="M0,0h1.17v14.92h-1.17Z" transform="translate(32.6686, 28.7873)"></path></g></g></g><path fill="#5B6375" d="M11.2161,9.66032v0l-8.71,-9c-0.290137,-0.436717 -0.811239,-0.660315 -1.32766,-0.569681c-0.516417,0.0906342 -0.930235,0.478317 -1.05432,0.987732c-0.124085,0.509415 0.0650894,1.04398 0.481976,1.36195l8.75,9.06l0.07,0.05c0.531181,0.434548 1.30674,0.38957 1.78412,-0.103468c0.477386,-0.493038 0.497329,-1.26964 0.045877,-1.78653h-0.04Z" transform="translate(18.3939, 17.9597)"></path><path fill="#2F363E" d="M12.5916,0.0409284v0l-11.34,1.41c-0.511183,0.0193085 -0.953925,0.360551 -1.10278,0.849962c-0.148853,0.489411 0.0289131,1.01938 0.442778,1.32004c0.269243,0.200568 0.609714,0.280252 0.94,0.22l11.37,-1.42h0.08c0.296318,-0.0533132 0.56105,-0.217876 0.74,-0.46c0.283793,-0.386927 0.309802,-0.905717 0.0661313,-1.31909c-0.243671,-0.413371 -0.71017,-0.641841 -1.18613,-0.580912l-0.01,-0.02Z" transform="translate(30.0484, 26.3791)"></path><path fill="#E3E4E3" d="M3.62752,0.784954c0.784954,0.784954 0.784954,2.05762 0,2.84257c-0.784954,0.784954 -2.05762,0.784954 -2.84257,0c-0.784954,-0.784954 -0.784954,-2.05762 0,-2.84257c0.784954,-0.784954 2.05762,-0.784954 2.84257,0" transform="translate(27.7738, 27.2538)"></path><path fill="#2F363E" d="M3.5,1.45c1.10457,0 2,0.89543 2,2c0,1.10457 -0.89543,2 -2,2c-1.10457,0 -2,-0.89543 -2,-2c0,-1.10457 0.89543,-2 2,-2v0Zm0,-1.45c-1.933,0 -3.5,1.567 -3.5,3.5c0,1.933 1.567,3.5 3.5,3.5c1.933,0 3.5,-1.567 3.5,-3.5c-0.0054928,-1.93072 -1.56928,-3.49451 -3.5,-3.5v0Z" transform="translate(26.5, 26)"></path><path fill="#2F363E" d="M0.67,5.32016v0c-0.370031,0 -0.67,-0.299969 -0.67,-0.67v-4c0.0108167,-0.362198 0.307641,-0.650161 0.67,-0.65v0c0.370031,0 0.67,0.299969 0.67,0.67v4c-0.0108167,0.362198 -0.307641,0.650162 -0.67,0.65v0Z" transform="translate(29.33, 5.18984)"></path><path fill="#2F363E" d="M0.19748,3.95748v0c-0.126409,-0.125749 -0.19748,-0.296697 -0.19748,-0.475c0,-0.178303 0.0710715,-0.349251 0.19748,-0.475l2.81,-2.81c0.125749,-0.126409 0.296697,-0.19748 0.475,-0.19748c0.178303,0 0.349251,0.0710715 0.475,0.19748v0c0.126409,0.125749 0.19748,0.296697 0.19748,0.475c0,0.178303 -0.0710715,0.349251 -0.19748,0.475l-2.81,2.81c-0.125749,0.126409 -0.296697,0.19748 -0.475,0.19748c-0.178303,0 -0.349251,-0.0710715 -0.475,-0.19748Z" transform="translate(42.9325, 12.3225)"></path><path fill="#2F363E" d="M0,0.67v0c0,-0.177695 0.0705891,-0.348112 0.196238,-0.473762c0.125649,-0.125649 0.296067,-0.196238 0.473762,-0.196238h4c0.370031,0 0.67,0.299969 0.67,0.67v0c0,0.177695 -0.0705891,0.348112 -0.196238,0.473761c-0.125649,0.125649 -0.296066,0.196238 -0.473761,0.196238h-4c-0.370031,0 -0.67,-0.299969 -0.67,-0.67v0Z" transform="translate(48.28, 28.79)"></path><path fill="#2F363E" d="M0.20775,0.19748v0c0.125749,-0.126409 0.296697,-0.19748 0.475,-0.19748c0.178303,0 0.349251,0.0710715 0.475,0.19748l2.81,2.82c0.126409,0.125749 0.19748,0.296697 0.19748,0.475c0,0.178303 -0.0710715,0.349251 -0.19748,0.475v0c-0.125749,0.126409 -0.296697,0.19748 -0.475,0.19748c-0.178303,0 -0.349251,-0.0710715 -0.475,-0.19748l-2.81,-2.8c-0.132671,-0.126447 -0.20775,-0.301723 -0.20775,-0.485c0,-0.183277 0.0750796,-0.358553 0.20775,-0.485v0Z" transform="translate(42.6122, 41.9825)"></path><path fill="#2F363E" d="M0.67,0v0c0.177695,0 0.348112,0.0705891 0.473761,0.196238c0.125649,0.125649 0.196239,0.296067 0.196239,0.473762v4c0,0.177695 -0.0705891,0.348112 -0.196239,0.473762c-0.125649,0.125649 -0.296066,0.196238 -0.473761,0.196238v0c-0.177695,0 -0.348112,-0.0705891 -0.473761,-0.196238c-0.125649,-0.125649 -0.196239,-0.296067 -0.196239,-0.473762v-4c0,-0.370031 0.299969,-0.67 0.67,-0.67v0Z" transform="translate(29.33, 47.76)"></path><path fill="#2F363E" d="M3.94748,0.19748v0c0.126409,0.125749 0.19748,0.296697 0.19748,0.475c0,0.178303 -0.0710715,0.349251 -0.19748,0.475l-2.8,2.82c-0.125749,0.126409 -0.296697,0.19748 -0.475,0.19748c-0.178303,0 -0.349251,-0.0710715 -0.475,-0.19748v0c-0.126409,-0.125749 -0.19748,-0.296697 -0.19748,-0.475c0,-0.178303 0.0710715,-0.349251 0.19748,-0.475l2.8,-2.82c0.125749,-0.126409 0.296697,-0.19748 0.475,-0.19748c0.178303,0 0.349251,0.0710715 0.475,0.19748v0Z" transform="translate(12.9025, 42.5025)"></path><path fill="#2F363E" d="M5.34,0.67v0c0,0.370031 -0.299969,0.67 -0.67,0.67h-4c-0.177695,0 -0.348112,-0.0705891 -0.473762,-0.196238c-0.125649,-0.125649 -0.196238,-0.296067 -0.196238,-0.473762v0c0,-0.177695 0.0705891,-0.348112 0.196238,-0.473761c0.125649,-0.125649 0.296066,-0.196238 0.473762,-0.196238h4c0.177695,0 0.348112,0.0705891 0.473762,0.196238c0.125649,0.125649 0.196238,0.296066 0.196238,0.473761Z" transform="translate(5.76, 28.87)"></path><use fill="#2F363E" transform="translate(12.5725, 12.1625)" xlink:href="#path-1"></use><path fill="#FFFFFF" d="M26.9379,0v52.45h-1.22c-14.2841,-0.278943 -25.7179,-11.9382 -25.7179,-26.225c0,-14.2868 11.4338,-25.9461 25.7179,-26.225h1.22v0Z" transform="translate(3.14213, 2.89)"></path><path fill="#5B6375" d="M28.7342,0c-11.4684,0.00177346 -21.8242,6.86104 -26.3,17.42c-0.729788,1.73062 -1.28585,3.52945 -1.66,5.37c-0.774216,3.79424 -0.774216,7.70576 -1.11022e-16,11.5c0.748947,3.65269 2.21009,7.12206 4.3,10.21c3.09663,4.58427 7.45592,8.17245 12.55,10.33c1.72733,0.729344 3.5228,1.2854 5.36,1.66c1.89225,0.386442 3.81869,0.580762 5.75,0.58h0.58v-2.31h-1.26c-14.2841,-0.278943 -25.7179,-11.9382 -25.7179,-26.225c1.77636e-15,-14.2868 11.4338,-25.9461 25.7179,-26.225h1.26v-2.3l-0.58,-0.01Z" transform="translate(0.805784, 0.58)"></path><path fill="#EC8457" d="M1.1,0.19v2.35l-0.31,-0.56l-0.79,-1.4l1,-0.58Z" transform="translate(28.98, 29.5)"></path><path fill="#5B6375" d="M11.1007,9.51925v0l-8.71,-9c-0.31903,-0.360829 -0.809266,-0.519252 -1.27912,-0.413356c-0.469856,0.105896 -0.844736,0.459299 -0.978137,0.922098c-0.133401,0.462799 -0.0041429,0.961519 0.337259,1.30126l8.75,9.06l0.07,0.05c0.531181,0.434548 1.30674,0.38957 1.78412,-0.103468c0.477386,-0.493038 0.497329,-1.26964 0.045877,-1.78653l-0.02,-0.03Z" transform="translate(18.4693, 18.1107)"></path><path fill="#FFFFFF" d="M2.15637,0.0606808v4h-0.29c-0.969247,-0.0731612 -1.74556,-0.832595 -1.84,-1.8c-0.0034746,-0.0666214 -0.0034746,-0.133379 0,-0.2c-0.0263676,-0.94435 0.611649,-1.77836 1.53,-2c0.153361,-0.040508 0.311381,-0.0606808 0.47,-0.06l0.13,0.06Z" transform="translate(27.9236, 27.4093)"></path><path fill="#5B6375" d="M3.19759,1.52149c0.160229,-0.0401584 0.324816,-0.0603119 0.49,-0.06h0.17v-1.46h-0.17c-0.560236,-0.0014904 -1.11255,0.1323 -1.61,0.39c-0.810902,0.418516 -1.42758,1.13559 -1.72,2c-0.357595,1.06933 -0.178132,2.24544 0.482102,3.15946c0.660233,0.914017 1.72037,1.45398 2.8479,1.45054h0.17v-1.52h-0.32c-0.973131,-0.0685147 -1.75485,-0.82911 -1.85,-1.8c-0.0034928,-0.0666209 -0.0034928,-0.133379 0,-0.2c-0.0096646,-0.923638 0.61445,-1.73375 1.51,-1.96v0Z" transform="translate(26.2624, 25.9985)"></path><path fill="#5B6375" d="M0.82,0.0501569v5.29h-0.13c-0.373401,0.0001569 -0.679177,-0.296756 -0.69,-0.67v-4c0.0108232,-0.373244 0.316599,-0.670157 0.69,-0.67l0.13,0.05Z" transform="translate(29.26, 5.15984)"></path><path fill="#5B6375" d="M0.735413,0.0200833v5.3c0,0 0,0 -0.06,0v0c-0.175829,0.0054127 -0.346344,-0.0606722 -0.472604,-0.183162c-0.126259,-0.12249 -0.19748,-0.290925 -0.197396,-0.466838v-4c-0.0054127,-0.175829 0.0606722,-0.346344 0.183162,-0.472604c0.12249,-0.126259 0.290925,-0.19748 0.466838,-0.197396l0.08,0.02Z" transform="translate(29.3446, 47.7599)"></path><path fill="#5B6375" d="M3.96748,0.214656v0c0.126409,0.125749 0.19748,0.296697 0.19748,0.475c0,0.178303 -0.0710715,0.349251 -0.19748,0.475l-2.82,2.81c-0.125749,0.126409 -0.296697,0.19748 -0.475,0.19748c-0.178303,0 -0.349251,-0.0710715 -0.475,-0.19748v0c-0.126409,-0.125749 -0.19748,-0.296697 -0.19748,-0.475c0,-0.178303 0.0710715,-0.349251 0.19748,-0.475l2.8,-2.82c0.12781,-0.131376 0.303862,-0.204656 0.487142,-0.202766c0.18328,0.0018895 0.357784,0.0787827 0.482858,0.212766v0Z" transform="translate(12.8525, 42.5053)"></path><path fill="#5B6375" d="M5.34,0.67v0c0,0.370031 -0.299969,0.67 -0.67,0.67h-4c-0.370031,0 -0.67,-0.299969 -0.67,-0.67v0c0,-0.370031 0.299969,-0.67 0.67,-0.67h4c0.370031,0 0.67,0.299969 0.67,0.67v0Z" transform="translate(5.73, 28.88)"></path><use fill="#5B6375" transform="translate(12.5325, 12.1825)" xlink:href="#path-1"></use><path fill="#2F363E" d="M0,0v1.15v0v-1.15Z" transform="translate(30.08, 0)"></path><use fill="#FDC665" transform="translate(46.54, 51.43)" xlink:href="#path-2"></use><use fill="#E2AF5B" transform="translate(46.53, 51.43)" xlink:href="#path-3"></use><use fill="#F8BD36" transform="translate(45.3067, 50.2309)" xlink:href="#path-4"></use><use fill="#F8BD36" transform="translate(45.3067, 50.0909)" xlink:href="#path-4"></use><g transform="translate(47, 50)"><g opacity="0.41" fill="#FFFFFF" stroke="none" stroke-width="1"><path d="M11.41,2.04c-3,0 -5.88,-0.1 -8,-0.27c-3.41,-0.28 -3.41,-0.61 -3.41,-0.75c0,-0.14 0,-0.48 3.41,-0.75c2.14,-0.17 5,-0.27 8,-0.27c3,0 5.88,0.1 8,0.27c3.41,0.28 3.41,0.61 3.41,0.75c0,0.14 0,0.48 -3.41,0.75c-2.13,0.17 -4.97,0.27 -8,0.27Zm-11.22,-1c4.44089e-16,0.06 0.4,0.33 3.37,0.56c2.12,0.17 4.91,0.26 7.86,0.26c2.95,0 5.74,-0.09 7.86,-0.26c3,-0.23 3.32,-0.51 3.37,-0.56c0.05,-0.05 -0.4,-0.33 -3.37,-0.56c-2.12,-0.17 -4.91,-0.26 -7.86,-0.26c-2.95,0 -5.74,0.09 -7.86,0.26c-2.97,0.21 -3.33,0.48 -3.37,0.53v0.03Z" transform="translate(0.65, 0.38)"></path></g></g><use fill="#FDC665" transform="translate(45.34, 48.24)" xlink:href="#path-2"></use><use fill="#E2AF5B" transform="translate(45.33, 48.24)" xlink:href="#path-3"></use><g transform="translate(45, 47)"><g opacity="0.11" fill="#FFFFFF" stroke="none" stroke-width="1"><use transform="translate(-0.893317, 0.0408901)" xlink:href="#path-5"></use></g></g><use fill="#FDC665" transform="translate(44.1067, 46.9009)" xlink:href="#path-4"></use><use fill="#F8BD36" transform="translate(45.4238, 47.1024)" xlink:href="#path-6"></use><path fill="#FDC665" d="M25.07,0v2.69c0,0.57 -4.05,1.05 -9.52,1.18h-3c-6.93,0.03 -12.55,-0.51 -12.55,-1.19v-2.68h25.07Z" transform="translate(51, 45)"></path><use fill="#E2AF5B" transform="translate(51, 45)" xlink:href="#path-3"></use><g transform="translate(51, 43)"><g opacity="0.11" fill="#FFFFFF" stroke="none" stroke-width="1"><use transform="translate(-1.21332, 0.80089)" xlink:href="#path-5"></use></g></g><use fill="#F8BD36" transform="translate(49.7867, 43.6509)" xlink:href="#path-4"></use><g transform="translate(52, 43)"><g opacity="0.41" fill="#FFFFFF" stroke="none" stroke-width="1"><path d="M11.41,2.04c-3,0 -5.88,-0.1 -8,-0.27c-3.41,-0.28 -3.41,-0.61 -3.41,-0.75c0,-0.14 0,-0.48 3.41,-0.75c2.14,-0.17 5,-0.27 8,-0.27c3,0 5.88,0.1 8,0.27c3.46,0.25 3.46,0.59 3.46,0.77c0,0.18 0,0.48 -3.41,0.75c-2.18,0.14 -5.02,0.25 -8.05,0.25Zm-11.22,-1c4.996e-16,0.06 0.4,0.33 3.37,0.56c2.12,0.17 4.91,0.26 7.86,0.26c2.95,0 5.74,-0.09 7.86,-0.26c3,-0.23 3.32,-0.51 3.37,-0.56c0.05,-0.05 -0.4,-0.33 -3.37,-0.56c-2.12,-0.17 -4.91,-0.26 -7.86,-0.26c-2.95,0 -5.74,0.09 -7.86,0.26c-2.97,0.19 -3.33,0.46 -3.37,0.56Z" transform="translate(0.13, 0.96)"></path></g></g><use fill="#FDC665" transform="translate(44.13, 42)" xlink:href="#path-2"></use><use fill="#E2AF5B" transform="translate(44.12, 42)" xlink:href="#path-3"></use><g transform="translate(44, 40)"><g opacity="0.11" fill="#FFFFFF" stroke="none" stroke-width="1"><use transform="translate(-1.10332, 0.80089)" xlink:href="#path-5"></use></g></g><use fill="#F8BD36" transform="translate(42.8967, 40.6609)" xlink:href="#path-4"></use><g transform="translate(45, 40)"><g opacity="0.41" fill="#FFFFFF" stroke="none" stroke-width="1"><path d="M11.41,2.04c-3,0 -5.88,-0.1 -8,-0.27c-3.41,-0.28 -3.41,-0.61 -3.41,-0.75c0,-0.14 0,-0.48 3.41,-0.75c2.14,-0.17 5,-0.27 8,-0.27c3,0 5.88,0.1 8,0.27c3.41,0.28 3.41,0.61 3.41,0.75c0,0.14 0,0.48 -3.41,0.75c-2.12,0.16 -4.97,0.27 -8,0.27Zm-11.22,-1c4.996e-16,0.06 0.4,0.33 3.37,0.56c2.12,0.17 4.91,0.26 7.86,0.26c2.95,0 5.74,-0.09 7.86,-0.26c3,-0.23 3.32,-0.51 3.37,-0.56c0.05,-0.05 -0.4,-0.33 -3.37,-0.56c-2.12,-0.17 -4.91,-0.26 -7.86,-0.26c-2.95,0 -5.74,0.09 -7.86,0.26c-2.96,0.19 -3.32,0.47 -3.37,0.56Z" transform="translate(0.24, 0.96)"></path></g></g><use fill="#FDC665" transform="translate(46.54, 38.64)" xlink:href="#path-2"></use><use fill="#E2AF5B" transform="translate(46.53, 38.64)" xlink:href="#path-3"></use><use fill="#F8BD36" transform="translate(45.3067, 37.4409)" xlink:href="#path-4"></use><g transform="translate(46, 37)"><g opacity="0.41" fill="#FFFFFF" stroke="none" stroke-width="1"><path d="M12.63,2.72c-3.35,0 -6.5,-0.13 -8.87,-0.36c-3.76,-0.37 -3.76,-0.8 -3.76,-1c0,-0.2 0,-0.6 3.76,-1c2.37,-0.23 5.52,-0.36 8.87,-0.36c3.35,0 6.5,0.13 8.87,0.36c3.76,0.37 3.76,0.8 3.76,1c0,0.2 0,0.6 -3.76,1c-2.37,0.19 -5.52,0.36 -8.87,0.36Zm0,-2.44c-3.34,-2.22045e-16 -6.49,0.13 -8.85,0.36c-3.54,0.34 -3.58,0.74 -3.58,0.76c-1.66533e-16,0.02 -1.66533e-16,0.42 3.58,0.76c2.36,0.23 5.51,0.36 8.85,0.36c3.34,0 6.49,-0.13 8.85,-0.36c3.54,-0.34 3.58,-0.74 3.58,-0.76c0,-0.02 0,-0.42 -3.58,-0.76c-2.37,-0.27 -5.51,-0.4 -8.85,-0.4v0.04Z" transform="translate(0.43, 0.28)"></path></g></g><use fill="#F8BD36" transform="translate(46.6238, 37.5024)" xlink:href="#path-6"></use><use fill="#FDC665" transform="translate(42.95, 35.57)" xlink:href="#path-2"></use><path fill="#E2AF5B" d="M0,0v2.69c0,0.67 5.61,1.22 12.53,1.22c6.92,0 12.55,-0.55 12.55,-1.22v-2.69h-25.08Z" transform="translate(42.92, 35.57)"></path><g transform="translate(42, 34)"><g opacity="0.11" fill="#FFFFFF" stroke="none" stroke-width="1"><use transform="translate(-0.303317, 0.37089)" xlink:href="#path-5"></use></g></g><use fill="#F8BD36" transform="translate(41.6967, 34.2309)" xlink:href="#path-4"></use><g transform="translate(44, 34)"><g opacity="0.41" fill="#FFFFFF" stroke="none" stroke-width="1"><path d="M11.45,2.04c-3,0 -5.88,-0.1 -8,-0.27c-3.45,-0.28 -3.45,-0.61 -3.45,-0.75c0,-0.14 0,-0.48 3.41,-0.75c2.14,-0.17 5,-0.27 8,-0.27c3,0 5.88,0.1 8,0.27c3.41,0.28 3.41,0.61 3.41,0.75c0,0.14 0,0.48 -3.41,0.75c-2.08,0.18 -4.93,0.27 -7.96,0.27Zm-11.22,-1c-4.16334e-16,0.06 0.4,0.33 3.37,0.56c2.12,0.17 4.91,0.26 7.86,0.26c2.95,0 5.74,-0.09 7.86,-0.26c3,-0.23 3.32,-0.51 3.37,-0.56c0.05,-0.05 -0.4,-0.33 -3.37,-0.56c-2.12,-0.17 -4.91,-0.26 -7.86,-0.26c-2.95,0 -5.74,0.09 -7.86,0.26c-2.97,0.21 -3.33,0.48 -3.37,0.54v0.02Z" transform="translate(0, 0.51)"></path></g></g><g transform="translate(28, 40)"><g opacity="0.07" fill="#231F20" stroke="none" stroke-width="1"><path d="M23.5879,5.10415c5.10415,5.10415 5.10415,13.3796 0,18.4838c-5.10415,5.10415 -13.3796,5.10415 -18.4838,0c-5.10415,-5.10415 -5.10415,-13.3796 -5.32907e-15,-18.4838c5.10415,-5.10415 13.3796,-5.10415 18.4838,-5.32907e-15" transform="translate(-0.926038, -0.766038)"></path></g></g><use fill="#E2AF5B" transform="translate(26.654, 39.234)" xlink:href="#path-7"></use><use fill="#F8BD36" transform="translate(25.434, 39.584)" xlink:href="#path-7"></use><path fill="#FCED99" d="M12.39,0c-6.84281,0 -12.39,5.54719 -12.39,12.39c0,6.84281 5.54719,12.39 12.39,12.39c6.84281,0 12.39,-5.54719 12.39,-12.39c0,-3.28603 -1.30537,-6.43748 -3.62895,-8.76105c-2.32358,-2.32358 -5.47502,-3.62895 -8.76105,-3.62895Zm0,24.33c-6.59428,0 -11.94,-5.34572 -11.94,-11.94c0,-6.59428 5.34572,-11.94 11.94,-11.94c6.59428,0 11.94,5.34572 11.94,11.94c0,3.16668 -1.25796,6.20367 -3.49714,8.44286c-2.23918,2.23918 -5.27617,3.49715 -8.44286,3.49715Z" transform="translate(27.39, 41.54)"></path><path fill="#E2AF5B" d="M16.0983,3.48348c3.48348,3.48348 3.48348,9.13131 0,12.6148c-3.48348,3.48348 -9.13131,3.48348 -12.6148,0c-3.48348,-3.48348 -3.48348,-9.13131 0,-12.6148c3.48348,-3.48348 9.13131,-3.48348 12.6148,0" transform="translate(29.9891, 44.1391)"></path><path fill="#FCED99" d="M15.1418,3.2765c3.2765,3.2765 3.2765,8.58875 0,11.8653c-3.2765,3.2765 -8.58875,3.2765 -11.8653,0c-3.2765,-3.2765 -3.2765,-8.58875 0,-11.8653c3.2765,-3.2765 8.58875,-3.2765 11.8653,0" transform="translate(30.9009, 44.7209)"></path><path fill="#E2AF5B" d="M2.81,10.63c-0.977188,-0.0887796 -1.92971,-0.356569 -2.81,-0.79l0.1,-2.23c0.520453,0.286067 1.06608,0.523731 1.63,0.71c0.514851,0.187451 1.05341,0.301895 1.6,0.34c0.283955,0.0298705 0.570994,-0.0043008 0.84,-0.1c0.179106,-0.0771598 0.293725,-0.255016 0.29,-0.45c0.0087826,-0.149674 -0.0543715,-0.294557 -0.17,-0.39c-0.170705,-0.154373 -0.358608,-0.288589 -0.56,-0.4c-0.293333,-0.146667 -0.69,-0.323333 -1.19,-0.53c-0.484355,-0.191105 -0.938942,-0.450388 -1.35,-0.77c-0.309837,-0.244957 -0.556685,-0.560374 -0.72,-0.92c-0.153096,-0.390887 -0.214669,-0.811636 -0.18,-1.23c-0.0047599,-0.656427 0.285191,-1.28037 0.79,-1.7c0.639474,-0.445402 1.4007,-0.68285 2.18,-0.68l0.07,-1.49l1.39,0.06l-0.07,1.48c0.929087,0.100243 1.83306,0.364326 2.67,0.78l-0.89,1.88c-0.774757,-0.423388 -1.62997,-0.678929 -2.51,-0.75c-0.257704,-0.0299735 -0.51882,0.0043839 -0.76,0.1c-0.146745,0.069607 -0.240204,0.217583 -0.24,0.38c-0.0086896,0.137724 0.0423163,0.272525 0.14,0.37c0.158978,0.141466 0.337471,0.259339 0.53,0.35c0.253333,0.133333 0.61,0.286667 1.07,0.46c0.751124,0.253438 1.43496,0.673994 2,1.23c0.396628,0.461749 0.591189,1.06345 0.54,1.67c-0.0027618,0.688459 -0.292736,1.34453 -0.8,1.81c-0.603344,0.489916 -1.35296,0.764422 -2.13,0.78l-0.08,1.8l-1.46,-0.01l0.08,-1.76Z" transform="translate(36.27, 47.68)"></path></g></g></g></svg>