<?xml version="1.0" encoding="UTF-8"?><svg version="1.1" viewBox="0 0 59 64" xmlns="http://www.w3.org/2000/svg" xmlns:xlink="http://www.w3.org/1999/xlink"><!--Generated by IJSVG (https://github.com/curthard89/IJSVG)--><g transform="translate(-385, -295)"><g transform="translate(385, 295)"><g stroke="none" stroke-width="1"><path fill="#B3ACA0" d="M19.08,2.75c0,0 -0.14,16.65 -15,22.22c-1.32714,0.491585 -2.69149,0.876147 -4.08,1.15l0.41,-3.85c2.20865,-0.14835 4.35375,-0.801802 6.27,-1.91c3.73,-2.07 7.91,-6.38 9.19,-15.3c0,8.88178e-16 0.32,-1.9 -2.06,-2.06h-5.33l-0.11,-3h8.6c1.24197,0.337496 2.10554,1.46299 2.11,2.75v0Z" transform="translate(39.59, 7.94)"></path><path opacity="0.07" fill="#231F20" d="M0.47,1.91c2.20865,-0.14835 4.35375,-0.801802 6.27,-1.91c-0.730852,1.62146 -1.62195,3.1658 -2.66,4.61c-1.32714,0.491585 -2.69149,0.876147 -4.08,1.15l0.47,-3.85Z" transform="translate(39.53, 28.3)"></path><path opacity="0.07" fill="#231F20" d="M2.89,0c-0.06,0.89 -0.14,1.89 -0.25,3h-2.53l-0.11,-3h2.89Z" transform="translate(47.96, 7.94)"></path><path fill="#B3ACA0" d="M19.12,26.11c-1.75645,-0.344521 -3.47234,-0.870682 -5.12,-1.57c-13.85,-5.93 -14,-21.8 -14,-21.8c0.00894206,-1.28328 0.871588,-2.4035 2.11,-2.74h8.6l-0.11,3h-5.29c-2.38,0.16 -2.06,2.06 -2.06,2.06c1.14,8.09 4.7,12.39 8.06,14.66c2.16207,1.47754 4.67789,2.3541 7.29,2.54l0.52,3.85Z" transform="translate(8.69, 7.95)"></path><path opacity="0.07" fill="#231F20" d="M3.67,0l-0.11,3h-3.31c-0.11,-1.07 -0.19,-2.06 -0.25,-3h3.67Z" transform="translate(15.75, 7.94)"></path><path opacity="0.07" fill="#231F20" d="M7.81,6.39c-1.75645,-0.344521 -3.47234,-0.870682 -5.12,-1.57c-1.05323,-1.51415 -1.95428,-3.12866 -2.69,-4.82c2.16207,1.47754 4.67789,2.3541 7.29,2.54l0.52,3.85Z" transform="translate(20, 27.67)"></path><path fill="#B3ACA0" d="M26.9996,6.33c0,0.83395 -0.67605,1.51 -1.51,1.51h-23.9c-0.726002,-0.0056326 -1.34375,-0.530406 -1.4667,-1.24595c-0.122945,-0.715539 0.284215,-1.41641 0.966699,-1.66405c0.172902,-0.0508745 0.350448,-0.0843737 0.53,-0.1c5.47,-1.07 8.08,-2.99 9.31,-4.48c1.67338,0.0184829 3.34551,-0.0985662 5,-0.35c1.11,1.59 3.68,3.67 9.61,4.82c0.179916,0.0187533 0.357481,0.0556065 0.53,0.11c0.56689,0.232863 0.935107,0.787167 0.93,1.4v0Z" transform="translate(19.9104, 56.16)"></path><path fill="#BEBEBE" d="M19.71,37.06c0,0 -1.33,0.35 -1.57,1.34c-0.0053339,0.063221 -0.0053339,0.126779 0,0.19c-0.0162523,0.122798 -0.0162523,0.247202 0,0.37v14.1c0.0723275,0.783104 0.367275,1.52915 0.85,2.15c-1.65449,0.251434 -3.32662,0.368483 -5,0.35c0.633483,-0.691604 1.0294,-1.56753 1.13,-2.5v-14.11c0.0048067,-0.0732546 0.0048067,-0.146745 0,-0.22c0.0013834,-0.149545 -0.0222769,-0.298267 -0.07,-0.44c-0.3,-0.91 -1.54,-1.23 -1.54,-1.23c-13.51,-6.82 -13.11,-34.76 -13.11,-34.76c0,-1.82 2.14,-2.3 2.14,-2.3h28.17c0,0 2.14,0.48 2.14,2.3c0,0 0.39,27.94 -13.14,34.76Z" transform="translate(16.83, 0.94)"></path><path fill="#B3ACA0" d="M33.87,1.42c-0.105201,-0.809801 -0.7934,-1.41678 -1.61,-1.42h-30.76c-0.678084,0.015858 -1.27548,0.449968 -1.5,1.09v4.41c0,0.861564 0.698436,1.56 1.56,1.56h0.66c0.749327,0.00437725 1.39591,-0.524644 1.54,-1.26h0.1c0.201733,0.653719 0.805862,1.09972 1.49,1.1h0.66c0.684138,-0.00027957 1.28827,-0.446281 1.49,-1.1h0.14c0.201733,0.653719 0.805862,1.09972 1.49,1.1h0.66c0.684138,-0.00027957 1.28827,-0.446281 1.49,-1.1h0.14c0.201733,0.653719 0.805862,1.09972 1.49,1.1h0.66c0.684138,-0.00027957 1.28827,-0.446281 1.49,-1.1h0.14c0.202813,0.657262 0.812171,1.10412 1.5,1.1h0.66c0.684138,-0.00027957 1.28827,-0.446281 1.49,-1.1h0.13c0.204906,0.664435 0.824809,1.11305 1.52,1.1h0.66c0.684138,-0.00027957 1.28827,-0.446281 1.49,-1.1h0.13c0.201733,0.653719 0.805862,1.09972 1.49,1.1h0.66c0.684138,-0.00027957 1.28827,-0.446281 1.49,-1.1h0.08c0.143378,0.731652 0.784432,1.25958 1.53,1.26h0.66c0.650588,0.00581967 1.23647,-0.392741 1.47,-1c0.233528,0.607259 0.819412,1.00582 1.47,1h0.66c0.417192,0.00534906 0.819142,-0.156643 1.11604,-0.449782c0.296897,-0.293139 0.463996,-0.692992 0.463962,-1.11022v-1.12c0.0048413,-0.0699163 0.0048413,-0.140084 0,-0.21v-2.54c0.0048096,-0.0699174 0.0048096,-0.140083 0,-0.21v0Z" transform="translate(16.5, 0)"></path><path fill="#F8BD36" d="M3.66,0.66c-1.49,0.83 -1.56,1.36 -0.66,2.83c-0.94,-1.43 -1.49,-1.55 -3,-0.7c1.48,-0.85 1.6,-1.36 0.66,-2.79c0.97,1.38 1.51,1.49 3,0.66Z" transform="translate(23.9, 22.51)"></path><path fill="#F8BD36" d="M1.5,0.29c-0.61,0.35 -0.66,0.56 -0.27,1.15c-0.39,-0.59 -0.61,-0.64 -1.23,-0.29c0.61,-0.35 0.66,-0.56 0.27,-1.15c0.35,0.59 0.62,0.64 1.23,0.29Z" transform="translate(25.38, 26.41)"></path><path opacity="0.8" fill="#FFFFFF" d="M4.2,0.8c-1.71,1.06 -1.86,1.69 -0.81,3.4c-1.06,-1.72 -1.68,-1.86 -3.39,-0.8c1.71,-1.06 1.86,-1.69 0.81,-3.4c1.05,1.71 1.68,1.86 3.39,0.8Z" transform="translate(42.39, 1.42)"></path><path opacity="0.8" fill="#FFFFFF" d="M1,0c0,0.84 0.25,1 1.08,1c-0.84,0 -1,0.25 -1,1.08c0,-0.84 -0.25,-1 -1.08,-1c0.87,-0.04 1.05,-0.24 1,-1.08Z" transform="translate(40.31, 1.48)"></path><path fill="#F5D4B2" d="M21.09,3.48l-0.14,0.08v0c-0.129936,0.0717029 -0.267449,0.128721 -0.41,0.17v0c-0.103303,0.0587128 -0.173196,0.162367 -0.1889,0.280147c-0.015704,0.11778 0.0245888,0.236125 0.1089,0.319853c0.412281,0.400797 0.632118,0.959647 0.603405,1.53392c-0.0287136,0.574273 -0.3032,1.10841 -0.753405,1.46608c-0.144473,0.1293 -0.301984,0.243245 -0.47,0.34h-0.05l-0.26,0.13v0c-0.129359,0.0616893 -0.220568,0.182514 -0.244451,0.323825c-0.0238835,0.141311 0.0225514,0.2854 0.124451,0.386175v0c0.559918,0.452401 0.737586,1.22918 0.43,1.88c-0.223579,0.57966 -0.645149,1.06145 -1.19,1.36l-0.24,0.1c-0.175105,0.0295804 -0.302481,0.182431 -0.3,0.36c-0.0164636,0.148751 0.0438112,0.295671 0.16,0.39c0.312714,0.248099 0.51993,0.605368 0.58,1c0.0353229,0.309176 -0.0202801,0.621943 -0.16,0.9c-0.20851,0.421498 -0.505216,0.793233 -0.87,1.09c-0.297357,0.203747 -0.615876,0.374741 -0.95,0.51c-0.304546,0.0998143 -0.615185,0.179979 -0.93,0.24c-0.553333,0.113333 -1.09667,0.21 -1.63,0.29c-1.65449,0.251434 -3.32662,0.368483 -5,0.35c-2.83248,0.0063134 -5.64557,-0.467044 -8.32,-1.4c-0.263467,-0.149804 -0.53753,-0.280151 -0.82,-0.39h-0.17v0v-12.52v0h0.06l0.85,-0.6l0.08,-0.07v0c0.390669,-0.355569 0.823985,-0.661241 1.29,-0.91v0c1.26586,-0.603502 2.68092,-0.82254 4.07,-0.63h0.12c1.33808,-0.0285449 2.6735,-0.13204 4,-0.31l1.45,-0.15h7.66h1.08c0.692413,0.0325807 1.27773,0.523753 1.43,1.2c0.198328,0.896634 -0.206035,1.81858 -1,2.28Z" transform="translate(21.53, 39.52)"></path><path fill="#4789BC" d="M6.61828,16.84c0.028277,0.670264 -0.489922,1.2376 -1.16,1.27h-4.27c-0.670078,-0.0323969 -1.18828,-0.599736 -1.16,-1.27v-15.57c-0.028277,-0.670264 0.489922,-1.2376 1.16,-1.27h4.27c0.670078,0.0323969 1.18828,0.599736 1.16,1.27v15.57Z" transform="translate(14.9117, 39.26)"></path><path fill="#DDE4E8" d="M1.80474,0.390524c0.390524,0.390524 0.390524,1.02369 0,1.41421c-0.390524,0.390524 -1.02369,0.390524 -1.41421,0c-0.390524,-0.390524 -0.390524,-1.02369 0,-1.41421c0.390524,-0.390524 1.02369,-0.390524 1.41421,0" transform="translate(16.3324, 53.4324)"></path><path fill="#DFC2A9" d="M21.11,3.89c-0.182382,0.118409 -0.381171,0.209381 -0.59,0.27c-0.113691,0.0507138 -0.194258,0.1552 -0.214397,0.27805c-0.0201392,0.122849 0.0228494,0.247591 0.114397,0.33195c0.412281,0.400797 0.632118,0.959647 0.603405,1.53392c-0.0287136,0.574273 -0.3032,1.10841 -0.753405,1.46608c-0.231816,0.204406 -0.495232,0.369885 -0.78,0.49c-0.139902,0.0603011 -0.238657,0.188681 -0.261057,0.33937c-0.0223997,0.150689 0.0347435,0.302243 0.151057,0.40063h-19.38v-5.88v0l0.91,-0.64l0.08,-0.07v0c1.48844,-1.31573 3.48971,-1.89224 5.45,-1.57c2.43,-0.84 3.54,-0.68 6.79,-0.56c2.66,0.1 5.78,0.15 6.32,0.15h1.08c0.692413,0.0325807 1.27773,0.523753 1.43,1.2c0.198339,0.878898 -0.183287,1.78677 -0.95,2.26v0Z" transform="translate(21.56, 39.04)"></path><path fill="#4789BC" d="M6.64266,1.23v7.56h-6.64v-7.56c-0.0026631,-0.323567 0.123325,-0.634939 0.350247,-0.865611c0.226921,-0.230672 0.536186,-0.361748 0.859753,-0.364389h4.27c0.318329,0.0051084 0.621087,0.138631 0.839522,0.370247c0.218435,0.231616 0.334009,0.54167 0.320478,0.859753Z" transform="translate(14.9373, 39.27)"></path><path fill="#29A2FF" d="M0,0h14.94v15.12h-14.94Z" transform="translate(0, 40.5)"></path></g></g></g></svg>