<?xml version="1.0" encoding="UTF-8"?><svg version="1.1" viewBox="0 0 512 512" xmlns="http://www.w3.org/2000/svg" xmlns:xlink="http://www.w3.org/1999/xlink"><!--Generated by IJSVG (https://github.com/curthard89/IJSVG)--><defs><path id="path-1" d="M118.08,33.83v32.2c0,30.96 -12.55,58.98 -32.83,79.27c-20.29,20.29 -48.32,32.84 -79.28,32.84c-0.97,0 -1.93,-0.01 -2.89,-0.04h-0.13c-0.92,-0.02 -1.84,-0.06 -2.75,-0.11c-0.07,0 -0.13,0 -0.2,-0.01c52.82,-2.95 94.75,-46.72 94.75,-100.29v-77.69c1.48,17.85 9.49,30.11 23.33,33.83Z"></path></defs><g fill="#5CDBF1"><path d="M188.717,0h-105.855c-45.69,0 -82.862,37.172 -82.862,82.862v65.694c0,4.142 3.358,7.5 7.5,7.5h256.578c4.142,0 7.5,-3.358 7.5,-7.5v-65.694c0,-45.69 -37.172,-82.862 -82.861,-82.862Z" transform="translate(120.211, 355.944)"></path><path fill="#37B7C4" d="M25.321,0h-25.321c45.69,0 82.861,37.172 82.861,82.862v65.694c0,4.142 -3.357,7.5 -7.5,7.5h25.321c4.142,0 7.5,-3.358 7.5,-7.5v-65.694c0,-45.69 -37.172,-82.862 -82.861,-82.862Z" transform="translate(283.607, 355.944)"></path><path fill="#F0EEEE" d="M209.459,16.42c-0.32,-2.175 -1.578,-4.1 -3.441,-5.266c-8.182,-5.12 -17.098,-8.735 -26.499,-10.746c-1.911,-0.408 -3.907,-0.055 -5.563,0.986l-64.76,40.742l-64.76,-40.741c-1.655,-1.042 -3.653,-1.394 -5.562,-0.986c-9.403,2.01 -18.319,5.626 -26.5,10.746c-1.863,1.166 -3.121,3.091 -3.441,5.265c-8.933,60.68 16.791,74.361 32.921,77.116c2.63,0.449 5.317,0.662 8.044,0.662c22.916,0 48.267,-15.049 59.263,-31.373c4.762,7.153 12.353,14.135 21.925,19.909c12.365,7.46 25.601,11.458 37.441,11.458c2.755,0 5.435,-0.216 8.01,-0.656c16.13,-2.755 41.855,-16.436 32.922,-77.116Z" transform="translate(146.804, 357.379)"></path><path fill="#D9D4D4" d="M42.712,44.895c0.388,-8.108 -0.09,-17.531 -1.704,-28.496c-0.282,-1.918 -1.296,-3.64 -2.809,-4.82c-0.502,-0.321 -0.995,-0.655 -1.504,-0.965c-0.094,-0.057 -0.189,-0.112 -0.284,-0.169c-0.996,-0.602 -2.007,-1.183 -3.03,-1.745c-0.196,-0.107 -0.393,-0.212 -0.59,-0.318c-0.934,-0.503 -1.88,-0.987 -2.835,-1.454c-0.251,-0.123 -0.502,-0.245 -0.754,-0.365c-0.914,-0.435 -1.838,-0.852 -2.769,-1.254c-0.286,-0.123 -0.571,-0.25 -0.858,-0.37c-0.911,-0.382 -1.833,-0.741 -2.761,-1.091c-0.308,-0.116 -0.613,-0.239 -0.922,-0.351c-0.939,-0.341 -1.89,-0.657 -2.844,-0.964c-0.298,-0.096 -0.593,-0.203 -0.893,-0.296c-1.192,-0.369 -2.396,-0.711 -3.61,-1.027c-0.624,-0.162 -1.256,-0.298 -1.884,-0.446c-0.571,-0.134 -1.14,-0.274 -1.715,-0.397c-1.874,-0.367 -3.819,-0.013 -5.439,1.006l-5.507,3.464c18.624,7.729 33.838,22.058 42.712,40.058Z" transform="translate(315.255, 357.4)"></path><path fill="#FA9E3E" d="M134.33,88.21h-10.83v-88.21h-84.2v88.21h-10.83c-10,0 -19.59,1.78 -28.47,5.04c0.71,2.42 1.52,4.79 2.43,7.11c12.37,31.53 43.05,53.86 78.97,53.86c35.92,0 66.6,-22.33 78.97,-53.86c0.91,-2.32 1.72,-4.69 2.43,-7.11c-8.88,-3.26 -18.47,-5.04 -28.47,-5.04Z" transform="translate(174.6, 267.73)"></path><path fill="#35343F" d="M58.081,0c-32.026,0 -58.081,26.055 -58.081,58.081c0,32.026 26.055,58.08 58.081,58.08c32.026,0 58.081,-26.055 58.081,-58.08c0,-32.026 -26.055,-58.081 -58.081,-58.081Z" transform="translate(197.919, 0)"></path><g fill="#484655"><path d="M136,0c-75.111,0 -136,63.997 -136,142.941c0,78.944 60.889,101.225 136,101.225c75.111,0 136,-22.281 136,-101.225c0,-78.944 -60.889,-142.941 -136,-142.941Z" transform="translate(120, 50.167)"></path><path d="M143.5,259.166c-43.626,0 -76.386,-7.247 -100.152,-22.155c-28.764,-18.043 -43.348,-47.169 -43.348,-86.57c0,-82.954 64.374,-150.441 143.5,-150.441c79.126,0 143.5,67.488 143.5,150.441c0,39.401 -14.584,68.527 -43.349,86.57c-23.765,14.907 -56.525,22.155 -100.151,22.155Zm0,-244.167c-70.855,0 -128.5,60.759 -128.5,135.441c-1.42109e-14,34.372 11.88,58.533 36.319,73.863c21.01,13.179 52.025,19.862 92.181,19.862c40.156,0 71.171,-6.683 92.181,-19.862c24.439,-15.33 36.319,-39.491 36.319,-73.863c0,-74.682 -57.645,-135.441 -128.5,-135.441Z" transform="translate(112.5, 42.668)"></path></g><g fill="#FA9E3E"><path d="M28.305,0h49.369v56.61h-49.369c-15.632,0 -28.305,-12.673 -28.305,-28.305c0,-15.632 12.673,-28.305 28.305,-28.305Z" transform="translate(97.534, 223.99)"></path><path d="M49.369,0h-49.369v56.61h49.369c15.632,0 28.305,-12.673 28.305,-28.305c0,-15.632 -12.673,-28.305 -28.305,-28.305Z" transform="translate(336.792, 199.67)"></path></g><use fill="#FFB56B" transform="translate(250.03, 164.65)" xlink:href="#path-1"></use><path fill="#49B6F2" d="M35.933,80.667h-35.933v-80.667h35.933c14.101,0 25.532,11.431 25.532,25.532v29.602c0.001,14.101 -11.43,25.533 -25.532,25.533Z" transform="translate(353, 199.67)"></path><path fill="#2E93CC" d="M22.466,0h-22.466c14.101,0 25.532,11.431 25.532,25.532v29.602c0,14.101 -11.431,25.532 -25.532,25.532h22.466c14.101,0 25.533,-11.431 25.533,-25.532v-29.602c0,-14.101 -11.431,-25.532 -25.533,-25.532Z" transform="translate(366.467, 199.67)"></path><path fill="#FFB56B" d="M200.89,24.165c-0.34,4.52 -0.33,8.79 0,12.77v77.69c0,53.57 -41.93,97.34 -94.75,100.29h-0.04c-59.13,-3.12 -106.1,-52.06 -106.1,-111.95v-45.879c0,-4.039 3.715,-7.07 7.667,-6.236c134.87,28.453 165.285,-19.629 193.223,-49.275c0.019,-0.02 0.037,-0.039 0.056,-0.059c1.431,-1.516 3.925,-0.12 3.416,1.902c-1.854,7.358 -3.007,14.306 -3.472,20.747Z" transform="translate(143.89, 127.715)"></path><use fill="#EF9245" transform="translate(250.03, 164.65)" xlink:href="#path-1"></use><g fill="#19303F"><path d="M7.5,17c-4.142,0 -7.5,-3.358 -7.5,-7.5v-2c0,-4.142 3.358,-7.5 7.5,-7.5c4.143,0 7.5,3.358 7.5,7.5v2c0,4.143 -3.357,7.5 -7.5,7.5Z" transform="translate(302.823, 212.962)"></path><path d="M7.5,17c-4.142,0 -7.5,-3.358 -7.5,-7.5v-2c0,-4.142 3.358,-7.5 7.5,-7.5c4.142,0 7.5,3.358 7.5,7.5v2c0,4.143 -3.358,7.5 -7.5,7.5Z" transform="translate(194.176, 212.962)"></path><path d="M111.1,0.131h-11.924c-0.139,0.57 -0.22,1.163 -0.22,1.775c0,10.139 -8.249,18.388 -18.388,18.388h-73.068c-4.143,0 -7.5,3.358 -7.5,7.5c0,4.142 3.357,7.5 7.5,7.5h73.068c18.41,0 33.388,-14.978 33.388,-33.388c0,-0.66 -0.094,-1.297 -0.254,-1.906c-0.855,0.086 -1.723,0.131 -2.602,0.131Z" transform="translate(277.833, 280.206)"></path></g><path d="M35.834,0h-16.667c-10.568,0 -19.167,8.598 -19.167,19.166c0,10.568 8.598,19.167 19.167,19.167h16.667c10.568,0 19.166,-8.598 19.166,-19.167c0,-10.568 -8.598,-19.166 -19.166,-19.166Z" transform="translate(237.833, 288.834)"></path></g></svg>