<?xml version="1.0" encoding="UTF-8"?><svg version="1.1" viewBox="0 0 76 67" xmlns="http://www.w3.org/2000/svg" xmlns:xlink="http://www.w3.org/1999/xlink"><!--Generated by IJSVG (https://github.com/curthard89/IJSVG)--><defs><path id="path-1" d="M11.95,0v1.28c0,0.27 -1.93,0.5 -4.52,0.56h-1.43c-3.29,0 -6,-0.26 -6,-0.58v-1.26h11.95Z"></path><path id="path-3" d="M10.7562,0.390524c2.32752,0.390524 2.32752,1.02369 0,1.41421c-2.32752,0.390524 -6.10119,0.390524 -8.42871,0c-2.32752,-0.390524 -2.32752,-1.02369 0,-1.41421c2.32752,-0.390524 6.10119,-0.390524 8.42871,0"></path><path id="path-9" d="M5.52,1.16c-1.44,0 -2.8,0 -3.82,-0.13c-1.7,-0.14 -1.7,-0.31 -1.7,-0.45c0,-0.14 0,-0.31 1.7,-0.45c1,-0.08 2.38,-0.13 3.82,-0.13c1.44,0 2.8,0 3.82,0.13c1.7,0.14 1.7,0.31 1.7,0.45c0,0.14 0,0.31 -1.7,0.45c-1.03,0.08 -2.38,0.13 -3.82,0.13Zm-5.11,-0.58c1.69116,0.250426 3.40115,0.350817 5.11,0.3c1.70885,0.0508173 3.41884,-0.0495737 5.11,-0.3c-1.69116,-0.250426 -3.40115,-0.350817 -5.11,-0.3c-1.70885,-0.0508173 -3.41884,0.0495737 -5.11,0.3v0Z"></path><path id="path-10" d="M10.7562,0.390524c2.32752,0.390524 2.32752,1.02369 0,1.41421c-2.32752,0.390524 -6.10119,0.390524 -8.42871,0c-2.32752,-0.390524 -2.32752,-1.02369 -3.55271e-15,-1.41421c2.32752,-0.390524 6.10119,-0.390524 8.42871,0"></path><path id="path-11" d="M9.70949,0.390524c2.10102,0.390524 2.10102,1.02369 0,1.41421c-2.10102,0.390524 -5.50745,0.390524 -7.60847,0c-2.10102,-0.390524 -2.10102,-1.02369 -3.55271e-15,-1.41421c2.10102,-0.390524 5.50745,-0.390524 7.60847,0"></path><path id="path-5" d="M5.52,1.16c-1.44,0 -2.8,0 -3.82,-0.13c-1.7,-0.14 -1.7,-0.31 -1.7,-0.45c0,-0.14 0,-0.31 1.7,-0.45c1,-0.08 2.38,-0.13 3.82,-0.13c1.44,0 2.8,0 3.82,0.13c1.7,0.14 1.7,0.31 1.7,0.45c0,0.14 0,0.31 -1.7,0.45c-1.02,0.08 -2.38,0.13 -3.82,0.13Zm-5.11,-0.58c1.69116,0.250426 3.40115,0.350817 5.11,0.3c1.70885,0.0508173 3.41884,-0.0495737 5.11,-0.3c-1.69116,-0.250426 -3.40115,-0.350817 -5.11,-0.3c-1.70885,-0.0508173 -3.41884,0.0495737 -5.11,0.3v0Z"></path><path id="path-8" d="M9.70949,0.390524c2.10102,0.390524 2.10102,1.02369 0,1.41421c-2.10102,0.390524 -5.50745,0.390524 -7.60847,0c-2.10102,-0.390524 -2.10102,-1.02369 0,-1.41421c2.10102,-0.390524 5.50745,-0.390524 7.60847,0"></path><path id="path-6" d="M5.52,1.16c-1.44,0 -2.8,0 -3.82,-0.13c-1.7,-0.14 -1.7,-0.31 -1.7,-0.45c0,-0.14 0,-0.31 1.7,-0.45c1,-0.08 2.38,-0.13 3.82,-0.13c1.44,0 2.8,0 3.82,0.13c1.7,0.14 1.7,0.31 1.7,0.45c0,0.14 0,0.31 -1.7,0.45c-1.02,0.08 -2.38,0.13 -3.82,0.13Zm-5.11,-0.58c1.69116,0.250426 3.40115,0.350817 5.11,0.3c1.70885,0.0508173 3.41884,-0.0495737 5.11,-0.3c-1.69116,-0.250426 -3.40115,-0.350817 -5.11,-0.3c-1.70885,-0.0508173 -3.41884,0.0495737 -5.11,0.3Z"></path><path id="path-4" d="M5.52,1.16c-1.44,0 -2.8,0 -3.82,-0.13c-1.7,-0.14 -1.7,-0.31 -1.7,-0.45c0,-0.14 0,-0.31 1.7,-0.45c1,-0.08 2.38,-0.13 3.82,-0.13c1.44,0 2.8,0 3.82,0.13c1.7,0.14 1.7,0.31 1.7,0.45c0,0.14 0,0.31 -1.7,0.45c-1.03,0.09 -2.38,0.13 -3.82,0.13Zm-5.11,-0.58c1.69116,0.250426 3.40115,0.350817 5.11,0.3c1.70885,0.0508173 3.41884,-0.0495737 5.11,-0.3c-1.69116,-0.250426 -3.40115,-0.350817 -5.11,-0.3c-1.70914,-0.0475081 -3.41914,0.0562293 -5.11,0.31v-0.01Z"></path><path id="path-2" d="M0,0v1.28c0,0.32 2.67,0.58 6,0.58c3.33,0 6,-0.26 6,-0.58v-1.28h-12Z"></path><path id="path-7" d="M5.52,1.16c-1.44,0 -2.8,0 -3.82,-0.13c-1.7,-0.14 -1.7,-0.31 -1.7,-0.45c0,-0.14 0,-0.31 1.7,-0.45c1,-0.08 2.38,-0.13 3.82,-0.13c1.44,0 2.8,0 3.82,0.13c1.7,0.14 1.7,0.31 1.7,0.45c0,0.14 0,0.31 -1.7,0.45c-1.02,0.09 -2.38,0.13 -3.82,0.13Zm-5.11,-0.58c1.69116,0.250426 3.40115,0.350817 5.11,0.3c1.70885,0.0508173 3.41884,-0.0495737 5.11,-0.3c-1.69116,-0.250426 -3.40115,-0.350817 -5.11,-0.3c-1.70914,-0.0475081 -3.41914,0.0562293 -5.11,0.31v-0.01Z"></path></defs><g transform="translate(-29, -396)"><g transform="translate(29, 396)"><g stroke="none" stroke-width="1"><path fill="#29A2FF" d="M0,24.08h9.07l13.47,-23.18l-8.15,-0.9Z" transform="translate(47.15, 42.22)"></path><path fill="#29A2FF" d="M0,16.71h22.17l0.72,-16.71Z" transform="translate(52.24, 28.1)"></path><use fill="#FDC666" transform="translate(54.12, 64.39)" xlink:href="#path-1"></use><use fill="#E0AD5A" transform="translate(54.15, 64.39)" xlink:href="#path-2"></use><use opacity="0.11" fill="#FFFFFF" transform="translate(53.5681, 63.3524)" xlink:href="#path-3"></use><use fill="#F6BC32" transform="translate(53.5681, 63.2924)" xlink:href="#path-3"></use><path opacity="0.41" fill="#FFFFFF" d="M5.52,1.16c-1.44,0 -2.8,0 -3.82,-0.13c-1.7,-0.14 -1.7,-0.31 -1.7,-0.45c0,-0.14 0,-0.31 1.7,-0.45c1,-0.08 2.38,-0.13 3.82,-0.13c1.44,0 2.8,0 3.82,0.13c1.7,0.14 1.7,0.31 1.7,0.45c0,0.14 0,0.31 -1.7,0.45c-1.02,0.09 -2.38,0.13 -3.82,0.13Zm-5.11,-0.57c1.69116,0.250426 3.40115,0.350817 5.11,0.3c1.70885,0.0508173 3.41884,-0.0495737 5.11,-0.3c-1.69116,-0.250426 -3.40115,-0.350817 -5.11,-0.3c-1.70885,-0.0508173 -3.41884,0.0495737 -5.11,0.3Z" transform="translate(54.59, 63.78)"></path><use fill="#FDC666" transform="translate(54.66, 62.6)" xlink:href="#path-1"></use><use fill="#E0AD5A" transform="translate(54.7, 62.6)" xlink:href="#path-2"></use><use opacity="0.11" fill="#FFFFFF" transform="translate(54.1181, 61.5624)" xlink:href="#path-3"></use><use fill="#F6BC32" transform="translate(54.1181, 61.5024)" xlink:href="#path-3"></use><use opacity="0.41" fill="#FFFFFF" transform="translate(55.14, 61.99)" xlink:href="#path-4"></use><path fill="#FDC666" d="M11.95,0v1.26c0,0.27 -1.93,0.5 -4.52,0.56h-1.43c-3.29,0 -6,-0.26 -6,-0.58v-1.24h11.95Z" transform="translate(55.26, 60.74)"></path><path fill="#E0AD5A" d="M0,0v1.26c0,0.32 2.67,0.58 6,0.58c3.33,0 6,-0.26 6,-0.58v-1.26h-12Z" transform="translate(55.3, 60.74)"></path><use opacity="0.11" fill="#FFFFFF" transform="translate(54.7081, 59.7124)" xlink:href="#path-3"></use><use fill="#F6BC32" transform="translate(54.7081, 59.6424)" xlink:href="#path-3"></use><use opacity="0.41" fill="#FFFFFF" transform="translate(55.73, 60.14)" xlink:href="#path-5"></use><use fill="#FDC666" transform="translate(55.51, 58.88)" xlink:href="#path-1"></use><use fill="#E0AD5A" transform="translate(55.55, 58.88)" xlink:href="#path-2"></use><use opacity="0.11" fill="#FFFFFF" transform="translate(54.9581, 57.8424)" xlink:href="#path-3"></use><use fill="#F6BC32" transform="translate(54.9581, 57.7824)" xlink:href="#path-3"></use><path opacity="0.41" fill="#FFFFFF" d="M5.5,1.15c-1.44,0 -2.8,0 -3.82,-0.13c-1.68,-0.13 -1.68,-0.3 -1.68,-0.44c0,-0.14 0,-0.31 1.7,-0.45c1,-0.08 2.38,-0.13 3.82,-0.13c1.44,0 2.8,0 3.82,0.13c1.7,0.14 1.7,0.31 1.7,0.45c0,0.14 0,0.31 -1.7,0.45c-1.04,0.08 -2.4,0.12 -3.84,0.12Zm-5.11,-0.58c1.69116,0.250426 3.40115,0.350817 5.11,0.3c1.70885,0.0508173 3.41884,-0.0495737 5.11,-0.3c-1.69116,-0.250426 -3.40115,-0.350817 -5.11,-0.3c-1.70914,-0.0475081 -3.41914,0.0562293 -5.11,0.31v-0.01Z" transform="translate(56, 58.28)"></path><use fill="#FDC666" transform="translate(54.12, 57.31)" xlink:href="#path-1"></use><use fill="#E0AD5A" transform="translate(54.15, 57.31)" xlink:href="#path-2"></use><use opacity="0.11" fill="#FFFFFF" transform="translate(53.5681, 56.2824)" xlink:href="#path-3"></use><use fill="#F6BC32" transform="translate(53.5681, 56.2124)" xlink:href="#path-3"></use><use opacity="0.41" fill="#FFFFFF" transform="translate(54.59, 56.71)" xlink:href="#path-6"></use><use fill="#FDC666" transform="translate(53.27, 55.43)" xlink:href="#path-1"></use><use fill="#E0AD5A" transform="translate(53.31, 55.43)" xlink:href="#path-2"></use><use opacity="0.11" fill="#FFFFFF" transform="translate(52.7181, 54.4024)" xlink:href="#path-3"></use><use fill="#F6BC32" transform="translate(52.7181, 54.3324)" xlink:href="#path-3"></use><path opacity="0.41" fill="#FFFFFF" d="M5.52,1.16c-1.44,0 -2.8,0 -3.82,-0.13c-1.7,-0.14 -1.7,-0.31 -1.7,-0.45c0,-0.14 0,-0.31 1.7,-0.45c1,-0.08 2.38,-0.13 3.82,-0.13c1.44,0 2.8,0 3.82,0.13c1.7,0.14 1.7,0.31 1.7,0.45c0,0.14 0,0.31 -1.7,0.45c-1.02,0.07 -2.37,0.13 -3.82,0.13Zm-5.11,-0.58c1.69116,0.250426 3.40115,0.350817 5.11,0.3c1.70885,0.0508173 3.41884,-0.0495737 5.11,-0.3c-1.69116,-0.250426 -3.40115,-0.350817 -5.11,-0.3c-1.70855,-0.054127 -3.41854,0.0429175 -5.11,0.29v0.01Z" transform="translate(53.74, 54.84)"></path><use fill="#FDC666" transform="translate(55.26, 53.64)" xlink:href="#path-1"></use><use fill="#E0AD5A" transform="translate(55.3, 53.64)" xlink:href="#path-2"></use><use opacity="0.11" fill="#FFFFFF" transform="translate(54.7081, 52.6024)" xlink:href="#path-3"></use><use fill="#F6BC32" transform="translate(54.7081, 52.5424)" xlink:href="#path-3"></use><path opacity="0.41" fill="#FFFFFF" d="M5.52,1.16c-1.44,0 -2.8,0 -3.82,-0.13c-1.7,-0.14 -1.7,-0.31 -1.7,-0.45c0,-0.14 0,-0.31 1.7,-0.45c1,-0.08 2.38,-0.13 3.82,-0.13c1.44,0 2.8,0 3.82,0.13c1.7,0.14 1.7,0.31 1.7,0.45c0,0.14 0,0.31 -1.7,0.45c-1.07,0.08 -2.38,0.13 -3.82,0.13Zm-5.11,-0.58c1.69116,0.250426 3.40115,0.350817 5.11,0.3c1.70885,0.0508173 3.41884,-0.0495737 5.11,-0.3c-1.69116,-0.250426 -3.40115,-0.350817 -5.11,-0.3c-1.70885,-0.0508173 -3.41884,0.0495737 -5.11,0.3v0Z" transform="translate(55.73, 53.04)"></path><path fill="#F6BC32" d="M9.27635,2.00729c2.00729,2.00729 2.00729,5.26176 0,7.26906c-2.00729,2.00729 -5.26176,2.00729 -7.26906,0c-2.00729,-2.00729 -2.00729,-5.26176 0,-7.26906c2.00729,-2.00729 5.26176,-2.00729 7.26906,0" transform="translate(36.7682, 29.5482)"></path><path fill="#FAEC96" d="M4.87,0c-2.68963,0 -4.87,2.18037 -4.87,4.87c0,2.68963 2.18037,4.87 4.87,4.87c2.68963,0 4.87,-2.18037 4.87,-4.87c0,-2.68963 -2.18037,-4.87 -4.87,-4.87v0Zm0,9.57c-2.59574,0 -4.7,-2.10426 -4.7,-4.7c0,-2.59574 2.10426,-4.7 4.7,-4.7c2.59574,0 4.7,2.10426 4.7,4.7c0,1.24652 -0.495177,2.44198 -1.3766,3.3234c-0.881421,0.881421 -2.07688,1.3766 -3.3234,1.3766Z" transform="translate(37.54, 30.32)"></path><path opacity="0.11" fill="#FFFFFF" d="M1.28066,0c-1.28066,2.21419 -0.738356,5.03312 1.27242,6.61409c2.01078,1.58098 4.87808,1.44285 6.72758,-0.324095l-8,-6.29Z" transform="translate(36.6293, 32.71)"></path><path fill="#E0AD5A" d="M6.33463,1.37074c1.37074,1.37074 1.37074,3.59315 0,4.96389c-1.37074,1.37074 -3.59315,1.37074 -4.96389,0c-1.37074,-1.37074 -1.37074,-3.59315 0,-4.96389c1.37074,-1.37074 3.59315,-1.37074 4.96389,0" transform="translate(38.5573, 31.3373)"></path><path fill="#FAEC96" d="M5.95563,1.28873c1.28873,1.28873 1.28873,3.37817 0,4.6669c-1.28873,1.28873 -3.37817,1.28873 -4.6669,0c-1.28873,-1.28873 -1.28873,-3.37817 0,-4.6669c1.28873,-1.28873 3.37817,-1.28873 4.6669,0" transform="translate(38.9178, 31.5678)"></path><path fill="#E0AD5A" d="M1.20314,4.39c-0.406556,-0.0169276 -0.806536,-0.108449 -1.18,-0.27v-0.93c0.223998,0.115164 0.458372,0.208913 0.7,0.28c0.217085,0.0678407 0.442619,0.104869 0.67,0.11c0.119708,0.0068198 0.239398,-0.0136985 0.35,-0.06c0.0712577,-0.0357492 0.114479,-0.110403 0.11,-0.19c0.0016784,-0.0633359 -0.0283242,-0.123341 -0.08,-0.16c-0.0833397,-0.0611463 -0.174055,-0.111544 -0.27,-0.15l-0.5,-0.2c-0.202733,-0.0692837 -0.394637,-0.166919 -0.57,-0.29c-0.135653,-0.0949393 -0.24561,-0.222077 -0.32,-0.37c-0.0706574,-0.156979 -0.104846,-0.327921 -0.1,-0.5c-0.0131403,-0.272864 0.096998,-0.537196 0.3,-0.72c0.256722,-0.195612 0.567494,-0.30735 0.89,-0.32v-0.62h0.58v0.61c0.400535,0.0216188 0.793707,0.116523 1.16,0.28l-0.33,0.8c-0.328003,-0.15904 -0.685684,-0.247609 -1.05,-0.26c-0.105867,-0.0089183 -0.212306,0.0082492 -0.31,0.05c-0.0569857,0.0328781 -0.0914944,0.0942269 -0.09,0.16c0.0005763,0.0577627 0.0260995,0.112455 0.07,0.15c0.070013,0.0541732 0.147478,0.0979579 0.23,0.13l0.45,0.17c0.311654,0.0918083 0.598715,0.252426 0.84,0.47c0.162471,0.206136 0.23136,0.470812 0.19,0.73c0.0127785,0.284494 -0.0963453,0.560941 -0.3,0.76c-0.241881,0.213435 -0.548029,0.340116 -0.87,0.36v0.75h-0.58l0.01,-0.77Z" transform="translate(41.0569, 32.71)"></path><use fill="#FDC666" transform="translate(36.8, 64.15)" xlink:href="#path-1"></use><use fill="#E0AD5A" transform="translate(36.83, 64.15)" xlink:href="#path-2"></use><use fill="#F6BC32" transform="translate(36.2481, 63.1124)" xlink:href="#path-3"></use><use fill="#F6BC32" transform="translate(36.2481, 63.0524)" xlink:href="#path-3"></use><use opacity="0.41" fill="#FFFFFF" transform="translate(37.27, 63.54)" xlink:href="#path-7"></use><use fill="#FDC666" transform="translate(36.22, 62.63)" xlink:href="#path-1"></use><use fill="#E0AD5A" transform="translate(36.26, 62.63)" xlink:href="#path-2"></use><use opacity="0.11" fill="#FFFFFF" transform="translate(35.6781, 61.6024)" xlink:href="#path-3"></use><use fill="#FDC666" transform="translate(35.6781, 61.5324)" xlink:href="#path-3"></use><use fill="#F6BC32" transform="translate(36.3147, 61.5124)" xlink:href="#path-8"></use><use fill="#FDC666" transform="translate(38.93, 61.09)" xlink:href="#path-1"></use><use fill="#E0AD5A" transform="translate(39, 61.09)" xlink:href="#path-2"></use><use opacity="0.11" fill="#FFFFFF" transform="translate(38.3781, 60.0524)" xlink:href="#path-3"></use><use fill="#F6BC32" transform="translate(38.3781, 59.9924)" xlink:href="#path-3"></use><use opacity="0.41" fill="#FFFFFF" transform="translate(39.4, 60.48)" xlink:href="#path-7"></use><use fill="#FDC666" transform="translate(35.65, 59.66)" xlink:href="#path-1"></use><use fill="#E0AD5A" transform="translate(35.69, 59.66)" xlink:href="#path-2"></use><use opacity="0.11" fill="#FFFFFF" transform="translate(35.1081, 58.6324)" xlink:href="#path-3"></use><use fill="#F6BC32" transform="translate(35.1081, 58.5624)" xlink:href="#path-3"></use><use opacity="0.41" fill="#FFFFFF" transform="translate(36.13, 59.06)" xlink:href="#path-9"></use><use fill="#FDC666" transform="translate(36.8, 58.06)" xlink:href="#path-1"></use><use fill="#E0AD5A" transform="translate(36.83, 58.06)" xlink:href="#path-2"></use><use fill="#F6BC32" transform="translate(36.2481, 57.0324)" xlink:href="#path-3"></use><path opacity="0.41" fill="#FFFFFF" d="M5.79,1.37c-1.51,0 -2.93,-0.06 -4,-0.16c-1.79,-0.18 -1.79,-0.4 -1.79,-0.53c0,-0.13 0,-0.35 1.78,-0.52c1.07,-0.1 2.49,-0.16 4,-0.16c1.51,0 2.93,0.06 4,0.16c1.78,0.17 1.78,0.39 1.78,0.52c0,0.13 0,0.35 -1.78,0.52c-1.06,0.11 -2.48,0.17 -3.99,0.17Zm-5.45,-0.69c1.7933,0.357323 3.62343,0.495003 5.45,0.41c1.82657,0.0850026 3.6567,-0.0526768 5.45,-0.41c-1.7933,-0.357323 -3.62343,-0.495003 -5.45,-0.41c-1.82657,-0.0850026 -3.6567,0.0526768 -5.45,0.41v0Z" transform="translate(37, 57.38)"></path><use fill="#F6BC32" transform="translate(36.8847, 56.9524)" xlink:href="#path-8"></use><use fill="#FDC666" transform="translate(35.05, 56.6)" xlink:href="#path-1"></use><use fill="#E0AD5A" transform="translate(35.12, 56.6)" xlink:href="#path-2"></use><use opacity="0.11" fill="#FFFFFF" transform="translate(34.5381, 55.5724)" xlink:href="#path-3"></use><use fill="#F6BC32" transform="translate(34.5381, 55.5024)" xlink:href="#path-3"></use><path opacity="0.41" fill="#FFFFFF" d="M5.52,1.16c-1.44,0 -2.8,0 -3.82,-0.13c-1.7,-0.14 -1.7,-0.31 -1.7,-0.45c0,-0.14 0,-0.31 1.7,-0.45c1,-0.08 2.38,-0.13 3.82,-0.13c1.44,0 2.8,0 3.82,0.13c1.7,0.14 1.7,0.31 1.7,0.45c0,0.14 0,0.31 -1.7,0.45c-1.03,0.09 -2.38,0.13 -3.82,0.13Zm-5.08,-0.57c1.69116,0.250426 3.40115,0.350817 5.11,0.3c1.70885,0.0508173 3.41884,-0.0495737 5.11,-0.3c-1.69116,-0.250426 -3.40115,-0.350817 -5.11,-0.3c-1.70885,-0.0508173 -3.41884,0.0495737 -5.11,0.3Z" transform="translate(35.56, 56)"></path><use fill="#FDC666" transform="translate(33.8, 54.88)" xlink:href="#path-1"></use><use fill="#E0AD5A" transform="translate(33.84, 54.88)" xlink:href="#path-2"></use><use opacity="0.11" fill="#FFFFFF" transform="translate(33.2581, 53.8424)" xlink:href="#path-3"></use><use fill="#F6BC32" transform="translate(33.2581, 53.7824)" xlink:href="#path-3"></use><use opacity="0.41" fill="#FFFFFF" transform="translate(34.28, 54.27)" xlink:href="#path-7"></use><use fill="#FDC666" transform="translate(34.81, 53.3)" xlink:href="#path-1"></use><use fill="#E0AD5A" transform="translate(34.85, 53.3)" xlink:href="#path-2"></use><use opacity="0.11" fill="#FFFFFF" transform="translate(34.2581, 52.2724)" xlink:href="#path-3"></use><use fill="#F6BC32" transform="translate(34.2581, 52.2024)" xlink:href="#path-3"></use><path opacity="0.41" fill="#FFFFFF" d="M5.52,1.16c-1.44,0 -2.8,0 -3.82,-0.13c-1.7,-0.14 -1.7,-0.31 -1.7,-0.45c0,-0.14 0,-0.31 1.7,-0.45c1,-0.08 2.38,-0.13 3.82,-0.13c1.44,0 2.8,0 3.82,0.13c1.7,0.14 1.7,0.31 1.7,0.45c0,0.14 0,0.31 -1.7,0.45c-1.02,0.08 -2.38,0.13 -3.82,0.13Zm-5.11,-0.58c1.69116,0.250426 3.40115,0.350817 5.11,0.3c1.70885,0.0508173 3.41884,-0.0495737 5.11,-0.3c-1.69175,-0.243739 -3.40174,-0.337437 -5.11,-0.28c-1.70826,-0.0574374 -3.41825,0.0362607 -5.11,0.28Z" transform="translate(35.28, 52.7)"></path><use fill="#FDC666" transform="translate(35.64, 51.5)" xlink:href="#path-1"></use><use fill="#E0AD5A" transform="translate(35.68, 51.5)" xlink:href="#path-2"></use><use opacity="0.11" fill="#FFFFFF" transform="translate(35.0881, 50.4724)" xlink:href="#path-3"></use><use fill="#F6BC32" transform="translate(35.0881, 50.4024)" xlink:href="#path-3"></use><path opacity="0.41" fill="#FFFFFF" d="M5.52,1.16c-1.44,0 -2.8,0 -3.82,-0.13c-1.7,-0.14 -1.7,-0.31 -1.7,-0.45c0,-0.14 0,-0.31 1.7,-0.45c1,-0.08 2.38,-0.13 3.82,-0.13c1.44,0 2.8,0 3.82,0.13c1.7,0.14 1.7,0.31 1.7,0.45c0,0.14 0,0.31 -1.7,0.45c-1.02,0.07 -2.37,0.13 -3.82,0.13Zm-5.11,-0.58c1.69116,0.250426 3.40115,0.350817 5.11,0.3c1.70885,0.0508173 3.41884,-0.0495737 5.11,-0.3c-1.69116,-0.250426 -3.40115,-0.350817 -5.11,-0.3c-1.70885,-0.0508173 -3.41884,0.0495737 -5.11,0.3v0Z" transform="translate(36.11, 50.9)"></path><use fill="#FDC666" transform="translate(34.05, 49.62)" xlink:href="#path-1"></use><use fill="#E0AD5A" transform="translate(34.1, 49.62)" xlink:href="#path-2"></use><use opacity="0.11" fill="#FFFFFF" transform="translate(33.5181, 48.5924)" xlink:href="#path-3"></use><use fill="#F6BC32" transform="translate(33.5181, 48.5224)" xlink:href="#path-3"></use><use opacity="0.41" fill="#FFFFFF" transform="translate(34.54, 49.02)" xlink:href="#path-4"></use><use fill="#FDC666" transform="translate(35.89, 48.05)" xlink:href="#path-1"></use><use fill="#E0AD5A" transform="translate(35.93, 48.05)" xlink:href="#path-2"></use><use opacity="0.11" fill="#FFFFFF" transform="translate(35.3381, 47.0224)" xlink:href="#path-3"></use><use fill="#F6BC32" transform="translate(35.3381, 46.9524)" xlink:href="#path-3"></use><path opacity="0.41" fill="#FFFFFF" d="M5.52,1.16c-1.44,0 -2.8,0 -3.82,-0.13c-1.7,-0.14 -1.7,-0.31 -1.7,-0.45c0,-0.14 0,-0.31 1.7,-0.45c1,-0.08 2.38,-0.13 3.82,-0.13c1.44,0 2.8,0 3.82,0.13c1.7,0.14 1.7,0.31 1.7,0.45c0,0.14 0,0.31 -1.7,0.45c-1.02,0.08 -2.37,0.13 -3.82,0.13Zm-5.11,-0.61c1.69116,0.250426 3.40115,0.350817 5.11,0.3c1.71218,0.0514083 3.42554,-0.0489842 5.12,-0.3c-1.69116,-0.250426 -3.40115,-0.350817 -5.11,-0.3c-1.71218,-0.0514083 -3.42554,0.0489842 -5.12,0.3v0Z" transform="translate(36.36, 47.45)"></path><path fill="#FDC666" d="M11.96,0v1.28c0,0.27 -1.93,0.5 -4.52,0.56l-1.44,-0.02c-3.29,0 -6,-0.26 -6,-0.58v-1.24h11.96Z" transform="translate(35.2, 46.18)"></path><use fill="#E0AD5A" transform="translate(35.24, 46.18)" xlink:href="#path-2"></use><use opacity="0.11" fill="#FFFFFF" transform="translate(34.6581, 45.1424)" xlink:href="#path-3"></use><use fill="#F6BC32" transform="translate(34.6581, 45.0824)" xlink:href="#path-3"></use><use opacity="0.41" fill="#FFFFFF" transform="translate(35.68, 45.57)" xlink:href="#path-7"></use><use fill="#FDC666" transform="translate(36.62, 44.39)" xlink:href="#path-1"></use><use fill="#E0AD5A" transform="translate(36.66, 44.39)" xlink:href="#path-2"></use><use opacity="0.11" fill="#FFFFFF" transform="translate(36.0681, 43.3524)" xlink:href="#path-3"></use><use fill="#F6BC32" transform="translate(36.0681, 43.2924)" xlink:href="#path-3"></use><path opacity="0.41" fill="#FFFFFF" d="M5.52,1.16c-1.44,0 -2.8,0 -3.82,-0.13c-1.7,-0.14 -1.7,-0.31 -1.7,-0.45c0,-0.14 0,-0.31 1.7,-0.45c1,-0.08 2.38,-0.13 3.82,-0.13c1.44,0 2.8,0 3.82,0.13c1.7,0.14 1.7,0.31 1.7,0.45c0,0.14 0,0.31 -1.7,0.45c-1.02,0.09 -2.37,0.13 -3.82,0.13Zm-5.11,-0.58c1.69116,0.250426 3.40115,0.350817 5.11,0.3c1.70885,0.0508173 3.41884,-0.0495737 5.11,-0.3c-1.69116,-0.250426 -3.40115,-0.350817 -5.11,-0.3c-1.70914,-0.0475081 -3.41914,0.0562293 -5.11,0.31v-0.01Z" transform="translate(37.09, 43.78)"></path><use fill="#FDC666" transform="translate(17.36, 65.14)" xlink:href="#path-1"></use><use fill="#E0AD5A" transform="translate(17.39, 65.14)" xlink:href="#path-2"></use><use fill="#F6BC32" transform="translate(16.8081, 64.1124)" xlink:href="#path-10"></use><use fill="#F6BC32" transform="translate(16.8081, 64.0424)" xlink:href="#path-10"></use><use opacity="0.41" fill="#FFFFFF" transform="translate(17.83, 64.54)" xlink:href="#path-5"></use><use fill="#FDC666" transform="translate(16.78, 63.62)" xlink:href="#path-1"></use><use fill="#E0AD5A" transform="translate(16.82, 63.62)" xlink:href="#path-2"></use><use opacity="0.11" fill="#FFFFFF" transform="translate(16.2381, 62.5924)" xlink:href="#path-10"></use><use fill="#FDC666" transform="translate(16.2381, 62.5224)" xlink:href="#path-10"></use><use fill="#F6BC32" transform="translate(16.8747, 62.5124)" xlink:href="#path-11"></use><use fill="#FDC666" transform="translate(19.48, 62.08)" xlink:href="#path-1"></use><use fill="#E0AD5A" transform="translate(19.52, 62.08)" xlink:href="#path-2"></use><use opacity="0.11" fill="#FFFFFF" transform="translate(18.9381, 61.0524)" xlink:href="#path-10"></use><use fill="#F6BC32" transform="translate(18.9381, 60.9824)" xlink:href="#path-10"></use><use opacity="0.41" fill="#FFFFFF" transform="translate(19.96, 61.48)" xlink:href="#path-5"></use><use fill="#FDC666" transform="translate(16.21, 60.66)" xlink:href="#path-1"></use><use fill="#E0AD5A" transform="translate(16.25, 60.66)" xlink:href="#path-2"></use><use opacity="0.11" fill="#FFFFFF" transform="translate(15.6681, 59.6324)" xlink:href="#path-10"></use><use fill="#F6BC32" transform="translate(15.6681, 59.5624)" xlink:href="#path-10"></use><path opacity="0.41" fill="#FFFFFF" d="M5.52,1.16c-1.44,0 -2.8,0 -3.82,-0.13c-1.7,-0.14 -1.7,-0.31 -1.7,-0.45c0,-0.14 0,-0.31 1.7,-0.45c1,-0.08 2.38,-0.13 3.82,-0.13c1.44,0 2.8,0 3.82,0.13c1.7,0.14 1.7,0.31 1.7,0.45c0,0.14 0,0.31 -1.7,0.45c-1.03,0.08 -2.38,0.13 -3.82,0.13Zm-5.11,-0.58c1.69116,0.250426 3.40115,0.350817 5.11,0.3c1.70885,0.0508173 3.41884,-0.0495737 5.11,-0.3c-1.69116,-0.250426 -3.40115,-0.350817 -5.11,-0.3c-1.71218,-0.0514083 -3.42554,0.0489842 -5.12,0.3h0.01Z" transform="translate(16.69, 60.06)"></path><use fill="#FDC666" transform="translate(17.36, 59.06)" xlink:href="#path-1"></use><use fill="#E0AD5A" transform="translate(17.39, 59.06)" xlink:href="#path-2"></use><use fill="#F6BC32" transform="translate(16.8081, 58.0324)" xlink:href="#path-10"></use><path opacity="0.41" fill="#FFFFFF" d="M5.78,1.36c-1.51,0 -2.93,-0.06 -4,-0.16c-1.78,-0.17 -1.78,-0.39 -1.78,-0.52c0,-0.13 0,-0.35 1.78,-0.52c1.07,-0.1 2.49,-0.16 4,-0.16c1.51,0 2.93,0.06 4,0.16c1.78,0.17 1.78,0.39 1.78,0.52c0,0.13 0,0.35 -1.78,0.52c-1.07,0.1 -2.49,0.16 -4,0.16Zm-5.45,-0.69c1.7933,0.357323 3.62343,0.495003 5.45,0.41c1.82657,0.0850026 3.6567,-0.0526768 5.45,-0.41c-1.7933,-0.357323 -3.62343,-0.495003 -5.45,-0.41c-1.82657,-0.0850026 -3.6567,0.0526768 -5.45,0.41v0Z" transform="translate(17.57, 58.39)"></path><use fill="#F6BC32" transform="translate(17.4447, 57.9424)" xlink:href="#path-11"></use><use fill="#FDC666" transform="translate(15.64, 57.6)" xlink:href="#path-1"></use><use fill="#E0AD5A" transform="translate(15.68, 57.6)" xlink:href="#path-2"></use><use opacity="0.11" fill="#FFFFFF" transform="translate(15.0881, 56.5724)" xlink:href="#path-10"></use><use fill="#F6BC32" transform="translate(15.0881, 56.5024)" xlink:href="#path-10"></use><path opacity="0.41" fill="#FFFFFF" d="M5.52,1.16c-1.44,0 -2.8,0 -3.82,-0.13c-1.7,-0.14 -1.7,-0.31 -1.7,-0.45c0,-0.14 0,-0.31 1.7,-0.45c1,-0.08 2.38,-0.13 3.82,-0.13c1.44,0 2.8,0 3.82,0.13c1.7,0.14 1.7,0.31 1.7,0.45c0,0.14 0,0.31 -1.7,0.45c-1.02,0.08 -2.37,0.13 -3.82,0.13Zm-5.11,-0.58c1.69116,0.250426 3.40115,0.350817 5.11,0.3c1.70885,0.0508173 3.41884,-0.0495737 5.11,-0.3c-1.69116,-0.250426 -3.40115,-0.350817 -5.11,-0.3c-1.70885,-0.0508173 -3.41884,0.0495737 -5.11,0.3v0Z" transform="translate(16.11, 57)"></path><use fill="#FDC666" transform="translate(14.36, 55.87)" xlink:href="#path-1"></use><use fill="#E0AD5A" transform="translate(14.4, 55.87)" xlink:href="#path-2"></use><use opacity="0.11" fill="#FFFFFF" transform="translate(13.8181, 54.8424)" xlink:href="#path-10"></use><use fill="#F6BC32" transform="translate(13.8181, 54.7724)" xlink:href="#path-10"></use><use opacity="0.41" fill="#FFFFFF" transform="translate(14.84, 55.27)" xlink:href="#path-9"></use><use fill="#FDC666" transform="translate(15.37, 54.3)" xlink:href="#path-1"></use><use fill="#E0AD5A" transform="translate(15.4, 54.3)" xlink:href="#path-2"></use><use opacity="0.11" fill="#FFFFFF" transform="translate(14.8181, 53.2724)" xlink:href="#path-10"></use><use fill="#F6BC32" transform="translate(14.8181, 53.2024)" xlink:href="#path-10"></use><use opacity="0.41" fill="#FFFFFF" transform="translate(15.84, 53.7)" xlink:href="#path-6"></use><use fill="#FDC666" transform="translate(14.93, 52.51)" xlink:href="#path-1"></use><use fill="#E0AD5A" transform="translate(15, 52.51)" xlink:href="#path-2"></use><use opacity="0.11" fill="#FFFFFF" transform="translate(14.3881, 51.4824)" xlink:href="#path-10"></use><use fill="#F6BC32" transform="translate(14.3881, 51.4124)" xlink:href="#path-10"></use><path opacity="0.41" fill="#FFFFFF" d="M5.52,1.16c-1.44,0 -2.8,0 -3.82,-0.13c-1.7,-0.14 -1.7,-0.31 -1.7,-0.45c0,-0.14 0,-0.31 1.7,-0.45c1,-0.08 2.38,-0.13 3.82,-0.13c1.44,0 2.8,0 3.82,0.13c1.7,0.14 1.7,0.31 1.7,0.45c0,0.14 0,0.31 -1.7,0.45c-1.03,0.06 -2.38,0.13 -3.82,0.13Zm-5.11,-0.58c1.69116,0.250426 3.40115,0.350817 5.11,0.3c1.70885,0.0508173 3.41884,-0.0495737 5.11,-0.3c-1.69116,-0.250426 -3.40115,-0.350817 -5.11,-0.3c-1.70885,-0.0508173 -3.41884,0.0495737 -5.11,0.3Z" transform="translate(15.41, 51.91)"></path><use fill="#FDC666" transform="translate(15.48, 50.72)" xlink:href="#path-1"></use><use fill="#E0AD5A" transform="translate(15.52, 50.72)" xlink:href="#path-2"></use><use opacity="0.11" fill="#FFFFFF" transform="translate(14.9281, 49.6824)" xlink:href="#path-10"></use><use fill="#F6BC32" transform="translate(14.9281, 49.6224)" xlink:href="#path-10"></use><path opacity="0.41" fill="#FFFFFF" d="M5.47,1.16c-1.44,0 -2.8,0 -3.82,-0.13c-1.65,-0.15 -1.65,-0.31 -1.65,-0.45c0,-0.14 0,-0.31 1.7,-0.45c1,-0.08 2.38,-0.13 3.82,-0.13c1.44,0 2.8,0 3.82,0.13c1.7,0.14 1.7,0.31 1.7,0.45c0,0.14 0,0.31 -1.7,0.45c-1.07,0.08 -2.42,0.13 -3.87,0.13Zm-5.11,-0.58c1.69116,0.250426 3.40115,0.350817 5.11,0.3c1.70885,0.0508173 3.41884,-0.0495737 5.11,-0.3c-1.69116,-0.250426 -3.40115,-0.350817 -5.11,-0.3c-1.70885,-0.0508173 -3.41884,0.0495737 -5.11,0.3Z" transform="translate(16, 50.12)"></path><path fill="#EFCEA7" d="M5.46,0c0,0 4.15,3 4.87,3.76c0,0 4,-1.79 10.09,0.59c0,0 7.19,-1.14 12.22,0c1.06307,0.133262 1.94018,0.895796 2.22,1.93c0,0 0.14,1.47 -2,1c-1.66523,-0.476176 -3.37997,-0.758051 -5.11,-0.84c0,0 -2.64,-0.24 -3.63,0.69c0,0 -1.07,0.63 2.53,1.09c2.7095,0.175593 5.3919,0.645014 8,1.4c1.91079,0.692973 3.51524,2.03887 4.53,3.8c0.479726,0.836731 0.383761,1.88435 -0.24,2.62c0,0 -0.32,1 -4.59,-2c-1.8164,-1.28999 -3.89637,-2.16092 -6.09,-2.55c0,0 -2.31,-0.73 -3.6,-0.08c0,0 -1,0.52 1.25,1.31c1.81011,0.653471 3.56841,1.44237 5.26,2.36c2.00937,0.95204 3.77437,2.35104 5.16,4.09c0,0 2.41,3.89 0.72,5.45c0,0 -1.25,1 -2.49,-1.16c-0.501012,-1.69607 -1.43901,-3.23067 -2.72,-4.45c-1.35979,-0.92527 -2.7685,-1.77651 -4.22,-2.55l-0.47,-0.23c-0.908921,-0.642986 -1.97882,-1.02039 -3.09,-1.09c0,0 -1.14,0.09 -0.16,1.46c0.648479,0.884825 0.998696,1.95299 1,3.05c0.0596196,0.590311 0.0121925,1.18654 -0.14,1.76c-0.373972,1.2583 -1.03071,2.41443 -1.92,3.38c-0.0895117,0.0840758 -0.173048,0.174295 -0.25,0.27c-0.71742,0.861742 -1.74436,1.40753 -2.86,1.52c-0.441065,-0.174417 -0.777997,-0.541176 -0.914465,-0.995418c-0.136468,-0.454243 -0.0574489,-0.945965 0.214465,-1.33458c0.796283,-0.728775 1.43887,-1.60936 1.89,-2.59c0,0 1.08,-2.41 -2.27,-4c-3.35,-1.59 -3.71,-1.46 -5.82,-1.12c-1.46482,0.112257 -2.82973,0.785756 -3.81,1.88c-0.283542,0.408025 -0.487139,0.866117 -0.6,1.35c-0.710213,1.24821 -0.56227,2.80761 0.37,3.9c0,0 1.52,1.9 1.5,2.41c0,1 0,1.94 -2,1.84c-1.71901,-0.805772 -3.12476,-2.1553 -4,-3.84c-1.61,-2.76 -0.64,-6.54 -0.19,-9.25c0.0960226,-0.578089 0.229639,-1.1493 0.4,-1.71c0.15,-0.49 0.34,-1.16 0.56,-1.95l-5.06,-2.25l5.46,-8.92Z" transform="translate(27.54, 6.42)"></path><path fill="#4A5254" d="M0,0h24.26l7.17,4.27l-2.97,4.98l-3.41,5.72l-0.01,0.02"></path><path fill="#444C4F" d="M28.46,9.25l-3.41,5.72l-25.05,-14.97h12.95Z"></path><g transform="translate(30.634, 11.0533)"><g transform="rotate(-59.2)"><g fill="#CADDCC" stroke="none" stroke-width="1" transform="translate(-30.634, -11.0533)"><path d="M3.1,6.2c-1.71207,0 -3.1,-1.38793 -3.1,-3.1v0c0,-1.71207 1.38793,-3.1 3.1,-3.1h7.78c1.71207,0 3.1,1.38793 3.1,3.1v0c0,1.71207 -1.38793,3.1 -3.1,3.1Z" transform="translate(23.644, 7.95325)"></path></g></g></g><path fill="#BED5C3" d="M8.63991,3.18l-3.13,5.24c-0.376477,0.628364 -1.19017,0.834023 -1.82,0.46l-3,-1.81c-0.440756,-0.264155 -0.689914,-0.758578 -0.64,-1.27c0.0182488,-0.19446 0.0797492,-0.382378 0.18,-0.55l3.13,-5.25l5.28,3.18Z" transform="translate(24.8801, 9.08)"></path><g transform="translate(34.4614, 7.24927)"><g transform="rotate(-4.36)"><g fill="#444C4F" stroke="none" stroke-width="1" transform="translate(-34.4614, -7.24927)"><path d="M1.80474,0.390524c0.390524,0.390524 0.390524,1.02369 0,1.41421c-0.390524,0.390524 -1.02369,0.390524 -1.41421,0c-0.390524,-0.390524 -0.390524,-1.02369 0,-1.41421c0.390524,-0.390524 1.02369,-0.390524 1.41421,0" transform="translate(33.3638, 6.15164)"></path></g></g></g></g></g></g></svg>