<?xml version="1.0" encoding="UTF-8"?><svg width="330" height="318" viewBox="0 0 330 318" xmlns="http://www.w3.org/2000/svg" xmlns:xlink="http://www.w3.org/1999/xlink"><svg viewBox="-20 -20 99 104" width="99" height="104" id="advantages-1" x="220" y="101.71" xmlns="http://www.w3.org/2000/svg"><path fill="#B3ACA0" d="M58.67 10.69s-.14 16.65-15 22.22a26.52 26.52 0 0 1-4.08 1.15l.41-3.85a14.46 14.46 0 0 0 6.27-1.91c3.73-2.07 7.91-6.38 9.19-15.3 0 0 .32-1.9-2.06-2.06h-5.33l-.11-3h8.6a2.86 2.86 0 0 1 2.11 2.75z"/><path opacity=".07" fill="#231F20" d="M40 30.21a14.46 14.46 0 0 0 6.27-1.91 26.69 26.69 0 0 1-2.66 4.61 26.52 26.52 0 0 1-4.08 1.15l.47-3.85zM50.85 7.94c-.06.89-.14 1.89-.25 3h-2.53l-.11-3h2.89z"/><path fill="#B3ACA0" d="M27.81 34.06a25.83 25.83 0 0 1-5.12-1.57c-13.85-5.93-14-21.8-14-21.8a2.86 2.86 0 0 1 2.11-2.74h8.6l-.11 3H14c-2.38.16-2.06 2.06-2.06 2.06 1.14 8.09 4.7 12.39 8.06 14.66a14.78 14.78 0 0 0 7.29 2.54l.52 3.85z"/><path opacity=".07" fill="#231F20" d="M19.42 7.94l-.11 3H16c-.11-1.07-.19-2.06-.25-3h3.67zM27.81 34.06a25.83 25.83 0 0 1-5.12-1.57A28 28 0 0 1 20 27.67a14.78 14.78 0 0 0 7.29 2.54l.52 3.85z"/><path fill="#B3ACA0" d="M46.91 62.49A1.51 1.51 0 0 1 45.4 64H21.5a1.5 1.5 0 0 1-.5-2.91c.173-.05.35-.084.53-.1 5.47-1.07 8.08-2.99 9.31-4.48a31 31 0 0 0 5-.35c1.11 1.59 3.68 3.67 9.61 4.82.18.019.357.056.53.11a1.5 1.5 0 0 1 .93 1.4z"/><path fill="#BEBEBE" d="M36.54 38s-1.33.35-1.57 1.34a1.13 1.13 0 0 0 0 .19 1.41 1.41 0 0 0 0 .37V54a4.12 4.12 0 0 0 .85 2.15 31 31 0 0 1-5 .35 4.4 4.4 0 0 0 1.13-2.5V39.89a1.68 1.68 0 0 0 0-.22 1.34 1.34 0 0 0-.07-.44c-.3-.91-1.54-1.23-1.54-1.23C16.83 31.18 17.23 3.24 17.23 3.24c0-1.82 2.14-2.3 2.14-2.3h28.17s2.14.48 2.14 2.3c0 0 .39 27.94-13.14 34.76z"/><path fill="#B3ACA0" d="M50.37 1.42A1.63 1.63 0 0 0 48.76 0H18a1.63 1.63 0 0 0-1.5 1.09V5.5c0 .862.698 1.56 1.56 1.56h.66a1.56 1.56 0 0 0 1.54-1.26h.1a1.56 1.56 0 0 0 1.49 1.1h.66A1.56 1.56 0 0 0 24 5.8h.14a1.56 1.56 0 0 0 1.49 1.1h.66a1.56 1.56 0 0 0 1.49-1.1h.14a1.56 1.56 0 0 0 1.49 1.1h.66a1.56 1.56 0 0 0 1.49-1.1h.14a1.56 1.56 0 0 0 1.5 1.1h.66a1.56 1.56 0 0 0 1.49-1.1h.13A1.56 1.56 0 0 0 37 6.9h.66a1.56 1.56 0 0 0 1.49-1.1h.13a1.56 1.56 0 0 0 1.49 1.1h.66a1.56 1.56 0 0 0 1.49-1.1H43a1.56 1.56 0 0 0 1.53 1.26h.66a1.56 1.56 0 0 0 1.47-1 1.56 1.56 0 0 0 1.47 1h.66a1.56 1.56 0 0 0 1.58-1.56V4.38a1.52 1.52 0 0 0 0-.21V1.63a1.53 1.53 0 0 0 0-.21z"/><path fill="#F8BD36" d="M27.56 23.17C26.07 24 26 24.53 26.9 26c-.94-1.43-1.49-1.55-3-.7 1.48-.85 1.6-1.36.66-2.79.97 1.38 1.51 1.49 3 .66zM26.88 26.7c-.61.35-.66.56-.27 1.15-.39-.59-.61-.64-1.23-.29.61-.35.66-.56.27-1.15.35.59.62.64 1.23.29z"/><path opacity=".8" fill="#FFF" d="M46.59 2.22c-1.71 1.06-1.86 1.69-.81 3.4-1.06-1.72-1.68-1.86-3.39-.8 1.71-1.06 1.86-1.69.81-3.4 1.05 1.71 1.68 1.86 3.39.8zM41.31 1.48c0 .84.25 1 1.08 1-.84 0-1 .25-1 1.08 0-.84-.25-1-1.08-1 .87-.04 1.05-.24 1-1.08z"/><path fill="#F5D4B2" d="M42.62 43l-.14.08a2 2 0 0 1-.41.17.38.38 0 0 0-.08.6 2 2 0 0 1-.15 3 2.8 2.8 0 0 1-.47.34h-.05l-.26.13a.44.44 0 0 0-.12.71c.56.452.738 1.23.43 1.88a2.63 2.63 0 0 1-1.19 1.36l-.24.1a.36.36 0 0 0-.3.36.44.44 0 0 0 .16.39c.313.248.52.605.58 1a1.6 1.6 0 0 1-.16.9 3.28 3.28 0 0 1-.87 1.09 5 5 0 0 1-.95.51c-.305.1-.615.18-.93.24a31 31 0 0 1-6.63.64 25.09 25.09 0 0 1-8.32-1.4 6.22 6.22 0 0 0-.82-.39h-.17V42.19h.06l.85-.6.08-.07a6.38 6.38 0 0 1 1.29-.91 7.17 7.17 0 0 1 4.07-.63H28a35.83 35.83 0 0 0 4-.31l1.45-.15h8.74a1.54 1.54 0 0 1 1.43 1.2 2.11 2.11 0 0 1-1 2.28z"/><path fill="#4789BC" d="M21.53 56.1a1.22 1.22 0 0 1-1.16 1.27H16.1a1.22 1.22 0 0 1-1.16-1.27V40.53a1.22 1.22 0 0 1 1.16-1.27h4.27c.67.032 1.188.6 1.16 1.27V56.1z"/><path fill="#DDE4E8" d="M18.137 53.823a1 1 0 1 1-1.414 1.414 1 1 0 0 1 1.414-1.414"/><path fill="#DFC2A9" d="M42.67 42.93a2.22 2.22 0 0 1-.59.27.37.37 0 0 0-.1.61 2 2 0 0 1-.15 3 2.86 2.86 0 0 1-.78.49.44.44 0 0 0-.11.74H21.56v-5.88l.91-.64.08-.07A6.61 6.61 0 0 1 28 39.88c2.43-.84 3.54-.68 6.79-.56 2.66.1 5.78.15 6.32.15h1.08a1.54 1.54 0 0 1 1.43 1.2 2.11 2.11 0 0 1-.95 2.26z"/><path fill="#4789BC" d="M21.58 40.5v7.56h-6.64V40.5a1.22 1.22 0 0 1 1.21-1.23h4.27a1.18 1.18 0 0 1 1.16 1.23z"/><path fill="#29A2FF" d="M0 40.5h14.94v15.12H0z"/></svg><svg viewBox="-146.29 -146.29 804.57 804.57" width="110" height="110" id="advantages-2" xmlns="http://www.w3.org/2000/svg"><defs><path id="ba" d="M118.08 33.83v32.2c0 30.96-12.55 58.98-32.83 79.27-20.29 20.29-48.32 32.84-79.28 32.84-.97 0-1.93-.01-2.89-.04h-.13c-.92-.02-1.84-.06-2.75-.11-.07 0-.13 0-.2-.01 52.82-2.95 94.75-46.72 94.75-100.29V0c1.48 17.85 9.49 30.11 23.33 33.83z"/></defs><g fill="#5CDBF1"><path d="M308.928 355.944H203.073c-45.69 0-82.862 37.172-82.862 82.862V504.5a7.5 7.5 0 0 0 7.5 7.5h256.578a7.5 7.5 0 0 0 7.5-7.5v-65.694c0-45.69-37.172-82.862-82.861-82.862z"/><path fill="#37B7C4" d="M308.928 355.944h-25.321c45.69 0 82.861 37.172 82.861 82.862V504.5a7.5 7.5 0 0 1-7.5 7.5h25.321a7.5 7.5 0 0 0 7.5-7.5v-65.694c0-45.69-37.172-82.862-82.861-82.862z"/><path fill="#F0EEEE" d="M356.263 373.799a7.5 7.5 0 0 0-3.441-5.266 82.25 82.25 0 0 0-26.499-10.746 7.508 7.508 0 0 0-5.563.986L256 399.515l-64.76-40.741a7.501 7.501 0 0 0-5.562-.986 82.205 82.205 0 0 0-26.5 10.746 7.5 7.5 0 0 0-3.441 5.265c-8.933 60.68 16.791 74.361 32.921 77.116 2.63.449 5.317.662 8.044.662 22.916 0 48.267-15.049 59.263-31.373 4.762 7.153 12.353 14.135 21.925 19.909 12.365 7.46 25.601 11.458 37.441 11.458a47.58 47.58 0 0 0 8.01-.656c16.13-2.755 41.855-16.436 32.922-77.116z"/><path fill="#D9D4D4" d="M357.967 402.295c.388-8.108-.09-17.531-1.704-28.496a7.498 7.498 0 0 0-2.809-4.82c-.502-.321-.995-.655-1.504-.965l-.284-.169a84.669 84.669 0 0 0-3.03-1.745c-.196-.107-.393-.212-.59-.318a81.317 81.317 0 0 0-6.358-3.073c-.286-.123-.571-.25-.858-.37a81.594 81.594 0 0 0-2.761-1.091c-.308-.116-.613-.239-.922-.351a81.212 81.212 0 0 0-2.844-.964c-.298-.096-.593-.203-.893-.296a82.394 82.394 0 0 0-3.61-1.027c-.624-.162-1.256-.298-1.884-.446-.571-.134-1.14-.274-1.715-.397a7.502 7.502 0 0 0-5.439 1.006l-5.507 3.464c18.624 7.729 33.838 22.058 42.712 40.058z"/><path fill="#FA9E3E" d="M308.93 355.94H298.1v-88.21h-84.2v88.21h-10.83c-10 0-19.59 1.78-28.47 5.04.71 2.42 1.52 4.79 2.43 7.11 12.37 31.53 43.05 53.86 78.97 53.86s66.6-22.33 78.97-53.86c.91-2.32 1.72-4.69 2.43-7.11a82.45 82.45 0 0 0-28.47-5.04z"/><path fill="#35343F" d="M256 0c-32.026 0-58.081 26.055-58.081 58.081s26.055 58.08 58.081 58.08 58.081-26.055 58.081-58.08C314.081 26.055 288.026 0 256 0z"/><g fill="#484655"><path d="M256 50.167c-75.111 0-136 63.997-136 142.941s60.889 101.225 136 101.225c75.111 0 136-22.281 136-101.225 0-78.944-60.889-142.941-136-142.941z"/><path d="M256 301.834c-43.626 0-76.386-7.247-100.152-22.155-28.764-18.043-43.348-47.169-43.348-86.57 0-82.954 64.374-150.441 143.5-150.441s143.5 67.488 143.5 150.441c0 39.401-14.584 68.527-43.349 86.57-23.765 14.907-56.525 22.155-100.151 22.155zm0-244.167c-70.855 0-128.5 60.759-128.5 135.441 0 34.372 11.88 58.533 36.319 73.863 21.01 13.179 52.025 19.862 92.181 19.862s71.171-6.683 92.181-19.862c24.439-15.33 36.319-39.491 36.319-73.863 0-74.682-57.645-135.441-128.5-135.441z"/></g><g fill="#FA9E3E"><path d="M125.839 223.99h49.369v56.61h-49.369c-15.632 0-28.305-12.673-28.305-28.305s12.673-28.305 28.305-28.305zM386.161 199.67h-49.369v56.61h49.369c15.632 0 28.305-12.673 28.305-28.305s-12.673-28.305-28.305-28.305z"/></g><use fill="#FFB56B" transform="translate(250.03 164.65)" xlink:href="#ba"/><path fill="#49B6F2" d="M388.933 280.337H353V199.67h35.933c14.101 0 25.532 11.431 25.532 25.532v29.602c.001 14.101-11.43 25.533-25.532 25.533z"/><path fill="#2E93CC" d="M388.933 199.67h-22.466c14.101 0 25.532 11.431 25.532 25.532v29.602c0 14.101-11.431 25.532-25.532 25.532h22.466c14.101 0 25.533-11.431 25.533-25.532v-29.602c0-14.101-11.431-25.532-25.533-25.532z"/><path fill="#FFB56B" d="M344.78 151.88c-.34 4.52-.33 8.79 0 12.77v77.69c0 53.57-41.93 97.34-94.75 100.29h-.04c-59.13-3.12-106.1-52.06-106.1-111.95v-45.879c0-4.039 3.715-7.07 7.667-6.236 134.87 28.453 165.285-19.629 193.223-49.275l.056-.059c1.431-1.516 3.925-.12 3.416 1.902-1.854 7.358-3.007 14.306-3.472 20.747z"/><use fill="#EF9245" transform="translate(250.03 164.65)" xlink:href="#ba"/><g fill="#19303F"><path d="M310.323 229.962a7.5 7.5 0 0 1-7.5-7.5v-2a7.5 7.5 0 0 1 15 0v2c0 4.143-3.357 7.5-7.5 7.5zM201.676 229.962a7.5 7.5 0 0 1-7.5-7.5v-2a7.5 7.5 0 0 1 15 0v2a7.5 7.5 0 0 1-7.5 7.5zM388.933 280.337h-11.924a7.477 7.477 0 0 0-.22 1.775c0 10.139-8.249 18.388-18.388 18.388h-73.068a7.5 7.5 0 0 0-7.5 7.5 7.5 7.5 0 0 0 7.5 7.5h73.068c18.41 0 33.388-14.978 33.388-33.388 0-.66-.094-1.297-.254-1.906-.855.086-1.723.131-2.602.131z"/></g><path d="M273.667 288.834H257c-10.568 0-19.167 8.598-19.167 19.166s8.598 19.167 19.167 19.167h16.667c10.568 0 19.166-8.598 19.166-19.167 0-10.568-8.598-19.166-19.166-19.166z"/></g></svg><svg viewBox="-21.71 -21.71 119.43 110.43" width="110" height="101.71" id="advantages-3" x="110" xmlns="http://www.w3.org/2000/svg"><defs><path id="cd" d="M22.613.476c4.894.477 4.894 1.25 0 1.726-4.893.476-12.826.476-17.72 0C0 1.725 0 .952 4.893.476 9.787 0 17.72 0 22.613.476"/><path id="cg" d="M23.588 5.104c5.104 5.104 5.104 13.38 0 18.484-5.104 5.104-13.38 5.104-18.484 0C0 18.484 0 10.208 5.104 5.104 10.208 0 18.484 0 23.588 5.104"/><path id="cf" d="M20.448.39c4.424.391 4.424 1.024 0 1.415-4.425.39-11.599.39-16.023 0C0 1.415 0 .78 4.425.39 8.849 0 16.023 0 20.448.39"/><path id="cb" d="M25.05 0v2.69c0 .57-4.05 1.05-9.52 1.18h-3C5.61 3.87 0 3.32 0 2.65V0h25.05z"/><path id="cc" d="M0 0v2.69c0 .67 5.61 1.22 12.53 1.22 6.92 0 12.53-.55 12.53-1.22V0H0z"/><path id="ce" d="M22.613.476c4.894.477 4.894 1.25 0 1.726-4.893.476-12.826.476-17.72 0C0 1.725 0 .952 4.893.476 9.787 0 17.72 0 22.613.476"/><path id="ca" d="M3.967 3.947a.67.67 0 0 1-.95 0l-2.82-2.8a.67.67 0 0 1 0-.95.67.67 0 0 1 .95 0l2.82 2.8a.67.67 0 0 1 0 .95z"/></defs><g transform="translate(-1)"><path fill="#E3E4E3" d="M48.117 10.553c10.244 10.243 10.244 26.851 0 37.094-10.243 10.244-26.851 10.244-37.094 0-10.244-10.243-10.244-26.851 0-37.094C21.266.309 37.874.309 48.117 10.553"/><path fill="#2F363E" d="M29.57 2.87c14.486 0 26.23 11.744 26.23 26.23S44.056 55.33 29.57 55.33 3.34 43.586 3.34 29.1 15.084 2.87 29.57 2.87zm0-2.31a28.39 28.39 0 0 0-15.96 4.88 28.61 28.61 0 0 0-12 17.92 28.79 28.79 0 0 0 0 11.5 28.39 28.39 0 0 0 4.3 10.21A28.61 28.61 0 0 0 18.46 55.4a28.41 28.41 0 0 0 5.36 1.66 28.79 28.79 0 0 0 11.5 0 28.4 28.4 0 0 0 10.21-4.3 28.61 28.61 0 0 0 10.33-12.55 28.41 28.41 0 0 0 1.66-5.36 28.79 28.79 0 0 0 0-11.5 28.39 28.39 0 0 0-4.3-10.21A28.61 28.61 0 0 0 40.68 2.81a28.41 28.41 0 0 0-5.36-1.66 28.74 28.74 0 0 0-5.75-.58V.56z"/><path d="M29.017 30.08l1.013-.586 7.46 12.921-1.013.585z" fill="#EC8457"/><path fill="#5B6375" d="M29.61 27.62l-8.71-9A1.32 1.32 0 1 0 19 20.4l8.75 9.06.07.05a1.32 1.32 0 0 0 1.83-1.89h-.04z"/><path fill="#2F363E" d="M42.64 26.42L31.3 27.83a1.2 1.2 0 0 0-.66 2.17c.27.2.61.28.94.22l11.37-1.42h.08a1.18 1.18 0 0 0 .74-.46 1.2 1.2 0 0 0-1.12-1.9l-.01-.02z"/><path fill="#E3E4E3" d="M31.401 28.039a2.01 2.01 0 1 1-2.842 2.842A2.01 2.01 0 0 1 31.4 28.04"/><path fill="#2F363E" d="M30 27.45a2 2 0 1 1 0 4 2 2 0 0 1 0-4zM30 26a3.5 3.5 0 1 0 3.5 3.5A3.51 3.51 0 0 0 30 26zM30 10.51a.67.67 0 0 1-.67-.67v-4a.67.67 0 1 1 1.34.02v4a.67.67 0 0 1-.67.65zM43.13 16.28a.67.67 0 0 1 0-.95l2.81-2.81a.67.67 0 0 1 .95 0 .67.67 0 0 1 0 .95l-2.81 2.81a.67.67 0 0 1-.95 0zM48.28 29.46a.67.67 0 0 1 .67-.67h4a.67.67 0 1 1 0 1.34h-4a.67.67 0 0 1-.67-.67zM42.82 42.18a.67.67 0 0 1 .95 0L46.58 45a.67.67 0 0 1 0 .95.67.67 0 0 1-.95 0l-2.81-2.8a.67.67 0 0 1 0-.97zM30 47.76a.67.67 0 0 1 .67.67v4a.67.67 0 0 1-.67.67.67.67 0 0 1-.67-.67v-4c0-.37.3-.67.67-.67zM16.85 42.7a.67.67 0 0 1 0 .95l-2.8 2.82a.67.67 0 0 1-.95 0 .67.67 0 0 1 0-.95l2.8-2.82a.67.67 0 0 1 .95 0zM11.1 29.54c0 .37-.3.67-.67.67h-4a.67.67 0 0 1-.67-.67.67.67 0 0 1 .67-.67h4a.67.67 0 0 1 .67.67z"/><use fill="#2F363E" transform="translate(12.572 12.162)" xlink:href="#ca"/><path fill="#FFF" d="M30.08 2.89v52.45h-1.22C14.576 55.061 3.142 43.402 3.142 29.115S14.576 3.169 28.86 2.89h1.22z"/><path fill="#5B6375" d="M29.54.58A28.57 28.57 0 0 0 3.24 18a28.36 28.36 0 0 0-1.66 5.37 28.76 28.76 0 0 0 0 11.5 28.39 28.39 0 0 0 4.3 10.21 28.61 28.61 0 0 0 12.55 10.33 28.33 28.33 0 0 0 5.36 1.66 28.68 28.68 0 0 0 5.75.58h.58v-2.31h-1.26C14.576 55.061 3.142 43.402 3.142 29.115S14.576 3.169 28.86 2.89h1.26V.59l-.58-.01z"/><path fill="#EC8457" d="M30.08 29.69v2.35l-.31-.56-.79-1.4 1-.58z"/><path fill="#5B6375" d="M29.57 27.63l-8.71-9a1.32 1.32 0 1 0-1.92 1.81l8.75 9.06.07.05a1.32 1.32 0 0 0 1.83-1.89l-.02-.03z"/><path fill="#FFF" d="M30.08 27.47v4h-.29a2 2 0 0 1-1.84-1.8 1.92 1.92 0 0 1 0-.2 2 2 0 0 1 1.53-2c.153-.04.311-.06.47-.06l.13.06z"/><path fill="#5B6375" d="M29.46 27.52a2 2 0 0 1 .49-.06h.17V26h-.17a3.52 3.52 0 0 0-3.33 2.39A3.5 3.5 0 0 0 29.95 33h.17v-1.52h-.32a2 2 0 0 1-1.85-1.8 1.91 1.91 0 0 1 0-.2 2 2 0 0 1 1.51-1.96zM30.08 5.21v5.29h-.13a.69.69 0 0 1-.69-.67v-4a.69.69 0 0 1 .69-.67l.13.05zM30.08 47.78v5.3h-.06a.65.65 0 0 1-.67-.65v-4a.65.65 0 0 1 .65-.67l.08.02zM16.82 42.72a.67.67 0 0 1 0 .95L14 46.48a.67.67 0 0 1-.95 0 .67.67 0 0 1 0-.95l2.8-2.82a.67.67 0 0 1 .97.01zM11.07 29.55c0 .37-.3.67-.67.67h-4a.67.67 0 1 1 0-1.34h4c.37 0 .67.3.67.67z"/><use fill="#5B6375" transform="translate(12.533 12.182)" xlink:href="#ca"/><path fill="#2F363E" d="M30.08 0v1.15V0z"/><use fill="#FDC665" transform="translate(46.54 51.43)" xlink:href="#cb"/><use fill="#E2AF5B" transform="translate(46.53 51.43)" xlink:href="#cc"/><use fill="#F8BD36" transform="translate(45.307 50.23)" xlink:href="#cd"/><use fill="#F8BD36" transform="translate(45.307 50.09)" xlink:href="#cd"/><path d="M59.06 52.42c-3 0-5.88-.1-8-.27-3.41-.28-3.41-.61-3.41-.75s0-.48 3.41-.75c2.14-.17 5-.27 8-.27s5.88.1 8 .27c3.41.28 3.41.61 3.41.75s0 .48-3.41.75c-2.13.17-4.97.27-8 .27zm-11.22-1c0 .06.4.33 3.37.56 2.12.17 4.91.26 7.86.26s5.74-.09 7.86-.26c3-.23 3.32-.51 3.37-.56.05-.05-.4-.33-3.37-.56-2.12-.17-4.91-.26-7.86-.26s-5.74.09-7.86.26c-2.97.21-3.33.48-3.37.53v.03z" opacity=".41" fill="#FFF"/><use fill="#FDC665" transform="translate(45.34 48.24)" xlink:href="#cb"/><use fill="#E2AF5B" transform="translate(45.33 48.24)" xlink:href="#cc"/><use transform="translate(44.107 47.04)" xlink:href="#ce" opacity=".11" fill="#FFF"/><use fill="#FDC665" transform="translate(44.107 46.9)" xlink:href="#cd"/><use fill="#F8BD36" transform="translate(45.424 47.102)" xlink:href="#cf"/><path fill="#FDC665" d="M76.07 45v2.69c0 .57-4.05 1.05-9.52 1.18h-3C56.62 48.9 51 48.36 51 47.68V45h25.07z"/><use fill="#E2AF5B" transform="translate(51 45)" xlink:href="#cc"/><use transform="translate(49.787 43.8)" xlink:href="#ce" opacity=".11" fill="#FFF"/><use fill="#F8BD36" transform="translate(49.787 43.65)" xlink:href="#cd"/><path d="M63.54 46c-3 0-5.88-.1-8-.27-3.41-.28-3.41-.61-3.41-.75s0-.48 3.41-.75c2.14-.17 5-.27 8-.27s5.88.1 8 .27c3.46.25 3.46.59 3.46.77 0 .18 0 .48-3.41.75-2.18.14-5.02.25-8.05.25zm-11.22-1c0 .06.4.33 3.37.56 2.12.17 4.91.26 7.86.26s5.74-.09 7.86-.26c3-.23 3.32-.51 3.37-.56.05-.05-.4-.33-3.37-.56-2.12-.17-4.91-.26-7.86-.26s-5.74.09-7.86.26c-2.97.19-3.33.46-3.37.56z" opacity=".41" fill="#FFF"/><use fill="#FDC665" transform="translate(44.13 42)" xlink:href="#cb"/><use fill="#E2AF5B" transform="translate(44.12 42)" xlink:href="#cc"/><use transform="translate(42.897 40.8)" xlink:href="#ce" opacity=".11" fill="#FFF"/><use fill="#F8BD36" transform="translate(42.897 40.66)" xlink:href="#cd"/><path d="M56.65 43c-3 0-5.88-.1-8-.27-3.41-.28-3.41-.61-3.41-.75s0-.48 3.41-.75c2.14-.17 5-.27 8-.27s5.88.1 8 .27c3.41.28 3.41.61 3.41.75s0 .48-3.41.75c-2.12.16-4.97.27-8 .27zm-11.22-1c0 .06.4.33 3.37.56 2.12.17 4.91.26 7.86.26s5.74-.09 7.86-.26c3-.23 3.32-.51 3.37-.56.05-.05-.4-.33-3.37-.56-2.12-.17-4.91-.26-7.86-.26s-5.74.09-7.86.26c-2.96.19-3.32.47-3.37.56z" opacity=".41" fill="#FFF"/><use fill="#FDC665" transform="translate(46.54 38.64)" xlink:href="#cb"/><use fill="#E2AF5B" transform="translate(46.53 38.64)" xlink:href="#cc"/><use fill="#F8BD36" transform="translate(45.307 37.44)" xlink:href="#cd"/><path d="M59.06 40c-3.35 0-6.5-.13-8.87-.36-3.76-.37-3.76-.8-3.76-1 0-.2 0-.6 3.76-1 2.37-.23 5.52-.36 8.87-.36 3.35 0 6.5.13 8.87.36 3.76.37 3.76.8 3.76 1 0 .2 0 .6-3.76 1-2.37.19-5.52.36-8.87.36zm0-2.44c-3.34 0-6.49.13-8.85.36-3.54.34-3.58.74-3.58.76 0 .02 0 .42 3.58.76 2.36.23 5.51.36 8.85.36s6.49-.13 8.85-.36c3.54-.34 3.58-.74 3.58-.76 0-.02 0-.42-3.58-.76-2.37-.27-5.51-.4-8.85-.4v.04z" opacity=".41" fill="#FFF"/><use fill="#F8BD36" transform="translate(46.624 37.502)" xlink:href="#cf"/><use fill="#FDC665" transform="translate(42.95 35.57)" xlink:href="#cb"/><path fill="#E2AF5B" d="M42.92 35.57v2.69c0 .67 5.61 1.22 12.53 1.22 6.92 0 12.55-.55 12.55-1.22v-2.69H42.92z"/><use transform="translate(41.697 34.37)" xlink:href="#ce" opacity=".11" fill="#FFF"/><use fill="#F8BD36" transform="translate(41.697 34.23)" xlink:href="#cd"/><path d="M55.45 36.55c-3 0-5.88-.1-8-.27C44 36 44 35.67 44 35.53s0-.48 3.41-.75c2.14-.17 5-.27 8-.27s5.88.1 8 .27c3.41.28 3.41.61 3.41.75s0 .48-3.41.75c-2.08.18-4.93.27-7.96.27zm-11.22-1c0 .06.4.33 3.37.56 2.12.17 4.91.26 7.86.26s5.74-.09 7.86-.26c3-.23 3.32-.51 3.37-.56.05-.05-.4-.33-3.37-.56-2.12-.17-4.91-.26-7.86-.26s-5.74.09-7.86.26c-2.97.21-3.33.48-3.37.54v.02z" opacity=".41" fill="#FFF"/><path d="M50.662 44.338c5.104 5.104 5.104 13.38 0 18.484-5.104 5.104-13.38 5.104-18.484 0-5.104-5.104-5.104-13.38 0-18.484 5.104-5.104 13.38-5.104 18.484 0" opacity=".07" fill="#231F20"/><use fill="#E2AF5B" transform="translate(26.654 39.234)" xlink:href="#cg"/><use fill="#F8BD36" transform="translate(25.434 39.584)" xlink:href="#cg"/><path fill="#FCED99" d="M39.78 41.54c-6.843 0-12.39 5.547-12.39 12.39 0 6.843 5.547 12.39 12.39 12.39 6.843 0 12.39-5.547 12.39-12.39a12.39 12.39 0 0 0-12.39-12.39zm0 24.33c-6.594 0-11.94-5.346-11.94-11.94 0-6.594 5.346-11.94 11.94-11.94 6.594 0 11.94 5.346 11.94 11.94a11.94 11.94 0 0 1-11.94 11.94z"/><path fill="#E2AF5B" d="M46.087 47.623a8.92 8.92 0 1 1-12.614 12.614 8.92 8.92 0 0 1 12.614-12.614"/><path fill="#FCED99" d="M46.043 47.997a8.39 8.39 0 1 1-11.866 11.866 8.39 8.39 0 0 1 11.866-11.866"/><path fill="#E2AF5B" d="M39.08 58.31a8 8 0 0 1-2.81-.79l.1-2.23A9.7 9.7 0 0 0 38 56a5.87 5.87 0 0 0 1.6.34c.284.03.571-.004.84-.1a.48.48 0 0 0 .29-.45.47.47 0 0 0-.17-.39A3 3 0 0 0 40 55c-.293-.147-.69-.323-1.19-.53a5.47 5.47 0 0 1-1.35-.77 2.48 2.48 0 0 1-.72-.92 2.75 2.75 0 0 1-.18-1.23 2.19 2.19 0 0 1 .79-1.7 3.79 3.79 0 0 1 2.18-.68l.07-1.49 1.39.06-.07 1.48c.93.1 1.833.364 2.67.78l-.89 1.88a6.29 6.29 0 0 0-2.51-.75 1.57 1.57 0 0 0-.76.1.42.42 0 0 0-.24.38.48.48 0 0 0 .14.37c.159.141.337.26.53.35.253.133.61.287 1.07.46a5.24 5.24 0 0 1 2 1.23 2.27 2.27 0 0 1 .54 1.67 2.47 2.47 0 0 1-.8 1.81 3.49 3.49 0 0 1-2.13.78l-.08 1.8-1.46-.01.08-1.76z"/></g></svg><svg viewBox="-22.86 -22.86 125.71 111.71" width="110" height="97.75" id="advantages-4" y="110" xmlns="http://www.w3.org/2000/svg"><defs><path id="dc" d="M7.093 1.535a3.93 3.93 0 1 1-5.558 5.558 3.93 3.93 0 0 1 5.558-5.558"/><path id="da" d="M11.063 2.394a6.13 6.13 0 1 1-8.67 8.669 6.13 6.13 0 0 1 8.67-8.67"/><path id="db" d="M7.544 1.632a4.18 4.18 0 1 1-5.912 5.912 4.18 4.18 0 0 1 5.912-5.912"/></defs><g><use fill="#F8BD36" transform="translate(23.311 6.592)" xlink:href="#da"/><path fill="#FCED99" d="M30 7.51a5.81 5.81 0 1 0 0 11.62 5.81 5.81 0 0 0 0-11.62zm0 11.41a5.6 5.6 0 1 1 5.6-5.6 5.6 5.6 0 0 1-5.6 5.59v.01z"/><path opacity=".11" fill="#FFF" d="M24.67 10.36a6.13 6.13 0 0 0 9.48 7.49l-9.48-7.49z"/><use fill="#E2AF5B" transform="translate(25.452 8.732)" xlink:href="#db"/><use fill="#FCED99" transform="translate(25.876 9.006)" xlink:href="#dc"/><path fill="#E2AF5B" d="M29.86 15.59a4 4 0 0 1-1.41-.33v-1.1c.269.136.55.247.84.33.26.08.529.124.8.13a1 1 0 0 0 .41-.07.24.24 0 0 0 .13-.23.23.23 0 0 0-.09-.19 1.47 1.47 0 0 0-.32-.17l-.6-.23a2.7 2.7 0 0 1-.68-.35 1.23 1.23 0 0 1-.38-.44 1.36 1.36 0 0 1-.12-.6 1.08 1.08 0 0 1 .35-.86 1.87 1.87 0 0 1 1.06-.38v-.74h.69v.73c.463.03.916.141 1.34.33l-.4.95a3.11 3.11 0 0 0-1.26-.31.78.78 0 0 0-.37.06.21.21 0 0 0-.11.19.24.24 0 0 0 .08.18 1.1 1.1 0 0 0 .27.16l.54.2c.371.11.713.301 1 .56.204.219.312.51.3.81a1.22 1.22 0 0 1-.35.91 1.73 1.73 0 0 1-1 .43v.89h-.69l-.03-.86z"/><use fill="#F8BD36" transform="translate(15.541 8.782)" xlink:href="#da"/><path fill="#FCED99" d="M22.27 9.7a5.81 5.81 0 1 0 0 11.62 5.81 5.81 0 0 0 0-11.62zm0 11.41a5.6 5.6 0 1 1 0-11.2 5.6 5.6 0 0 1 0 11.2z"/><path opacity=".11" fill="#FFF" d="M16.9 12.56A6.13 6.13 0 0 0 26.39 20l-9.49-7.44z"/><use fill="#E2AF5B" transform="translate(17.682 10.922)" xlink:href="#db"/><use fill="#FCED99" transform="translate(18.116 11.196)" xlink:href="#dc"/><path fill="#E2AF5B" d="M22.1 17.79a4 4 0 0 1-1.41-.33v-1.1c.269.136.55.247.84.33.26.08.529.124.8.13a1 1 0 0 0 .41-.07.24.24 0 0 0 .13-.23.23.23 0 0 0-.09-.19 1.47 1.47 0 0 0-.32-.17l-.6-.23a2.7 2.7 0 0 1-.68-.35 1.23 1.23 0 0 1-.38-.44 1.36 1.36 0 0 1-.12-.6 1.08 1.08 0 0 1 .35-.86 1.87 1.87 0 0 1 1.06-.38v-.74h.69v.73c.463.03.916.141 1.34.33l-.4.95a3.11 3.11 0 0 0-1.26-.31.78.78 0 0 0-.37.06.21.21 0 0 0-.11.19.24.24 0 0 0 .08.18 1.1 1.1 0 0 0 .27.16l.54.2c.371.11.713.301 1 .56.204.219.312.51.3.81a1.22 1.22 0 0 1-.35.91 1.73 1.73 0 0 1-1 .43v.89h-.72v-.86z"/><path fill="#F8BD36" d="M28.775 1.795a6.13 6.13 0 1 1-8.67 8.67 6.13 6.13 0 0 1 8.67-8.67"/><path fill="#FCED99" d="M24.44.32a5.81 5.81 0 1 0 0 11.62 5.81 5.81 0 0 0 0-11.62zm0 11.41A5.6 5.6 0 1 1 30 6.13a5.6 5.6 0 0 1-5.56 5.59v.01z"/><path opacity=".11" fill="#FFF" d="M19.07 3.17a6.13 6.13 0 0 0 9.48 7.49l-9.48-7.49z"/><path fill="#E2AF5B" d="M27.396 3.174a4.18 4.18 0 1 1-5.912 5.912 4.18 4.18 0 0 1 5.912-5.912"/><path fill="#FCED99" d="M27.379 3.351A3.93 3.93 0 1 1 21.82 8.91 3.93 3.93 0 0 1 27.38 3.35"/><path fill="#E2AF5B" d="M24.26 8.4a4 4 0 0 1-1.41-.33V7c.269.136.55.247.84.33.26.08.529.124.8.13a1 1 0 0 0 .41-.07.24.24 0 0 0 .1-.26.23.23 0 0 0-.09-.19 1.47 1.47 0 0 0-.32-.17L24 6.54a2.7 2.7 0 0 1-.68-.35 1.36 1.36 0 0 1-.44-1.04 1.08 1.08 0 0 1 .35-.86 1.87 1.87 0 0 1 1.06-.38v-.74H25v.73c.463.03.916.141 1.34.33l-.4.95a3.11 3.11 0 0 0-1.26-.31.78.78 0 0 0-.37.06.21.21 0 0 0-.11.19.24.24 0 0 0 .08.18 1.1 1.1 0 0 0 .27.16l.54.2c.371.11.713.301 1 .56.204.219.312.51.3.81A1.22 1.22 0 0 1 26 8a1.73 1.73 0 0 1-1 .43v.89h-.69l-.05-.92z"/><path fill="#73BCC4" d="M67.21 2.47l12.16 14.74.09.12a2 2 0 0 1-.35 2.67L47 46.41a2 2 0 0 1-2.65-.15l-.1-.12-12.12-14.73v-.05a2 2 0 0 1 .31-2.7L64.46 2.21a2 2 0 0 1 2.71.21l.04.05z"/><path fill="#5E9BA3" d="M67.17 2.42a2 2 0 0 0-2.71-.21l-4.93 4.06-22.21 18.32-4.92 4.06a2 2 0 0 0-.31 2.7v.05l3.34 4L41 42.1l3.34 4v.05l.06.06.06.06H45.9l.08-.06L52 42.35 74.18 24l4.93-4 .07-.06V18.45l-.05-.07v-.05l-3.34-4-5.24-7.82-3.34-4-.04-.09zm7.59 12.41a10.28 10.28 0 0 0-1 2.31 9.74 9.74 0 0 0-.24 5L50.25 41.31a9.74 9.74 0 0 0-5-.72 10.19 10.19 0 0 0-2.92.75l-5.85-7.14a10.19 10.19 0 0 0 1.29-2.72 9.74 9.74 0 0 0 .23-5L61.25 7.3a9.74 9.74 0 0 0 5 .72 10.28 10.28 0 0 0 2.46-.57l6.05 7.38z"/><path fill="#5E9BA3" d="M55.28 32.63h-.84a8.59 8.59 0 1 1 .84 0zm0-17a8.34 8.34 0 1 0 6.45 3 8.34 8.34 0 0 0-6.47-2.95l.02-.05z"/><path d="M55.98 16.632a7.42 7.42 0 1 1-1.418 14.772 7.42 7.42 0 0 1 1.417-14.772" fill="#5E9BA3"/><path fill="#73BCC4" d="M57.66 28.18a8.59 8.59 0 0 1-2.8 1.4l-1.53-1.85a10.4 10.4 0 0 0 1.86-.61 6.3 6.3 0 0 0 1.51-.88 2.05 2.05 0 0 0 .6-.69.51.51 0 0 0-.09-.56.5.5 0 0 0-.42-.18A3.19 3.19 0 0 0 56 25c-.333.093-.773.24-1.32.44a5.87 5.87 0 0 1-1.63.35 2.66 2.66 0 0 1-1.24-.21 3 3 0 0 1-1-.84 2.35 2.35 0 0 1-.6-1.93 4.07 4.07 0 0 1 1.24-2.1l-1-1.24 1.15-1 1 1.23a8.49 8.49 0 0 1 2.69-1.3l.65 2.14a6.75 6.75 0 0 0-2.54 1.21 1.69 1.69 0 0 0-.54.63.46.46 0 0 0 .08.47.51.51 0 0 0 .38.2c.23-.003.46-.04.68-.11.3-.08.693-.213 1.18-.4a5.63 5.63 0 0 1 2.45-.44 2.43 2.43 0 0 1 1.63.94 2.65 2.65 0 0 1 .66 2 3.75 3.75 0 0 1-1.13 2.15l1.21 1.5-1.15 1-1.19-1.51zM24.75 52.8v10.48a1.06 1.06 0 0 1-1.06 1H1.06a1.06 1.06 0 0 1-1.06-1V52.77c.032-.562.497-1 1.06-1h22.63a1.06 1.06 0 0 1 1.06 1v.03z"/><path fill="#5E9BA3" d="M24.75 52.77a1.06 1.06 0 0 0-1.06-1H1.07a1.06 1.06 0 0 0-1.06 1v7.58H0V63.69h24.33V52.77h.42zm-1.11 7.84a5.6 5.6 0 0 0-1.23.61 5.3 5.3 0 0 0-1.83 2H4.18a5.3 5.3 0 0 0-1.83-2 5.55 5.55 0 0 0-1.49-.69v-5a5.55 5.55 0 0 0 1.49-.69 5.3 5.3 0 0 0 1.83-2h16.4a5.3 5.3 0 0 0 1.83 2 5.6 5.6 0 0 0 1.23.61v5.16z"/><path fill="#5E9BA3" d="M9.3 61.34L9 61a4.67 4.67 0 1 1 .34.31l-.04.03zm5.86-7.13a4.54 4.54 0 1 0 1.66 3.51 4.54 4.54 0 0 0-1.66-3.51z"/><path fill="#5E9BA3" d="M15.127 54.853a4.04 4.04 0 1 1-5.714 5.714 4.04 4.04 0 0 1 5.714-5.714"/><path fill="#73BCC4" d="M11.84 60.29a4.68 4.68 0 0 1-1.66-.39v-1.3c.32.161.655.292 1 .39.304.097.62.15.94.16.167.01.335-.017.49-.08a.28.28 0 0 0 .16-.27.27.27 0 0 0-.11-.22 1.74 1.74 0 0 0-.37-.2l-.71-.28a3.2 3.2 0 0 1-.81-.42 1.45 1.45 0 0 1-.45-.52 1.61 1.61 0 0 1-.14-.71 1.28 1.28 0 0 1 .42-1 2.21 2.21 0 0 1 1.24-.45v-.87h.81V55a4.62 4.62 0 0 1 1.58.39l-.47 1.12a3.67 3.67 0 0 0-1.48-.37.92.92 0 0 0-.44.08.25.25 0 0 0-.13.23.28.28 0 0 0 .09.21 1.3 1.3 0 0 0 .32.19c.153.067.363.147.63.24.438.13.84.355 1.18.66.255.268.385.63.36 1 .015.4-.138.787-.42 1.07a2 2 0 0 1-1.22.51v1.05h-.81v-1.09z"/><path fill="#AE4441" d="M42.83 26.29a1.1 1.1 0 0 1 0 .2.83.83 0 0 0-.77-.72h-13.3a.74.74 0 0 0-.56.27 1 1 0 0 0-.21.45 1.1 1.1 0 0 1 0-.2 1 1 0 0 1 .23-.65.74.74 0 0 1 .56-.27H42a.86.86 0 0 1 .83.92z"/><path fill="#F8BD36" d="M11.92 40.53c-.18.86-1.85 2.27-4.7.51a3.08 3.08 0 0 0 1.49-1.4 2.43 2.43 0 0 0-.61-2.78 4.13 4.13 0 0 0-2.43-1.19C3 35.58 4 39.15 5.75 40.73l.11.09.24.21a5.31 5.31 0 0 1-2 1 .55.55 0 0 0-.42.58c.013.1.09.177.19.19.31.05 1.2 0 2.8-1.29a6.56 6.56 0 0 0 3.74 1.56 2.62 2.62 0 0 0 2.76-2l-1.25-.54zM6.67 37c.306.135.559.367.72.66.09.164.166.334.23.51a1.28 1.28 0 0 1-.08 1.05 5.29 5.29 0 0 1-.83 1.12C4.77 39.31 4.43 36 6.67 37z"/><path fill="#F8BD36" d="M67.31 37.14a1.18 1.18 0 0 0-.78-.29h-2.87c-2.17-6.16-9.11-11.64-15.25-12.77l-.56-.08v-3.5h-.06c-2.33 0-4.2 1.43-4.2 3.16l-13.37.12c-9.68 0-17.83 5.9-20.17 13.89a18.36 18.36 0 0 0-.51 7.16s1.6 9.74 10.62 12.86v4.66a3.74 3.74 0 0 0 3.84 3.5 3.74 3.74 0 0 0 4-3.49V60c.74.07 16.4.1 16.7.09v2.23a4 4 0 0 0 7.86 0V58.5c5.26-2.19 9.31-5.5 11.08-10.5h2.89a1.05 1.05 0 0 0 1.11-1v-9.2a.94.94 0 0 0-.33-.66z"/><path fill="#DA9530" d="M44.77 28.52v4.65c-.05-.23-.57 1-2.68 1a4.61 4.61 0 0 1-2-.45 3.82 3.82 0 0 1-.08-.79 4.63 4.63 0 0 1 4.76-4.41z"/><path fill="#434E5B" d="M56.27 35.606c.907.809.907 2.12 0 2.928-.906.808-2.374.808-3.28 0-.907-.809-.907-2.12 0-2.928.906-.808 2.374-.808 3.28 0"/><path fill="#FFF" d="M55.917 35.763a1 1 0 1 1-1.414 1.414 1 1 0 0 1 1.414-1.414"/><path fill="#F8BD36" d="M67.64 37.83V47a1.05 1.05 0 0 1-1.11 1h-2.89a6.18 6.18 0 0 1 0-11.22h2.87a1.18 1.18 0 0 1 .78.29.94.94 0 0 1 .35.76z"/><path fill="#434E5B" d="M42.81 26.29a.77.77 0 0 1-.77.53H28.76a.77.77 0 0 1-.76-.52.66.66 0 0 1 .2-.3.86.86 0 0 1 .56-.2H42a.77.77 0 0 1 .81.49z"/><path fill="#DA9530" d="M31.43 59.44s-.07 1.2-.12 1.36a2.75 2.75 0 0 1-5 0 2 2 0 0 1-.11-.48l.21-.23.9-1.79c2.13 1.03 1.58.86 4.12 1.14zM54.19 57.61v2.15a2.69 2.69 0 0 1-5.27 0l-1.19-.16 2.69-2.15c3.88-.38 3.77.16 3.77.16z"/><path fill="#E1A730" d="M67.62 43.33v3.87a1.05 1.05 0 0 1-1.11 1h-2.89c-1.77 5-5.82 8.27-11.08 10.46v3.85a4 4 0 0 1-7.86 0v-2.24c-.31 0-16 0-16.7-.09v2.32A3.74 3.74 0 0 1 24 66a3.74 3.74 0 0 1-3.93-3.49v-4.66C11.11 54.72 9.51 45 9.51 45c-.06-.59-.09-1.14-.11-1.66l58.22-.01z"/></g></svg><svg viewBox="-21.71 -21.71 119.43 110.43" width="110" height="101.71" id="advantages-5" x="220" xmlns="http://www.w3.org/2000/svg"><defs><path id="ea" d="M11.95 0v1.28c0 .27-1.93.5-4.52.56H6c-3.29 0-6-.26-6-.58V0h11.95z"/><path id="ec" d="M10.756.39c2.328.391 2.328 1.024 0 1.415-2.327.39-6.101.39-8.429 0C0 1.415 0 .78 2.327.39 4.655 0 8.43 0 10.757.39"/><path id="ei" d="M5.52 1.16c-1.44 0-2.8 0-3.82-.13C0 .89 0 .72 0 .58S0 .27 1.7.13C2.7.05 4.08 0 5.52 0s2.8 0 3.82.13c1.7.14 1.7.31 1.7.45s0 .31-1.7.45c-1.03.08-2.38.13-3.82.13zM.41.58a29 29 0 0 0 5.11.3 29 29 0 0 0 5.11-.3 29 29 0 0 0-5.11-.3 29 29 0 0 0-5.11.3z"/><path id="ej" d="M10.756.39c2.328.391 2.328 1.024 0 1.415-2.327.39-6.101.39-8.429 0C0 1.415 0 .78 2.327.39 4.655 0 8.43 0 10.757.39"/><path id="ek" d="M9.71.39c2.1.391 2.1 1.024 0 1.415-2.102.39-5.508.39-7.609 0S0 .78 2.101.39C4.202 0 7.608 0 9.709.39"/><path id="ee" d="M5.52 1.16c-1.44 0-2.8 0-3.82-.13C0 .89 0 .72 0 .58S0 .27 1.7.13C2.7.05 4.08 0 5.52 0s2.8 0 3.82.13c1.7.14 1.7.31 1.7.45s0 .31-1.7.45c-1.02.08-2.38.13-3.82.13zM.41.58a29 29 0 0 0 5.11.3 29 29 0 0 0 5.11-.3 29 29 0 0 0-5.11-.3 29 29 0 0 0-5.11.3z"/><path id="eh" d="M9.71.39c2.1.391 2.1 1.024 0 1.415-2.102.39-5.508.39-7.609 0S0 .78 2.101.39C4.202 0 7.608 0 9.709.39"/><path id="ef" d="M5.52 1.16c-1.44 0-2.8 0-3.82-.13C0 .89 0 .72 0 .58S0 .27 1.7.13C2.7.05 4.08 0 5.52 0s2.8 0 3.82.13c1.7.14 1.7.31 1.7.45s0 .31-1.7.45c-1.02.08-2.38.13-3.82.13zM.41.58a29 29 0 0 0 5.11.3 29 29 0 0 0 5.11-.3 29 29 0 0 0-5.11-.3 29 29 0 0 0-5.11.3z"/><path id="ed" d="M5.52 1.16c-1.44 0-2.8 0-3.82-.13C0 .89 0 .72 0 .58S0 .27 1.7.13C2.7.05 4.08 0 5.52 0s2.8 0 3.82.13c1.7.14 1.7.31 1.7.45s0 .31-1.7.45c-1.03.09-2.38.13-3.82.13zM.41.58a29 29 0 0 0 5.11.3 29 29 0 0 0 5.11-.3 29 29 0 0 0-5.11-.3A29 29 0 0 0 .41.59V.58z"/><path id="eb" d="M0 0v1.28c0 .32 2.67.58 6 .58s6-.26 6-.58V0H0z"/><path id="eg" d="M5.52 1.16c-1.44 0-2.8 0-3.82-.13C0 .89 0 .72 0 .58S0 .27 1.7.13C2.7.05 4.08 0 5.52 0s2.8 0 3.82.13c1.7.14 1.7.31 1.7.45s0 .31-1.7.45c-1.02.09-2.38.13-3.82.13zM.41.58a29 29 0 0 0 5.11.3 29 29 0 0 0 5.11-.3 29 29 0 0 0-5.11-.3A29 29 0 0 0 .41.59V.58z"/></defs><g><path fill="#29A2FF" d="M47.15 66.3h9.07l13.47-23.18-8.15-.9z"/><path fill="#29A2FF" d="M52.24 44.81h22.17l.72-16.71z"/><use fill="#FDC666" transform="translate(54.12 64.39)" xlink:href="#ea"/><use fill="#E0AD5A" transform="translate(54.15 64.39)" xlink:href="#eb"/><use opacity=".11" fill="#FFF" transform="translate(53.568 63.352)" xlink:href="#ec"/><use fill="#F6BC32" transform="translate(53.568 63.292)" xlink:href="#ec"/><path opacity=".41" fill="#FFF" d="M60.11 64.94c-1.44 0-2.8 0-3.82-.13-1.7-.14-1.7-.31-1.7-.45s0-.31 1.7-.45c1-.08 2.38-.13 3.82-.13s2.8 0 3.82.13c1.7.14 1.7.31 1.7.45s0 .31-1.7.45c-1.02.09-2.38.13-3.82.13zM55 64.37a29 29 0 0 0 5.11.3 29 29 0 0 0 5.11-.3 29 29 0 0 0-5.11-.3 29 29 0 0 0-5.11.3z"/><use fill="#FDC666" transform="translate(54.66 62.6)" xlink:href="#ea"/><use fill="#E0AD5A" transform="translate(54.7 62.6)" xlink:href="#eb"/><use opacity=".11" fill="#FFF" transform="translate(54.118 61.562)" xlink:href="#ec"/><use fill="#F6BC32" transform="translate(54.118 61.502)" xlink:href="#ec"/><use opacity=".41" fill="#FFF" transform="translate(55.14 61.99)" xlink:href="#ed"/><path fill="#FDC666" d="M67.21 60.74V62c0 .27-1.93.5-4.52.56h-1.43c-3.29 0-6-.26-6-.58v-1.24h11.95z"/><path fill="#E0AD5A" d="M55.3 60.74V62c0 .32 2.67.58 6 .58s6-.26 6-.58v-1.26h-12z"/><use opacity=".11" fill="#FFF" transform="translate(54.708 59.712)" xlink:href="#ec"/><use fill="#F6BC32" transform="translate(54.708 59.642)" xlink:href="#ec"/><use opacity=".41" fill="#FFF" transform="translate(55.73 60.14)" xlink:href="#ee"/><use fill="#FDC666" transform="translate(55.51 58.88)" xlink:href="#ea"/><use fill="#E0AD5A" transform="translate(55.55 58.88)" xlink:href="#eb"/><use opacity=".11" fill="#FFF" transform="translate(54.958 57.842)" xlink:href="#ec"/><use fill="#F6BC32" transform="translate(54.958 57.782)" xlink:href="#ec"/><path opacity=".41" fill="#FFF" d="M61.5 59.43c-1.44 0-2.8 0-3.82-.13C56 59.17 56 59 56 58.86s0-.31 1.7-.45c1-.08 2.38-.13 3.82-.13s2.8 0 3.82.13c1.7.14 1.7.31 1.7.45s0 .31-1.7.45c-1.04.08-2.4.12-3.84.12zm-5.11-.58a29 29 0 0 0 5.11.3 29 29 0 0 0 5.11-.3 29 29 0 0 0-5.11-.3 29 29 0 0 0-5.11.31v-.01z"/><use fill="#FDC666" transform="translate(54.12 57.31)" xlink:href="#ea"/><use fill="#E0AD5A" transform="translate(54.15 57.31)" xlink:href="#eb"/><use opacity=".11" fill="#FFF" transform="translate(53.568 56.282)" xlink:href="#ec"/><use fill="#F6BC32" transform="translate(53.568 56.212)" xlink:href="#ec"/><use opacity=".41" fill="#FFF" transform="translate(54.59 56.71)" xlink:href="#ef"/><use fill="#FDC666" transform="translate(53.27 55.43)" xlink:href="#ea"/><use fill="#E0AD5A" transform="translate(53.31 55.43)" xlink:href="#eb"/><use opacity=".11" fill="#FFF" transform="translate(52.718 54.402)" xlink:href="#ec"/><use fill="#F6BC32" transform="translate(52.718 54.332)" xlink:href="#ec"/><path opacity=".41" fill="#FFF" d="M59.26 56c-1.44 0-2.8 0-3.82-.13-1.7-.14-1.7-.31-1.7-.45s0-.31 1.7-.45c1-.08 2.38-.13 3.82-.13s2.8 0 3.82.13c1.7.14 1.7.31 1.7.45s0 .31-1.7.45c-1.02.07-2.37.13-3.82.13zm-5.11-.58a29 29 0 0 0 5.11.3 29 29 0 0 0 5.11-.3 29 29 0 0 0-5.11-.3 29 29 0 0 0-5.11.29v.01z"/><use fill="#FDC666" transform="translate(55.26 53.64)" xlink:href="#ea"/><use fill="#E0AD5A" transform="translate(55.3 53.64)" xlink:href="#eb"/><use opacity=".11" fill="#FFF" transform="translate(54.708 52.602)" xlink:href="#ec"/><use fill="#F6BC32" transform="translate(54.708 52.542)" xlink:href="#ec"/><path opacity=".41" fill="#FFF" d="M61.25 54.2c-1.44 0-2.8 0-3.82-.13-1.7-.14-1.7-.31-1.7-.45s0-.31 1.7-.45c1-.08 2.38-.13 3.82-.13s2.8 0 3.82.13c1.7.14 1.7.31 1.7.45s0 .31-1.7.45c-1.07.08-2.38.13-3.82.13zm-5.11-.58a29 29 0 0 0 5.11.3 29 29 0 0 0 5.11-.3 29 29 0 0 0-5.11-.3 29 29 0 0 0-5.11.3z"/><path fill="#F6BC32" d="M46.045 31.555a5.14 5.14 0 1 1-7.27 7.27 5.14 5.14 0 0 1 7.27-7.27"/><path fill="#FAEC96" d="M42.41 30.32a4.87 4.87 0 1 0 0 9.74 4.87 4.87 0 0 0 0-9.74zm0 9.57a4.7 4.7 0 1 1 0-9.4 4.7 4.7 0 0 1 0 9.4z"/><path opacity=".11" fill="#FFF" d="M37.91 32.71a5.14 5.14 0 0 0 8 6.29l-8-6.29z"/><path fill="#E0AD5A" d="M44.892 32.708a3.51 3.51 0 1 1-4.964 4.964 3.51 3.51 0 0 1 4.964-4.964"/><path fill="#FAEC96" d="M44.873 32.857a3.3 3.3 0 1 1-4.666 4.666 3.3 3.3 0 0 1 4.666-4.666"/><path fill="#E0AD5A" d="M42.26 37.1a3.32 3.32 0 0 1-1.18-.27v-.93a4 4 0 0 0 .7.28c.217.068.443.105.67.11a.79.79 0 0 0 .35-.06.2.2 0 0 0 .11-.19.19.19 0 0 0-.08-.16 1.23 1.23 0 0 0-.27-.15l-.5-.2a2.27 2.27 0 0 1-.57-.29 1 1 0 0 1-.32-.37 1.14 1.14 0 0 1-.1-.5.91.91 0 0 1 .3-.72 1.57 1.57 0 0 1 .89-.32v-.62h.58v.61c.4.022.794.117 1.16.28l-.33.8a2.61 2.61 0 0 0-1.05-.26.65.65 0 0 0-.31.05.18.18 0 0 0-.09.16.2.2 0 0 0 .07.15.92.92 0 0 0 .23.13l.45.17c.312.092.599.252.84.47A.94.94 0 0 1 44 36a1 1 0 0 1-.3.76 1.45 1.45 0 0 1-.87.36v.75h-.58l.01-.77z"/><use fill="#FDC666" transform="translate(36.8 64.15)" xlink:href="#ea"/><use fill="#E0AD5A" transform="translate(36.83 64.15)" xlink:href="#eb"/><use fill="#F6BC32" transform="translate(36.248 63.112)" xlink:href="#ec"/><use fill="#F6BC32" transform="translate(36.248 63.052)" xlink:href="#ec"/><use opacity=".41" fill="#FFF" transform="translate(37.27 63.54)" xlink:href="#eg"/><use fill="#FDC666" transform="translate(36.22 62.63)" xlink:href="#ea"/><use fill="#E0AD5A" transform="translate(36.26 62.63)" xlink:href="#eb"/><use opacity=".11" fill="#FFF" transform="translate(35.678 61.602)" xlink:href="#ec"/><use fill="#FDC666" transform="translate(35.678 61.532)" xlink:href="#ec"/><use fill="#F6BC32" transform="translate(36.315 61.512)" xlink:href="#eh"/><use fill="#FDC666" transform="translate(38.93 61.09)" xlink:href="#ea"/><use fill="#E0AD5A" transform="translate(39 61.09)" xlink:href="#eb"/><use opacity=".11" fill="#FFF" transform="translate(38.378 60.052)" xlink:href="#ec"/><use fill="#F6BC32" transform="translate(38.378 59.992)" xlink:href="#ec"/><use opacity=".41" fill="#FFF" transform="translate(39.4 60.48)" xlink:href="#eg"/><use fill="#FDC666" transform="translate(35.65 59.66)" xlink:href="#ea"/><use fill="#E0AD5A" transform="translate(35.69 59.66)" xlink:href="#eb"/><use opacity=".11" fill="#FFF" transform="translate(35.108 58.632)" xlink:href="#ec"/><use fill="#F6BC32" transform="translate(35.108 58.562)" xlink:href="#ec"/><use opacity=".41" fill="#FFF" transform="translate(36.13 59.06)" xlink:href="#ei"/><use fill="#FDC666" transform="translate(36.8 58.06)" xlink:href="#ea"/><use fill="#E0AD5A" transform="translate(36.83 58.06)" xlink:href="#eb"/><use fill="#F6BC32" transform="translate(36.248 57.032)" xlink:href="#ec"/><path opacity=".41" fill="#FFF" d="M42.79 58.75c-1.51 0-2.93-.06-4-.16-1.79-.18-1.79-.4-1.79-.53s0-.35 1.78-.52c1.07-.1 2.49-.16 4-.16 1.51 0 2.93.06 4 .16 1.78.17 1.78.39 1.78.52s0 .35-1.78.52c-1.06.11-2.48.17-3.99.17zm-5.45-.69a22.53 22.53 0 0 0 5.45.41 22.53 22.53 0 0 0 5.45-.41 22.53 22.53 0 0 0-5.45-.41 22.53 22.53 0 0 0-5.45.41z"/><use fill="#F6BC32" transform="translate(36.885 56.952)" xlink:href="#eh"/><use fill="#FDC666" transform="translate(35.05 56.6)" xlink:href="#ea"/><use fill="#E0AD5A" transform="translate(35.12 56.6)" xlink:href="#eb"/><use opacity=".11" fill="#FFF" transform="translate(34.538 55.572)" xlink:href="#ec"/><use fill="#F6BC32" transform="translate(34.538 55.502)" xlink:href="#ec"/><path opacity=".41" fill="#FFF" d="M41.08 57.16c-1.44 0-2.8 0-3.82-.13-1.7-.14-1.7-.31-1.7-.45s0-.31 1.7-.45c1-.08 2.38-.13 3.82-.13s2.8 0 3.82.13c1.7.14 1.7.31 1.7.45s0 .31-1.7.45c-1.03.09-2.38.13-3.82.13zM36 56.59a29 29 0 0 0 5.11.3 29 29 0 0 0 5.11-.3 29 29 0 0 0-5.11-.3 29 29 0 0 0-5.11.3z"/><use fill="#FDC666" transform="translate(33.8 54.88)" xlink:href="#ea"/><use fill="#E0AD5A" transform="translate(33.84 54.88)" xlink:href="#eb"/><use opacity=".11" fill="#FFF" transform="translate(33.258 53.842)" xlink:href="#ec"/><use fill="#F6BC32" transform="translate(33.258 53.782)" xlink:href="#ec"/><use opacity=".41" fill="#FFF" transform="translate(34.28 54.27)" xlink:href="#eg"/><use fill="#FDC666" transform="translate(34.81 53.3)" xlink:href="#ea"/><use fill="#E0AD5A" transform="translate(34.85 53.3)" xlink:href="#eb"/><use opacity=".11" fill="#FFF" transform="translate(34.258 52.272)" xlink:href="#ec"/><use fill="#F6BC32" transform="translate(34.258 52.202)" xlink:href="#ec"/><path opacity=".41" fill="#FFF" d="M40.8 53.86c-1.44 0-2.8 0-3.82-.13-1.7-.14-1.7-.31-1.7-.45s0-.31 1.7-.45c1-.08 2.38-.13 3.82-.13s2.8 0 3.82.13c1.7.14 1.7.31 1.7.45s0 .31-1.7.45c-1.02.08-2.38.13-3.82.13zm-5.11-.58a29 29 0 0 0 5.11.3 29 29 0 0 0 5.11-.3A29 29 0 0 0 40.8 53a29 29 0 0 0-5.11.28z"/><use fill="#FDC666" transform="translate(35.64 51.5)" xlink:href="#ea"/><use fill="#E0AD5A" transform="translate(35.68 51.5)" xlink:href="#eb"/><use opacity=".11" fill="#FFF" transform="translate(35.088 50.472)" xlink:href="#ec"/><use fill="#F6BC32" transform="translate(35.088 50.402)" xlink:href="#ec"/><path opacity=".41" fill="#FFF" d="M41.63 52.06c-1.44 0-2.8 0-3.82-.13-1.7-.14-1.7-.31-1.7-.45s0-.31 1.7-.45c1-.08 2.38-.13 3.82-.13s2.8 0 3.82.13c1.7.14 1.7.31 1.7.45s0 .31-1.7.45c-1.02.07-2.37.13-3.82.13zm-5.11-.58a29 29 0 0 0 5.11.3 29 29 0 0 0 5.11-.3 29 29 0 0 0-5.11-.3 29 29 0 0 0-5.11.3z"/><use fill="#FDC666" transform="translate(34.05 49.62)" xlink:href="#ea"/><use fill="#E0AD5A" transform="translate(34.1 49.62)" xlink:href="#eb"/><use opacity=".11" fill="#FFF" transform="translate(33.518 48.592)" xlink:href="#ec"/><use fill="#F6BC32" transform="translate(33.518 48.522)" xlink:href="#ec"/><use opacity=".41" fill="#FFF" transform="translate(34.54 49.02)" xlink:href="#ed"/><use fill="#FDC666" transform="translate(35.89 48.05)" xlink:href="#ea"/><use fill="#E0AD5A" transform="translate(35.93 48.05)" xlink:href="#eb"/><use opacity=".11" fill="#FFF" transform="translate(35.338 47.022)" xlink:href="#ec"/><use fill="#F6BC32" transform="translate(35.338 46.952)" xlink:href="#ec"/><path opacity=".41" fill="#FFF" d="M41.88 48.61c-1.44 0-2.8 0-3.82-.13-1.7-.14-1.7-.31-1.7-.45s0-.31 1.7-.45c1-.08 2.38-.13 3.82-.13s2.8 0 3.82.13c1.7.14 1.7.31 1.7.45s0 .31-1.7.45c-1.02.08-2.37.13-3.82.13zM36.77 48a29 29 0 0 0 5.11.3A29 29 0 0 0 47 48a29 29 0 0 0-5.11-.3 29 29 0 0 0-5.12.3z"/><path fill="#FDC666" d="M47.16 46.18v1.28c0 .27-1.93.5-4.52.56L41.2 48c-3.29 0-6-.26-6-.58v-1.24h11.96z"/><use fill="#E0AD5A" transform="translate(35.24 46.18)" xlink:href="#eb"/><use opacity=".11" fill="#FFF" transform="translate(34.658 45.142)" xlink:href="#ec"/><use fill="#F6BC32" transform="translate(34.658 45.082)" xlink:href="#ec"/><use opacity=".41" fill="#FFF" transform="translate(35.68 45.57)" xlink:href="#eg"/><use fill="#FDC666" transform="translate(36.62 44.39)" xlink:href="#ea"/><use fill="#E0AD5A" transform="translate(36.66 44.39)" xlink:href="#eb"/><use opacity=".11" fill="#FFF" transform="translate(36.068 43.352)" xlink:href="#ec"/><use fill="#F6BC32" transform="translate(36.068 43.292)" xlink:href="#ec"/><path opacity=".41" fill="#FFF" d="M42.61 44.94c-1.44 0-2.8 0-3.82-.13-1.7-.14-1.7-.31-1.7-.45s0-.31 1.7-.45c1-.08 2.38-.13 3.82-.13s2.8 0 3.82.13c1.7.14 1.7.31 1.7.45s0 .31-1.7.45c-1.02.09-2.37.13-3.82.13zm-5.11-.58a29 29 0 0 0 5.11.3 29 29 0 0 0 5.11-.3 29 29 0 0 0-5.11-.3 29 29 0 0 0-5.11.31v-.01z"/><use fill="#FDC666" transform="translate(17.36 65.14)" xlink:href="#ea"/><use fill="#E0AD5A" transform="translate(17.39 65.14)" xlink:href="#eb"/><use fill="#F6BC32" transform="translate(16.808 64.112)" xlink:href="#ej"/><use fill="#F6BC32" transform="translate(16.808 64.042)" xlink:href="#ej"/><use opacity=".41" fill="#FFF" transform="translate(17.83 64.54)" xlink:href="#ee"/><use fill="#FDC666" transform="translate(16.78 63.62)" xlink:href="#ea"/><use fill="#E0AD5A" transform="translate(16.82 63.62)" xlink:href="#eb"/><use opacity=".11" fill="#FFF" transform="translate(16.238 62.592)" xlink:href="#ej"/><use fill="#FDC666" transform="translate(16.238 62.522)" xlink:href="#ej"/><use fill="#F6BC32" transform="translate(16.875 62.512)" xlink:href="#ek"/><use fill="#FDC666" transform="translate(19.48 62.08)" xlink:href="#ea"/><use fill="#E0AD5A" transform="translate(19.52 62.08)" xlink:href="#eb"/><use opacity=".11" fill="#FFF" transform="translate(18.938 61.052)" xlink:href="#ej"/><use fill="#F6BC32" transform="translate(18.938 60.982)" xlink:href="#ej"/><use opacity=".41" fill="#FFF" transform="translate(19.96 61.48)" xlink:href="#ee"/><use fill="#FDC666" transform="translate(16.21 60.66)" xlink:href="#ea"/><use fill="#E0AD5A" transform="translate(16.25 60.66)" xlink:href="#eb"/><use opacity=".11" fill="#FFF" transform="translate(15.668 59.632)" xlink:href="#ej"/><use fill="#F6BC32" transform="translate(15.668 59.562)" xlink:href="#ej"/><path opacity=".41" fill="#FFF" d="M22.21 61.22c-1.44 0-2.8 0-3.82-.13-1.7-.14-1.7-.31-1.7-.45s0-.31 1.7-.45c1-.08 2.38-.13 3.82-.13s2.8 0 3.82.13c1.7.14 1.7.31 1.7.45s0 .31-1.7.45c-1.03.08-2.38.13-3.82.13zm-5.11-.58a29 29 0 0 0 5.11.3 29 29 0 0 0 5.11-.3 29 29 0 0 0-5.11-.3 29 29 0 0 0-5.12.3h.01z"/><use fill="#FDC666" transform="translate(17.36 59.06)" xlink:href="#ea"/><use fill="#E0AD5A" transform="translate(17.39 59.06)" xlink:href="#eb"/><use fill="#F6BC32" transform="translate(16.808 58.032)" xlink:href="#ej"/><path opacity=".41" fill="#FFF" d="M23.35 59.75c-1.51 0-2.93-.06-4-.16-1.78-.17-1.78-.39-1.78-.52s0-.35 1.78-.52c1.07-.1 2.49-.16 4-.16 1.51 0 2.93.06 4 .16 1.78.17 1.78.39 1.78.52s0 .35-1.78.52c-1.07.1-2.49.16-4 .16zm-5.45-.69a22.53 22.53 0 0 0 5.45.41 22.53 22.53 0 0 0 5.45-.41 22.53 22.53 0 0 0-5.45-.41 22.53 22.53 0 0 0-5.45.41z"/><use fill="#F6BC32" transform="translate(17.445 57.942)" xlink:href="#ek"/><use fill="#FDC666" transform="translate(15.64 57.6)" xlink:href="#ea"/><use fill="#E0AD5A" transform="translate(15.68 57.6)" xlink:href="#eb"/><use opacity=".11" fill="#FFF" transform="translate(15.088 56.572)" xlink:href="#ej"/><use fill="#F6BC32" transform="translate(15.088 56.502)" xlink:href="#ej"/><path opacity=".41" fill="#FFF" d="M21.63 58.16c-1.44 0-2.8 0-3.82-.13-1.7-.14-1.7-.31-1.7-.45s0-.31 1.7-.45c1-.08 2.38-.13 3.82-.13s2.8 0 3.82.13c1.7.14 1.7.31 1.7.45s0 .31-1.7.45c-1.02.08-2.37.13-3.82.13zm-5.11-.58a29 29 0 0 0 5.11.3 29 29 0 0 0 5.11-.3 29 29 0 0 0-5.11-.3 29 29 0 0 0-5.11.3z"/><use fill="#FDC666" transform="translate(14.36 55.87)" xlink:href="#ea"/><use fill="#E0AD5A" transform="translate(14.4 55.87)" xlink:href="#eb"/><use opacity=".11" fill="#FFF" transform="translate(13.818 54.842)" xlink:href="#ej"/><use fill="#F6BC32" transform="translate(13.818 54.772)" xlink:href="#ej"/><use opacity=".41" fill="#FFF" transform="translate(14.84 55.27)" xlink:href="#ei"/><use fill="#FDC666" transform="translate(15.37 54.3)" xlink:href="#ea"/><use fill="#E0AD5A" transform="translate(15.4 54.3)" xlink:href="#eb"/><use opacity=".11" fill="#FFF" transform="translate(14.818 53.272)" xlink:href="#ej"/><use fill="#F6BC32" transform="translate(14.818 53.202)" xlink:href="#ej"/><use opacity=".41" fill="#FFF" transform="translate(15.84 53.7)" xlink:href="#ef"/><use fill="#FDC666" transform="translate(14.93 52.51)" xlink:href="#ea"/><use fill="#E0AD5A" transform="translate(15 52.51)" xlink:href="#eb"/><use opacity=".11" fill="#FFF" transform="translate(14.388 51.482)" xlink:href="#ej"/><use fill="#F6BC32" transform="translate(14.388 51.412)" xlink:href="#ej"/><path opacity=".41" fill="#FFF" d="M20.93 53.07c-1.44 0-2.8 0-3.82-.13-1.7-.14-1.7-.31-1.7-.45s0-.31 1.7-.45c1-.08 2.38-.13 3.82-.13s2.8 0 3.82.13c1.7.14 1.7.31 1.7.45s0 .31-1.7.45c-1.03.06-2.38.13-3.82.13zm-5.11-.58a29 29 0 0 0 5.11.3 29 29 0 0 0 5.11-.3 29 29 0 0 0-5.11-.3 29 29 0 0 0-5.11.3z"/><use fill="#FDC666" transform="translate(15.48 50.72)" xlink:href="#ea"/><use fill="#E0AD5A" transform="translate(15.52 50.72)" xlink:href="#eb"/><use opacity=".11" fill="#FFF" transform="translate(14.928 49.682)" xlink:href="#ej"/><use fill="#F6BC32" transform="translate(14.928 49.622)" xlink:href="#ej"/><path opacity=".41" fill="#FFF" d="M21.47 51.28c-1.44 0-2.8 0-3.82-.13C16 51 16 50.84 16 50.7s0-.31 1.7-.45c1-.08 2.38-.13 3.82-.13s2.8 0 3.82.13c1.7.14 1.7.31 1.7.45s0 .31-1.7.45c-1.07.08-2.42.13-3.87.13zm-5.11-.58a29 29 0 0 0 5.11.3 29 29 0 0 0 5.11-.3 29 29 0 0 0-5.11-.3 29 29 0 0 0-5.11.3z"/><path fill="#EFCEA7" d="M33 6.42s4.15 3 4.87 3.76c0 0 4-1.79 10.09.59 0 0 7.19-1.14 12.22 0a2.64 2.64 0 0 1 2.22 1.93s.14 1.47-2 1a22.45 22.45 0 0 0-5.11-.84s-2.64-.24-3.63.69c0 0-1.07.63 2.53 1.09a37.49 37.49 0 0 1 8 1.4 8.62 8.62 0 0 1 4.53 3.8 2.29 2.29 0 0 1-.24 2.62s-.32 1-4.59-2a15.06 15.06 0 0 0-6.09-2.55s-2.31-.73-3.6-.08c0 0-1 .52 1.25 1.31a38.32 38.32 0 0 1 5.26 2.36 14.58 14.58 0 0 1 5.16 4.09s2.41 3.89.72 5.45c0 0-1.25 1-2.49-1.16a10.09 10.09 0 0 0-2.72-4.45 45.73 45.73 0 0 0-4.22-2.55l-.47-.23a6 6 0 0 0-3.09-1.09s-1.14.09-.16 1.46a5.17 5.17 0 0 1 1 3.05 4.93 4.93 0 0 1-.14 1.76 8.61 8.61 0 0 1-1.92 3.38 2.64 2.64 0 0 0-.25.27A4.28 4.28 0 0 1 47.27 33a1.55 1.55 0 0 1-.7-2.33 8.1 8.1 0 0 0 1.89-2.59s1.08-2.41-2.27-4c-3.35-1.59-3.71-1.46-5.82-1.12a5.7 5.7 0 0 0-3.81 1.88 3.93 3.93 0 0 0-.6 1.35 3.41 3.41 0 0 0 .37 3.9s1.52 1.9 1.5 2.41c0 1 0 1.94-2 1.84a8.64 8.64 0 0 1-4-3.84c-1.61-2.76-.64-6.54-.19-9.25.096-.578.23-1.15.4-1.71.15-.49.34-1.16.56-1.95l-5.06-2.25L33 6.42z"/><path fill="#4A5254" d="M0 0h24.26l7.17 4.27-2.97 4.98-3.41 5.72-.01.02"/><path fill="#444C4F" d="M28.46 9.25l-3.41 5.72L0 0h12.95z"/><path d="M31.305 15.982a3.1 3.1 0 0 1-5.326-3.175l3.984-6.682A3.1 3.1 0 0 1 35.289 9.3z" fill="#CADDCC"/><path fill="#BED5C3" d="M33.52 12.26l-3.13 5.24a1.33 1.33 0 0 1-1.82.46l-3-1.81a1.33 1.33 0 0 1-.46-1.82l3.13-5.25 5.28 3.18z"/><path d="M35.113 6.49a1 1 0 1 1-1.303 1.518 1 1 0 0 1 1.303-1.518" fill="#444C4F"/></g></svg><svg width="110" height="110" viewBox="-132.57 -132.57 729.14 729.14" id="advantages-6" y="207.75" xmlns="http://www.w3.org/2000/svg"><g fill="#EACAB5"><path d="M355.994 352.005h31.999v43.334h-31.999v-43.334z"/><path fill="#F6BB92" d="M84.006 346.005h31.999v49.334H84.006v-49.334z"/><path fill="#FDC9A6" d="M100.005 360.005c-17.672 0-31.998-14.327-31.998-31.999v-39.998l31.998-16 32 16v39.998c0 17.672-14.326 31.999-32 31.999z"/><path fill="#6CBAE5" d="M52.008 376.004h95.995c17.673 0 31.999 14.326 31.999 31.999V464H20.009v-55.997c0-17.673 14.326-31.999 31.999-31.999z"/><g fill="#FDC9A6" transform="scale(.99996)"><use transform="translate(20.01 424.021)" xlink:href="#fpath-1"/><use transform="translate(148.01 424.021)" xlink:href="#fpath-1"/></g><path fill="#EA6B65" d="M323.995 376.004h95.996c17.672 0 31.999 14.326 31.999 31.999V464H291.997v-55.997c0-17.673 14.326-31.999 31.998-31.999z"/><g fill="#F9D7C0" transform="scale(.99996)"><use transform="translate(292.01 424.021)" xlink:href="#fpath-1"/><use transform="translate(420.01 424.021)" xlink:href="#fpath-1"/></g><path fill="#683F2B" d="M148.003 248.01a43.271 43.271 0 0 0-47.998 0l-9.8-1.6c-21.29-3.545-41.554 10.441-45.789 31.606a34.694 34.694 0 0 0-.408 9.992l23.999 39.998v-31.998l31.998-16c18.364 13.769 44.057 11.94 60.286-4.287l11.711-11.712-23.999-16z"/><g fill="#F3AF3E" transform="scale(.99996)"><use transform="translate(156.01 168.021)" xlink:href="#fpath-2"/><use transform="translate(228.01 224.021)" xlink:href="#fpath-2"/><use transform="translate(428.01 184.021)" xlink:href="#fpath-2"/><path d="M12.01 192.021h16v16h-16v-16z"/></g><path fill="#B3E4E8" d="M289.997.021H82.007c-30.232.878-54.22 25.754-53.998 55.997v24c0 35.344 28.652 63.997 63.997 63.997v39.998l55.997-39.998h135.994c35.345 0 63.997-28.653 63.997-63.998V56.018C347.75 24.837 322.274-.243 291.092.002c-.365.003-.73.009-1.095.019z"/><path fill="#8ACED8" d="M371.993 32.02H236c-26.508 0-47.997 21.489-47.997 47.997v47.998c0 26.509 21.489 47.998 47.997 47.998l55.998 39.998v-39.998h79.996c26.51 0 47.998-21.489 47.998-47.998V80.017c0-26.508-21.489-47.997-47.998-47.997z"/><path fill="#6FBBC6" d="M188.002 80.017v47.998a47.757 47.757 0 0 0 2.791 16h93.204c35.345 0 63.997-28.653 63.997-63.998V56.018a55.152 55.152 0 0 0-5.503-23.998H235.999c-26.507 0-47.997 21.489-47.997 47.997z"/><path fill="#B94137" d="M251.999 120.016a7.999 7.999 0 0 1-5.656-2.344l-16-16a8 8 0 0 1 11.312-11.311L252 100.704l34.342-34.342a8 8 0 0 1 11.312 11.312l-39.999 39.998a7.997 7.997 0 0 1-5.655 2.344z"/><path fill="#F9D7C0" d="M371.993 360.005c-17.672 0-31.998-14.327-31.998-31.999l-.728-38.982 56.725-17.015 8 6v49.997c0 17.672-14.326 31.999-31.999 31.999z"/><path fill="#EA9D2D" d="M427.99 304.007l-31.998-23.999-79.996 24v-24c0-30.926 25.07-55.997 55.997-55.997s55.998 25.07 55.998 55.997v24z"/></g><defs><path id="fpath-1" d="M0 0h32v40H0V0z"/><path id="fpath-2" d="M0 0h16v16H0V0z"/></defs></svg></svg>