<?xml version="1.0" encoding="UTF-8"?><svg width="464" height="464" version="1.1" viewBox="0 0 464 464" xmlns="http://www.w3.org/2000/svg" xmlns:xlink="http://www.w3.org/1999/xlink"><!--Generated by IJSVG (https://github.com/curthard89/IJSVG)--><g transform="scale(0.999955)"><g fill="#EACAB5"><path d="M0,0h32v43.336h-32v-43.336Z" transform="translate(356.01, 352.021)"></path><path fill="#F6BB92" d="M0,0h32v49.336h-32v-49.336Z" transform="translate(84.01, 346.021)"></path><path fill="#FDC9A6" d="M32,88c-17.673,0 -32,-14.327 -32,-32v-40l32,-16l32,16v40c0,17.673 -14.326,32 -32,32Z" transform="translate(68.01, 272.021)"></path><path fill="#6CBAE5" d="M32,0h96c17.673,0 32,14.327 32,32v56v0h-160v0v-56c1.06581e-14,-17.673 14.327,-32 32,-32Z" transform="translate(20.01, 376.021)"></path><g fill="#FDC9A6"><use transform="translate(20.01, 424.021)" xlink:href="#path-1"></use><use transform="translate(148.01, 424.021)" xlink:href="#path-1"></use></g><path fill="#EA6B65" d="M32,0h96c17.673,0 32,14.327 32,32v56v0h-160v0v-56c0,-17.673 14.327,-32 32,-32Z" transform="translate(292.01, 376.021)"></path><g fill="#F9D7C0"><use transform="translate(292.01, 424.021)" xlink:href="#path-1"></use><use transform="translate(420.01, 424.021)" xlink:href="#path-1"></use></g><path fill="#683F2B" d="M104.347,9.687c-14.534,-9.687 -33.466,-9.687 -48,0l-9.8,-1.6c-21.292,-3.545 -41.557,10.442 -45.792,31.608c-0.618,3.293 -0.755,6.659 -0.408,9.992l24,40v-32l32,-16c18.364,13.769 44.058,11.941 60.288,-4.288l11.712,-11.712l-24,-16Z" transform="translate(43.663, 238.334)"></path><g fill="#F3AF3E"><use transform="translate(156.01, 168.021)" xlink:href="#path-2"></use><use transform="translate(228.01, 224.021)" xlink:href="#path-2"></use><use transform="translate(428.01, 184.021)" xlink:href="#path-2"></use><path d="M1.77636e-15,0h16v16h-16v-16Z" transform="translate(12.01, 192.021)"></path></g><path fill="#B3E4E8" d="M262.222,0.264h-208c-30.233,0.878 -54.222,25.755 -54,56v24c0,35.346 28.654,64 64,64v40l56,-40h136c35.346,0 64,-28.654 64,-64v-24c-0.245,-31.183 -25.722,-56.264 -56.905,-56.019c-0.365,0.003 -0.73,0.009 -1.095,0.019Z" transform="translate(27.788, -0.243)"></path><path fill="#8ACED8" d="M184,0h-136c-26.51,0 -48,21.49 -48,48v48c0,26.51 21.49,48 48,48l56,40v-40h80c26.51,0 48,-21.49 48,-48v-48c0,-26.51 -21.49,-48 -48,-48Z" transform="translate(188.01, 32.021)"></path><path fill="#6FBBC6" d="M0,48v48c0.01,5.454 0.955,10.865 2.792,16h93.208c35.346,0 64,-28.654 64,-64v-24c-0.003,-8.313 -1.884,-16.517 -5.504,-24h-106.496c-26.509,-1.42109e-14 -48,21.49 -48,48Z" transform="translate(188.01, 32.021)"></path><path fill="#B94137" d="M24.725,56.725c-2.122,0 -4.156,-0.844 -5.656,-2.344l-16,-16c-3.069,-3.178 -2.982,-8.243 0.196,-11.312c3.1,-2.994 8.015,-2.994 11.116,0l10.344,10.344l34.344,-34.344c3.178,-3.069 8.242,-2.982 11.312,0.196c2.994,3.1 2.994,8.015 0,11.116l-40,40c-1.499,1.5 -3.534,2.344 -5.656,2.344Z" transform="translate(227.285, 63.296)"></path><path fill="#F9D7C0" d="M32.728,88c-17.673,0 -32,-14.327 -32,-32l-0.728,-38.984l56.728,-17.016l8,6v50c0,17.673 -14.326,32 -32,32Z" transform="translate(339.282, 272.021)"></path><path fill="#EA9D2D" d="M112,80l-32,-24l-80,24v-24c0,-30.928 25.072,-56 56,-56c30.928,0 56,25.072 56,56v24Z" transform="translate(316.01, 224.021)"></path></g></g><defs><path id="path-1" d="M0,0h32v40h-32v-40Z"></path><path id="path-2" d="M0,0h16v16h-16v-16Z"></path></defs></svg>