<?xml version="1.0" encoding="UTF-8"?><svg width="153" height="153" version="1.1" viewBox="0 0 153 153" xmlns="http://www.w3.org/2000/svg" xmlns:xlink="http://www.w3.org/1999/xlink"><!--Generated by IJSVG (https://github.com/curthard89/IJSVG)--><g transform="scale(0.999543)"><g fill="#42A5F5"><path d="M143.19,34.81v-11.14l-23.66,-23.67h-70.15v34.56h-37l1.34692e-07,2.17995e-10c-6.82623,-0.011048 -12.3689,5.51375 -12.38,12.34c-5.40578e-06,0.00334007 -9.45766e-06,0.00668015 -1.21557e-05,0.0100202v79l-3.47617e-07,-0.000440048c0.00526184,6.81453 5.52504,12.3392 12.3396,12.3504h29.6604v9.87h-9.9v4.94h88.9v-4.94h-9.9v-9.87h29.63l-6.41403e-07,1.03765e-09c6.81453,-0.0110242 12.3345,-5.53547 12.34,-12.35v-79l6.25368e-08,3.10435e-05c-0.0118062,-5.8643 -4.13647,-10.9158 -9.87997,-12.1Zm-24.68,-28.81l18.72,18.73h-18.72Zm-64.2,-1h59.26v24.63h24.69v79h-83.95Zm51.85,143.19h-59.25v-9.87h59.25Zm42,-22.22l3.04112e-12,6.74764e-06c0,4.08853 -3.31148,7.40448 -7.40001,7.40999h-128.42l2.60872e-07,3.5206e-10c-4.08852,-0.00551744 -7.4,-3.32147 -7.4,-7.41v-2.47h143.19Zm0,-7.4h-143.22v-71.66l-6.84063e-08,5.10251e-05c0.00546415,-4.08625 3.31371,-7.39901 7.39995,-7.41005h37v74.07h93.81v-73.57l-4.38626e-07,-1.5366e-07c2.9538,1.03478 4.93365,3.8202 4.94,6.95Z" transform="translate(-3.47508e-07, 0)"></path><path d="M34.56,17.28v0c0,-9.54348 -7.73652,-17.28 -17.28,-17.28c-9.54348,0 -17.28,7.73652 -17.28,17.28c0,9.54348 7.73652,17.28 17.28,17.28l8.61331e-07,-9.95215e-10c9.53891,-0.0110218 17.269,-7.74109 17.28,-17.28Zm-14.81,-4.94l7.33796e-08,1.81411e-05c0.00551283,1.36413 -1.09587,2.47445 -2.46,2.47996c-1.36413,0.00551283 -2.47445,-1.09587 -2.47996,-2.46c-0.00551283,-1.36413 1.09587,-2.47445 2.46,-2.47996c0.00332657,-1.34436e-05 0.00665316,-2.01668e-05 0.00997976,-2.01696e-05l-6.73204e-08,5.68434e-14c1.36024,-1.19453e-06 2.46447,1.09977 2.46998,2.46Zm-2.47,17.29l-2.78557e-07,-3.39071e-11c-1.6646,-0.000202676 -3.31162,-0.340494 -4.84,-1l1.53765e-07,-7.3384e-07c0.559521,-2.6703 3.17781,-4.38142 5.8481,-3.8219c1.91974,0.402252 3.41965,1.90216 3.8219,3.8219l-1.51861e-07,6.56813e-08c-1.52487,0.659521 -3.16862,0.999843 -4.83,0.999999Zm0,-9.88l8.71578e-08,-2.63938e-10c-3.90338,0.0118207 -7.43232,2.32524 -9,5.9l-2.85278e-07,-3.02521e-07c-4.6378,-4.91812 -4.41056,-12.6647 0.507567,-17.3025c1.92676,-1.81694 4.39086,-2.95995 7.02243,-3.25747l-6.2983e-07,1.30375e-07c-4.00206,0.828427 -6.57481,4.74431 -5.74638,8.74638c0.828427,4.00206 4.74431,6.57481 8.74638,5.74638c4.00206,-0.828427 6.57481,-4.74431 5.74638,-8.74638c-0.598221,-2.88996 -2.85642,-5.14816 -5.74638,-5.74638l9.63941e-07,1.10571e-07c6.72141,0.770996 11.5452,6.84479 10.7742,13.5662c-0.300495,2.61966 -1.43826,5.07245 -3.24418,6.99379l-1.04742e-07,-2.38844e-07c-1.57642,-3.5947 -5.13484,-5.912 -9.06,-5.9Z" transform="translate(9.88, 44.44)"></path><path d="M4.94,2.47v0c0,1.36414 -1.10586,2.47 -2.47,2.47c-1.36414,0 -2.47,-1.10586 -2.47,-2.47c0,-1.36414 1.10586,-2.47 2.47,-2.47c0,0 3.55271e-15,0 3.55271e-15,0l1.2779e-07,5.14262e-10c1.36187,0.00548049 2.46452,1.10813 2.47,2.47Z" transform="translate(24.69, 88.88)"></path><path d="M24.69,4.73v-4.73h-24.69v24.69h24.69v-13.9l8.84,-6.31l-2.87,-4Zm-4.94,3.53l-4.67,3.33l-3.46,-3.46l-3.49,3.49l6.42,6.42l5.2,-3.72v5.43h-14.81v-14.81h14.81Z" transform="translate(64.19, 14.81)"></path><path d="M24.69,4.73v-4.73h-24.69v24.69h24.69v-13.9l8.84,-6.31l-2.87,-4Zm-4.94,3.52l-4.67,3.31l-3.46,-3.46l-3.49,3.49l6.42,6.42l5.2,-3.72v5.43h-14.81v-14.78h14.81Z" transform="translate(64.19, 44.44)"></path><path d="M24.69,4.72v-4.72h-24.69v24.68h24.69v-13.89l8.84,-6.32l-2.87,-4Zm-4.94,3.53l-4.67,3.34l-3.46,-3.46l-3.49,3.49l6.42,6.41l5.2,-3.71v5.43h-14.81v-14.82h14.81Z" transform="translate(64.19, 74.07)"></path><use transform="translate(98.75, 34.56)" xlink:href="#path-1"></use><use transform="translate(98.75, 64.19)" xlink:href="#path-1"></use><use transform="translate(98.75, 93.82)" xlink:href="#path-1"></use><use transform="translate(98.75, 83.94)" xlink:href="#path-1"></use><use transform="translate(98.75, 54.32)" xlink:href="#path-1"></use><path d="M0,0h9.88v4.94h-9.88Z" transform="translate(98.75, 24.69)"></path></g></g><defs><path id="path-1" d="M0,0h29.63v4.94h-29.63Z"></path></defs></svg>