<?xml version="1.0" encoding="UTF-8"?><svg width="153" height="153" version="1.1" viewBox="0 0 153 153" xmlns="http://www.w3.org/2000/svg" xmlns:xlink="http://www.w3.org/1999/xlink"><!--Generated by IJSVG (https://github.com/curthard89/IJSVG)--><g transform="scale(0.999543)"><g fill="#42A5F5"><path d="M56.78,5.12728e-10h-49.37l3.80708e-07,-5.12728e-10c-4.09015,0.00550841 -7.40449,3.31985 -7.41,7.41v79l8.52651e-14,1.11888e-06c6.1794e-07,4.09243 3.31757,7.41 7.41,7.41h49.37l-3.23901e-07,-2.84217e-14c4.09243,1.78886e-07 7.41,-3.31757 7.41,-7.41v-79l9.55601e-08,7.12065e-05c-0.0054694,-4.09015 -3.31978,-7.40452 -7.40993,-7.41007Zm2.47,86.41v-2.84217e-14c0,1.36414 -1.10586,2.47 -2.47,2.47h-49.37h-1.07967e-07c-1.36414,-5.96286e-08 -2.47,-1.10586 -2.47,-2.47c0,0 0,0 0,0v-79l2.84217e-14,-3.7296e-07c2.0598e-07,-1.36414 1.10586,-2.47 2.47,-2.47h49.37h-1.07967e-07c1.36414,-5.96286e-08 2.47,1.10586 2.47,2.47Z" transform="translate(5.12749e-10, 59.25)"></path><path d="M19.75,9.73429l2.90032e-07,9.11308e-06c-0.17357,-5.45381 -4.73546,-9.73429 -10.1893,-9.56072c-5.21001,0.165811 -9.3949,4.3507 -9.56072,9.56071l-2.63621e-07,-5.85206e-05c0.00783033,1.73939 0.480838,3.44502 1.36997,4.94001l-6.12361e-07,1.03157e-06c-0.887792,1.49556 -1.36071,3.20081 -1.37,4.94l-2.68334e-07,-8.43132e-06c0.17357,5.45381 4.73546,9.73429 10.1893,9.56072c5.21001,-0.165811 9.3949,-4.3507 9.56072,-9.56071l-2.15495e-08,3.97947e-06c0.00938868,-1.73371 -0.442736,-3.4387 -1.30997,-4.93995l2.59717e-07,-4.48721e-07c0.8686,-1.50071 1.32084,-3.20609 1.31,-4.94Zm-9.87,14.82l2.63881e-07,3.14799e-09c-2.71476,-0.0323861 -4.90761,-2.22524 -4.94,-4.94l-1.11934e-07,-3.76373e-05c-0.00125296,-0.421852 0.0525375,-0.842064 0.160009,-1.25l-1.46628e-07,-7.96861e-08c2.97768,1.61824 6.57232,1.61824 9.55,1.59372e-07l-2.47717e-08,-8.68935e-08c0.115872,0.406452 0.173116,0.827366 0.17,1.25l9.54347e-08,-8.00499e-06c-0.0323631,2.71478 -2.22523,4.90766 -4.94,4.94004Zm3.65,-11.53l2.32883e-07,-2.48745e-07c-1.88729,2.01584 -5.0514,2.12005 -7.06724,0.232765c-0.0801218,-0.0750123 -0.157752,-0.152642 -0.232764,-0.232764l8.70991e-08,9.41391e-08c-0.828449,-0.895411 -1.28905,-2.07013 -1.29,-3.29l5.68434e-14,7.45919e-07c-4.1196e-07,-2.72829 2.21171,-4.94 4.94,-4.94c2.72829,-4.1196e-07 4.94,2.21171 4.94,4.94c0,0 0,1.42109e-14 0,1.42109e-14l1.85181e-08,-2.39096e-05c-0.000941791,1.21987 -0.461539,2.39459 -1.28998,3.29001Z" transform="translate(34.56, 113.706)"></path><path d="M0,0h4.94v32.09h-4.94Z" transform="translate(49.38, 69.13)"></path><path d="M0,0h4.94v17.28h-4.94Z" transform="translate(39.5, 69.13)"></path><path d="M0,0v24.69h24.68v-24.69Zm19.75,9.87h-4.94v4.94h4.94v4.94h-14.82v-4.94h4.94v-4.94h-4.94v-4.93h14.82Z" transform="translate(9.88, 69.13)"></path><path d="M0,0v153.07h83.94v-153.07Zm79,148.13h-74.06v-143.19h74.06Z" transform="translate(69.13, 0)"></path><path d="M0,0v17.28h4.94v-12.35h12.35v-4.93h-17.29Z" transform="translate(79, 9.88)"></path><path d="M0,0v4.93h12.35v12.35h4.93v-17.28h-17.28Z" transform="translate(125.91, 9.88)"></path><path d="M4.94,12.35v-12.35h-4.94v17.28h17.29v-4.93h-12.35Z" transform="translate(79, 125.91)"></path><path d="M12.35,0v12.35h-12.35v4.93h17.28v-17.28h-4.93Z" transform="translate(125.91, 125.91)"></path><path d="M55.95,14.81h-19.72l-2.19308e-07,-1.57829e-11c-2.73816,-0.000197035 -4.96714,2.20204 -5,4.94v17.25h8.25l-13.15,11.57l-13.19,-11.57h8.25v-19.72l-3.63674e-07,0.000459899c0.00526059,-6.81291 5.52663,-12.3347 12.3395,-12.3405h14.8105v-4.94h-14.81l-3.11425e-07,3.59826e-10c-9.53891,0.0110215 -17.269,7.74109 -17.28,17.28v14.82h-16.45l26.33,23l26.32,-23h-16.42v-12.35h22.19v-4.94Z" transform="translate(5.77, 0)"></path><path d="M39.12,8.47038l1.26852e-07,5.02306e-07c-1.33199,-5.27441 -6.68754,-8.47038 -11.962,-7.13839c-4.39481,1.10986 -7.46483,5.07568 -7.43804,9.60839v0c0,2.72829 -2.21171,4.94 -4.94,4.94c-2.72829,0 -4.94,-2.21171 -4.94,-4.94c0,-2.72829 2.21171,-4.94 4.94,-4.94c0,0 1.42109e-14,0 1.42109e-14,0v-4.94l4.59617e-07,-1.07366e-09c-4.49166,0.0104923 -8.40735,3.05831 -9.52,7.41h-5.26v4.93h5.29l-1.51848e-07,-6.01227e-07c1.33211,5.27438 6.68774,8.47023 11.9621,7.13811c4.39101,-1.10901 7.45995,-5.06928 7.43788,-9.59811l-1.1143e-07,-5.51986e-05c-0.00549236,-2.72828 2.20176,-4.94444 4.93005,-4.94993c2.72828,-0.00549236 4.94444,2.20176 4.94993,4.93005c0.00549236,2.72828 -2.20176,4.94444 -4.93005,4.94993c-0.00332996,6.70361e-06 -0.00665992,1.00402e-05 -0.00998988,1.00098e-05v4.94l3.63778e-07,-1.95683e-09c4.4805,-0.0241015 8.38021,-3.06907 9.49005,-7.41h5.29v-4.93Z" transform="translate(88.88, 65.5996)"></path><use transform="translate(108.63, 54.32)" xlink:href="#path-1"></use><use transform="translate(108.63, 93.82)" xlink:href="#path-1"></use><path d="M61.8118,17.0137l-4,2.89l-5.02179e-07,-6.93436e-07c8.79161,12.1399 6.07726,29.1083 -6.06267,37.8999c-12.1399,8.79161 -29.1083,6.07726 -37.8999,-6.06267c-8.79161,-12.1399 -6.07726,-29.1083 6.06267,-37.8999c10.2932,-7.45419 24.3807,-6.76741 33.8999,1.65267l3.3,-3.68l5.44638e-07,4.87302e-07c-13.2037,-11.8137 -33.4844,-10.6869 -45.2981,2.51681c-11.8137,13.2037 -10.6869,33.4844 2.51681,45.2981c13.2037,11.8137 33.4844,10.6869 45.2981,-2.51681c10.0287,-11.2087 10.9239,-27.8799 2.15319,-40.0981Z" transform="translate(75.3582, 40.7963)"></path><use transform="translate(59.25, 0)" xlink:href="#path-1"></use></g></g><defs><path id="path-1" d="M0,0h4.94v4.94h-4.94Z"></path></defs></svg>