<?xml version="1.0" encoding="UTF-8"?><svg width="422" height="340" viewBox="0 0 422 340" xmlns="http://www.w3.org/2000/svg" xmlns:xlink="http://www.w3.org/1999/xlink"><svg width="85" height="76.76" viewBox="-68 -68 289 261" id="benefits-1" x="85" xmlns="http://www.w3.org/2000/svg"><g fill="#42A5F5" transform="scale(.99954)"><path d="M131.38 31.87H12.88C5.773 31.876.011 37.633 0 44.74v67c.022 7.1 5.779 12.849 12.88 12.86h118.5c7.109-.011 12.869-5.771 12.88-12.88v-67c-.022-7.1-5.78-12.845-12.88-12.85zm7.72 79.85a7.73 7.73 0 0 1-7.72 7.73H12.88a7.74 7.74 0 0 1-7.73-7.73v-67A7.74 7.74 0 0 1 12.88 37h118.5a7.73 7.73 0 0 1 7.72 7.73z"/><path d="M41.22 44.74H15.46a2.58 2.58 0 0 0-2.58 2.58v20.61a2.57 2.57 0 0 0 2.58 2.57h25.76a2.57 2.57 0 0 0 2.57-2.57V47.32a2.58 2.58 0 0 0-2.57-2.58zm-2.58 20.61H18V49.9h20.64z"/><use transform="translate(15.46 55.05)" xlink:href="#apath-1"/><use transform="translate(33.49 55.05)" xlink:href="#apath-1"/><use transform="translate(12.88 85.96)" xlink:href="#apath-2"/><use transform="translate(38.64 85.96)" xlink:href="#apath-2"/><use transform="translate(64.4 85.96)" xlink:href="#apath-2"/><path d="M12.88 101.42h66.98v5.15H12.88zM142.22 18.94L25.21.16C18.186-.956 11.586 3.828 10.46 10.85L6.32 36.61l5.08.82 4.15-25.76a7.75 7.75 0 0 1 8.85-6.42L141.4 24a7.73 7.73 0 0 1 6.42 8.83l-8.69 55.23 5.1.8 8.67-55.21c1.086-7.005-3.683-13.574-10.68-14.71z"/><use transform="translate(92.74 47.32)" xlink:href="#apath-3"/><use transform="translate(103.04 47.32)" xlink:href="#apath-3"/><use transform="translate(113.34 47.32)" xlink:href="#apath-3"/><use transform="translate(123.65 47.32)" xlink:href="#apath-3"/><path d="M141.252 43.406l.864-5.077 7.729 1.314-.864 5.077zM12.445 21.522l.87-5.076 90.154 15.46-.87 5.075z"/></g><defs><path id="apath-2" d="M0 0h15.46v5.15H0z"/><path id="apath-3" d="M0 0h5.15v10.3H0z"/><path id="apath-1" d="M0 0h7.73v5.15H0z"/></defs></svg><svg viewBox="-36.89 -36.89 140.78 156.78" width="76.33" height="85" id="benefits-10" x="162.65" y="169.41" xmlns="http://www.w3.org/2000/svg"><g fill="#F4D930" fill-rule="evenodd"><path d="M58.46 41.87c-1.149 1.073-2.28 1.92-3.357 2.513-1.185.65-2.28.98-3.254.98-.818 0-1.597-.242-2.35-.735.254-.372.571-.779.96-1.18 1.62-1.674 3.747-2.52 6.319-2.52.767 0 1.574.073 2.42.222-.233.24-.48.48-.738.72m-10.248-6.364c-.176-1.411.1-2.92.82-4.519l.002.004c1.202 2.446 1.662 4.605 1.298 6.08-.106.434-.315.99-.883 1.55-.683-.96-1.1-2.007-1.237-3.115m-8.634 11.539c-.372.56-.852.923-1.355 1.16-.246-.872-.401-2.025-.135-3.289.3-1.414 1.073-2.77 2.312-4.056.25 2.194.192 4.66-.822 6.185m-11.447 1.314a3.275 3.275 0 0 1-1.445-1.036c-1.135-1.426-1.405-3.86-1.352-6.056 1.315 1.147 2.192 2.4 2.62 3.75.337 1.063.396 2.185.177 3.342m-9.35-12.853c-.138 1.108-.555 2.154-1.238 3.115a3.153 3.153 0 0 1-.883-1.543c-.36-1.456.084-3.584 1.255-5.997l.045-.094c.72 1.597.996 3.108.82 4.519m-3.637 9.858c-1.858 0-4.12-1.186-6.54-3.427a25.048 25.048 0 0 1-.81-.787c.847-.149 1.654-.225 2.42-.225 2.573 0 4.699.849 6.32 2.523.387.4.706.808.959 1.18-.752.493-1.531.736-2.35.736M9.233 31.77c-.72 0-1.439-.289-2.201-.886-.765-.599-1.524-1.472-2.26-2.598a28.537 28.537 0 0 1-.288-.46c1.985.4 3.478 1.286 4.453 2.65.305.427.53.862.7 1.263-.138.02-.273.03-.404.03M7.626 17.578c-.606-.702-1.027-1.906-1.219-3.451.642.623 1.112 1.296 1.405 2.018.274.676.366 1.333.368 1.908a2.178 2.178 0 0 1-.554-.475m5.338-10.304c.245-.751.93-1.577 1.97-2.389a5.268 5.268 0 0 1-.887 1.66c-.358.442-.76.775-1.16 1.025.021-.108.048-.206.077-.296m-.792 14.69c.324-1.345 1.58-2.903 3.552-4.394-.119 1.543-.538 2.847-1.258 3.895a6.364 6.364 0 0 1-2.265 2.01 2.87 2.87 0 0 1-.029-1.51m42.619 1.51a6.363 6.363 0 0 1-2.266-2.01c-.72-1.048-1.138-2.35-1.257-3.895 1.969 1.49 3.224 3.043 3.55 4.388a2.87 2.87 0 0 1-.027 1.516M52.945 6.544a5.328 5.328 0 0 1-.89-1.66c1.039.81 1.726 1.633 1.971 2.384.03.092.057.191.078.3a4.687 4.687 0 0 1-1.16-1.024m5.112 23.933c.975-1.364 2.467-2.25 4.452-2.65-.094.155-.19.307-.288.46-.736 1.126-1.494 2-2.26 2.598-.762.597-1.481.886-2.201.886-.13 0-.266-.01-.403-.031.168-.4.395-.836.7-1.263m1.124-14.333c.292-.722.763-1.395 1.405-2.018-.19 1.542-.612 2.743-1.215 3.447-.139.161-.313.334-.558.48a5.104 5.104 0 0 1 .368-1.909m-5.526 22.363a31.199 31.199 0 0 0 2.157-4.28 6.016 6.016 0 0 0 1.948.334c5.982 0 9.233-9.69 9.233-9.69a21.971 21.971 0 0 0-1.82-.077c-3.324 0-5.653.83-7.282 1.974.292-1.834.45-3.725.468-5.653C64.982 20.06 63.304 9.21 63.304 9.21c-2.78 1.159-4.543 2.57-5.635 4.01-.374-2.05-.789-3.52-.936-4.012C58.346 3.445 48.968 0 48.968 0c-.828 7.453 2.989 9.909 5.273 10.706.206.704.913 3.296 1.204 6.9-2.625-2.947-6.606-4.785-6.606-4.785-1.946 10.054 3.848 13.02 6.246 13.804a30.228 30.228 0 0 1-2.1 7.115c-.913-4.155-3.919-8.028-3.919-8.028-6.464 8.166-2.878 13.625-.985 15.635a31.658 31.658 0 0 1-5.064 4.518c.997-4.463-.804-9.965-.804-9.965-8.435 5.265-7.425 11.29-6.354 14.031-.764.344-1.554.669-2.363.981a48.744 48.744 0 0 1-2.82-1.187c.798-2.88 1.109-8.822-7.578-13.242 0 0-1.04 4.45-.297 8.497a30.944 30.944 0 0 1-3.89-3.633c1.893-2.01 5.477-7.469-.986-15.635 0 0-3.005 3.873-3.919 8.025a30.124 30.124 0 0 1-2.1-7.112c2.4-.784 8.193-3.75 6.248-13.804 0 0-3.982 1.838-6.607 4.786.29-3.59.997-6.193 1.206-6.901 2.284-.799 6.098-3.253 5.27-10.706 0 0-9.387 3.448-7.762 9.216-.15.501-.564 1.966-.936 4.006C8.23 11.78 6.469 10.368 3.688 9.21c0 0-1.678 10.85 4.946 11.905a38.25 38.25 0 0 0 .468 5.653c-1.63-1.144-3.958-1.974-7.282-1.974-.575 0-1.182.025-1.82.078 0 0 3.25 9.69 9.233 9.69.619 0 1.27-.105 1.948-.336a31.178 31.178 0 0 0 2.157 4.281 12.664 12.664 0 0 0-3.124-.372c-2.065 0-4.494.437-7.338 1.53 0 0 5.91 8.49 12.267 8.49 1.605 0 3.236-.542 4.81-1.897 2.724 2.332 5.92 4.338 9.577 6.014-2.79.845-5.798 1.538-9.02 2.08l.462 2.751c4.581-.768 8.758-1.84 12.524-3.21 3.766 1.37 7.943 2.442 12.524 3.21l.462-2.752c-3.222-.541-6.229-1.234-9.02-2.079 3.658-1.676 6.853-3.682 9.576-6.014 1.573 1.355 3.206 1.897 4.811 1.897 6.356 0 12.266-8.49 12.266-8.49-2.843-1.093-5.272-1.53-7.337-1.53-1.151 0-2.19.135-3.124.372"/><path d="M44.544 25.703l-11.107-6.194-10.693 6.187v5.158l10.734-6.21 11.066 6.17z"/><path d="M44.544 16.486l-11.107-6.194-10.693 6.187v5.159l10.734-6.211 11.066 6.17z"/><path d="M44.544 7.269L33.437 1.075 22.744 7.262v5.159L33.478 6.21l11.066 6.17zM16.277 82.234c-3.51 0-6.39-2.448-6.39-6.228 0-3.798 2.88-6.21 6.39-6.21 2.502 0 4.068 1.26 4.968 2.682L19.12 73.63c-.54-.846-1.566-1.566-2.844-1.566-2.178 0-3.762 1.674-3.762 3.942 0 2.268 1.584 3.942 3.762 3.942 1.062 0 2.07-.468 2.556-.918v-1.44h-3.168v-2.232h5.724v4.608c-1.224 1.368-2.934 2.268-5.112 2.268zm12.748-.018c-3.618 0-6.264-2.592-6.264-6.21s2.646-6.21 6.264-6.21c3.636 0 6.282 2.592 6.282 6.21s-2.646 6.21-6.282 6.21zm0-2.268c2.214 0 3.654-1.71 3.654-3.942 0-2.25-1.44-3.942-3.654-3.942s-3.636 1.692-3.636 3.942c0 2.232 1.422 3.942 3.636 3.942zM44.653 82h-7.632V69.994h2.556v9.756h5.076V82zm6.43 0H46.35V69.994h4.734c3.762 0 6.372 2.394 6.372 6.012 0 3.618-2.61 5.994-6.372 5.994zm0-2.25c2.377 0 3.763-1.71 3.763-3.744 0-2.124-1.296-3.762-3.762-3.762h-2.178v7.506h2.178z"/></g></svg><svg width="85" height="84.41" viewBox="-68 -68 289 287" id="benefits-11" y="85" xmlns="http://www.w3.org/2000/svg"><g fill="#42A5F5" transform="scale(.99954)"><path d="M148.13 52.26V19.12l1.25.71 2.45-4.28L133.32 5l-18.51 10.55 2.45 4.28 1.25-.71v23.26h4.93V16.3l9.88-5.64 9.87 5.64v36H9.88v-31l9.87-5.64 9.88 5.64v16.2h4.93V24.06l1.25.71 2.45-4.28L19.75 9.91 1.24 20.49l2.45 4.28 1.25-.71v28.2H0v79h153.07v-79zM4.94 57.19h9.62a12.38 12.38 0 0 1-9.62 9.63zm0 69.13v-9.62a12.35 12.35 0 0 1 9.62 9.62zm143.19 0h-9.62a12.35 12.35 0 0 1 9.62-9.62zm0-14.61a17.28 17.28 0 0 0-14.61 14.61h-114a17.29 17.29 0 0 0-14.58-14.61v-39.9a17.29 17.29 0 0 0 14.61-14.62h114a17.28 17.28 0 0 0 14.61 14.62zm0-44.89a12.38 12.38 0 0 1-9.62-9.63h9.62z"/><path d="M76.53 62.13c-16.364 0-29.63 13.266-29.63 29.63 0 16.364 13.266 29.63 29.63 29.63 16.364 0 29.63-13.266 29.63-29.63v.001c-.016-16.357-13.272-29.614-29.629-29.631zm0 54.32c-13.636 0-24.69-11.054-24.69-24.69 0-13.636 11.054-24.69 24.69-24.69 13.636 0 24.69 11.054 24.69 24.69-.01 13.63-11.058 24.678-24.69 24.69z"/><use transform="translate(0 136.2)" xlink:href="#cpath-1"/><use transform="translate(0 146.07)" xlink:href="#cpath-1"/><use transform="translate(130.85 42.38)" xlink:href="#cpath-2"/><path d="M130.85 17.69h4.94v19.75h-4.94zM17.28 22.63h4.94v24.69h-4.94zM61.72 14.64v27.74h4.94v-30.7l9.87-5.92 9.88 5.92v30.7h4.94V14.64l8.6 5.17 2.55-4.23L76.53 0 50.58 15.58l2.54 4.23 8.6-5.17z"/><path d="M74.07 12.75h4.94v34.56h-4.94z"/><use transform="translate(29.63 42.38)" xlink:href="#cpath-2"/><path d="M80.24 77H79v-5h-4.93v5h-1.24a8.64 8.64 0 0 0 0 17.28h7.41a3.7 3.7 0 0 1 0 7.4h-7.41a3.7 3.7 0 0 1-3.7-3.7V96.7h-4.94v1.23a8.65 8.65 0 0 0 8.64 8.64h1.24v4.94H79v-4.94h1.24a8.64 8.64 0 0 0 0-17.28h-7.41a3.71 3.71 0 0 1 0-7.41h7.41a3.71 3.71 0 0 1 3.7 3.71v1.23h4.94v-1.23A8.65 8.65 0 0 0 80.24 77z"/></g><defs><path id="cpath-1" d="M0 0h153.07v4.94H0z"/><path id="cpath-2" d="M0 0h4.94v4.94H0z"/></defs></svg><svg width="85" height="85" viewBox="-68 -68 289 289" id="benefits-12" x="170" xmlns="http://www.w3.org/2000/svg"><g fill="#42A5F5" transform="scale(.99954)"><path d="M106.43 107l-15.07-3.48v-6.3a22.49 22.49 0 0 0 7.13-12.77A27.65 27.65 0 0 0 108.88 63v-9.53a8.05 8.05 0 0 0-6.47-7.88 30.1 30.1 0 0 0-30.84-14.8 27.72 27.72 0 0 0-5.25 1.35V11.48l10-5.72 10 5.72v16.43h5V14.35l1.26.72 2.48-4.35L76.34 0 57.57 10.72l2.49 4.35 1.26-.72v20.14c-14.315 8.199-19.273 26.45-11.074 40.765a29.87 29.87 0 0 0 3.564 4.965v.26-.004a22.42 22.42 0 0 0 7.507 16.742v6.3L46.24 107a22.42 22.42 0 0 0-17.46 22v24.12h95.12V129a22.43 22.43 0 0 0-17.47-22zm-11.55 2.47l-6.79 10.19-7.38-4.43 8.76-7zm-18.54 2.84l-10-8v-3.67a22.26 22.26 0 0 0 20 0v3.67zM53.81 61.67v9.6c-5.942-12.463-.655-27.383 11.808-33.325 12.2-5.816 26.812-.884 32.992 11.135l.7 1.36h1.53a3 3 0 0 1 3 3V63a22.62 22.62 0 0 1-5 14.12v-15.4l-3.46 1.43c-.06 0-5.74 2.31-19 2.31s-19-2.28-19-2.3zm5 18.81V68.8a78.39 78.39 0 0 0 17.53 1.67 78.28 78.28 0 0 0 17.52-1.67v11.68c-.566 9.665-8.86 17.041-18.525 16.475-8.875-.52-15.955-7.6-16.475-16.475zm4.39 27.74l8.76 7-7.38 4.43-6.79-10.19zm3.39 39.84H48.8v-12.51h-5v12.51h-10V129a17.44 17.44 0 0 1 13.58-17.07l5.21-1.2 10.49 15.73 3-1.79 2.7 4zm14.46 0h-9.43l2.3-20.65-3.58-5.41 6-3.6 6 3.6-3.58 5.37zm37.84 0h-10v-12.51h-5v12.51h-17.8l-2.16-19.39 2.7-4 3 1.79 10.49-15.73 5.21 1.2A17.44 17.44 0 0 1 118.89 129v19.11z"/><use transform="translate(28.78 108.01)" xlink:href="#dpath-1"/><path d="M28.78 11.48v91.53h5V14.35l1.26.72 2.49-4.35L18.76 0 0 10.72l2.48 4.35 1.27-.72v138.72h5V11.48l10.01-5.72 10.02 5.72z"/><path d="M16.26 12.89h5.01v120.15h-5.01z"/><use transform="translate(143.92 148.06)" xlink:href="#dpath-1"/><use transform="translate(118.89 103.01)" xlink:href="#dpath-1"/><path d="M133.91 27.54l-18.77 10.72 2.49 4.34 1.26-.72V98h5V39.02l10.02-5.72 10.01 5.72v104.04h5.01V41.88l1.26.72 2.48-4.34-18.76-10.72z"/><path d="M131.41 40.43h5.01v92.62h-5.01zM73.83 12.89h5.01v12.52h-5.01z"/><use transform="translate(16.26 138.05)" xlink:href="#dpath-1"/><use transform="translate(16.26 148.06)" xlink:href="#dpath-1"/><path d="M131.41 138.05h5.01v15.02h-5.01z"/></g><defs><path id="dpath-1" d="M0 0h5.01v5.01H0z"/></defs></svg><svg width="77.65" height="85" viewBox="-68 -68 264 289" id="benefits-2" y="169.41" xmlns="http://www.w3.org/2000/svg"><g fill="#42A5F5" transform="scale(.99954)"><path d="M119.9 0H53.57a7.66 7.66 0 0 0-7.65 7.65V37L20 57a12.67 12.67 0 0 0-5.58 7.69L.69 119.39A22.86 22.86 0 0 0 0 125v28.1h5.1v-28.105c0-1.463.182-2.921.541-4.34l13.69-54.775a7.6 7.6 0 0 1 3.41-4.65l.22-.15 23-17.63v32l-9.46 9.46 3.61 3.6 33.03-33.04a6.48 6.48 0 0 1 11 4.57v.4a6.45 6.45 0 0 1-1.511 4.16l-20.79 23a2.53 2.53 0 0 0-.63 2.1l.24 1.3c2.55 16.61-6.86 31-24 36.74l1.61 4.85a42.79 42.79 0 0 0 19.28-12.63h18.39l-9.6 13.71A27.9 27.9 0 0 1 54 143.81l-11.52 4.32a2.56 2.56 0 0 0-1.65 2.39v2.55h5.1v-.78l9.87-3.7a33.09 33.09 0 0 0 15.52-12L83 119.91h36.9a7.66 7.66 0 0 0 7.66-7.66V7.65A7.66 7.66 0 0 0 119.9 0zm2.56 112.25a2.56 2.56 0 0 1-2.56 2.55H62a36.84 36.84 0 0 0 4.5-24.63v-.07l20-22.1a11.55 11.55 0 0 0 2.79-7.53V60v.002c0-6.39-5.18-11.57-11.57-11.57a11.57 11.57 0 0 0-8.178 3.386L51 70.38V7.65a2.56 2.56 0 0 1 2.57-2.55h66.33a2.56 2.56 0 0 1 2.56 2.55z"/><path d="M56.13 15.31h5.1v38.27h-5.1zM66.33 17.86h5.1v25.51h-5.1zM84.19 76.54h5.1v10.21h-5.1zM84.19 91.84h5.1v12.76h-5.1z"/><use transform="translate(102.05 56.13)" xlink:href="#epath-1"/><use transform="translate(112.25 56.13)" xlink:href="#epath-1"/></g><defs><path id="epath-1" d="M0 0h5.1v51.02H0z"/></defs></svg><svg width="85" height="85" viewBox="-68 -68 289 289" id="benefits-3" x="77.65" y="169.41" xmlns="http://www.w3.org/2000/svg"><g fill="#42A5F5" transform="scale(.99954)"><path d="M56.78 59.25H7.41A7.42 7.42 0 0 0 0 66.66v79a7.41 7.41 0 0 0 7.41 7.41h49.37a7.41 7.41 0 0 0 7.41-7.41v-79a7.42 7.42 0 0 0-7.41-7.41zm2.47 86.41a2.47 2.47 0 0 1-2.47 2.47H7.41a2.47 2.47 0 0 1-2.47-2.47v-79a2.47 2.47 0 0 1 2.47-2.47h49.37a2.47 2.47 0 0 1 2.47 2.47z"/><path d="M54.31 123.44c-.174-5.454-4.735-9.734-10.19-9.56a9.88 9.88 0 0 0-9.56 9.56 9.75 9.75 0 0 0 1.37 4.94 9.78 9.78 0 0 0-1.37 4.94c.174 5.454 4.735 9.735 10.19 9.561a9.88 9.88 0 0 0 9.56-9.56 9.77 9.77 0 0 0-1.31-4.94 9.74 9.74 0 0 0 1.31-4.94zm-9.87 14.82a5 5 0 0 1-4.94-4.94 4.85 4.85 0 0 1 .16-1.25 10 10 0 0 0 9.55 0c.116.407.173.828.17 1.25a5 5 0 0 1-4.94 4.94zm3.65-11.53a5 5 0 0 1-7.3 0 4.85 4.85 0 0 1-1.29-3.29 4.94 4.94 0 1 1 9.88 0 4.85 4.85 0 0 1-1.29 3.29zM49.38 69.13h4.94v32.09h-4.94zM39.5 69.13h4.94v17.28H39.5zM9.88 69.13v24.69h24.68V69.13zM29.63 79h-4.94v4.94h4.94v4.94H14.81v-4.94h4.94V79h-4.94v-4.93h14.82zM69.13 0v153.07h83.94V0zm79 148.13H74.07V4.94h74.06z"/><path d="M79 9.88v17.28h4.94V14.81h12.35V9.88H79zM125.91 9.88v4.93h12.35v12.35h4.93V9.88h-17.28zM83.94 138.26v-12.35H79v17.28h17.29v-4.93H83.94zM138.26 125.91v12.35h-12.35v4.93h17.28v-17.28h-4.93zM61.72 14.81H42a5 5 0 0 0-5 4.94V37h8.25L32.1 48.57 18.91 37h8.25V17.28c.005-6.812 5.527-12.334 12.34-12.34h14.81V0H39.5c-9.539.011-17.269 7.741-17.28 17.28V32.1H5.77l26.33 23 26.32-23H42V19.75h22.19v-4.94zM128 74.07c-1.332-5.274-6.688-8.47-11.962-7.138a9.85 9.85 0 0 0-7.438 9.608 4.94 4.94 0 1 1-4.94-4.94v-4.94a9.85 9.85 0 0 0-9.52 7.41h-5.26V79h5.29a9.85 9.85 0 1 0 19.4-2.46 4.94 4.94 0 1 1 4.94 4.93v4.94A9.85 9.85 0 0 0 128 79h5.29v-4.93z"/><use transform="translate(108.63 54.32)" xlink:href="#fpath-1"/><use transform="translate(108.63 93.82)" xlink:href="#fpath-1"/><path d="M137.17 57.81l-4 2.89c8.792 12.14 6.077 29.108-6.063 37.9-12.14 8.792-29.108 6.077-37.9-6.063-8.791-12.14-6.077-29.108 6.063-37.9 10.293-7.454 24.38-6.767 33.9 1.653l3.3-3.68c-13.204-11.814-33.484-10.687-45.298 2.517-11.814 13.204-10.687 33.484 2.517 45.298 13.203 11.814 33.484 10.687 45.298-2.517 10.029-11.209 10.924-27.88 2.153-40.098z"/><use transform="translate(59.25)" xlink:href="#fpath-1"/></g><defs><path id="fpath-1" d="M0 0h4.94v4.94H0z"/></defs></svg><svg width="85" height="85" viewBox="-68 -68 289 289" id="benefits-4" xmlns="http://www.w3.org/2000/svg"><g fill="#42A5F5"><path d="M119.845 43.35c-5.63-.01-10.19-4.575-10.195-10.205a2.549 2.549 0 0 0-2.549-2.549H25.498a2.549 2.549 0 0 0-2.509 2.549c-.005 5.63-4.565 10.194-10.195 10.205a2.549 2.549 0 0 0-2.559 2.549v20.4a2.549 2.549 0 0 0 2.56 2.55c5.625.01 10.184 4.569 10.195 10.195a2.549 2.549 0 0 0 2.548 2.559h81.603a2.549 2.549 0 0 0 2.549-2.56c.01-5.625 4.569-10.183 10.195-10.194a2.549 2.549 0 0 0 2.549-2.55V45.9a2.549 2.549 0 0 0-2.59-2.549zm-2.549 20.62a15.333 15.333 0 0 0-12.534 12.535H27.797a15.333 15.333 0 0 0-12.494-12.534V48.238a15.333 15.333 0 0 0 12.534-12.534h76.965a15.333 15.333 0 0 0 12.534 12.534z"/><path d="M66.3 43.35c-7.044 0-12.754 5.71-12.754 12.754S59.256 68.86 66.3 68.86s12.754-5.71 12.754-12.755v-.01c-.011-7.037-5.716-12.738-12.754-12.744zm0 20.4a7.656 7.656 0 1 1 7.666-7.656 7.657 7.657 0 0 1-7.666 7.657z"/><path d="M150.45 0H22.99a2.549 2.549 0 0 0-2.55 2.549v7.646h-7.686a2.549 2.549 0 0 0-2.559 2.55V20.4H2.549a2.549 2.549 0 0 0-2.55 2.588v66.26a2.549 2.549 0 0 0 2.55 2.549H130.05a2.549 2.549 0 0 0 2.55-2.549v-7.646h7.646a2.549 2.549 0 0 0 2.548-2.56v-7.646h7.657A2.549 2.549 0 0 0 153 68.85v-66.3A2.549 2.549 0 0 0 150.45 0zm-22.989 79.044V86.7H5.097V25.498h122.404zm10.196-2.549h-5.098V22.989a2.549 2.549 0 0 0-2.549-2.548H15.303v-5.098h122.394zM147.932 66.3h-5.108V12.744a2.549 2.549 0 0 0-2.548-2.549H25.498V5.098h122.434zM151.98 122.944l-30.595-22.99a2.559 2.559 0 0 0-4.089 2v10.195H76.495a2.549 2.549 0 0 0-2.529 2.599v20.4a2.549 2.549 0 0 0 2.549 2.549h40.801v12.754a2.559 2.559 0 0 0 4.188 2l30.576-25.509a2.549 2.549 0 0 0-.1-3.998zm-29.586 22.09v-9.856a2.549 2.549 0 0 0-2.549-2.549H79.054v-15.333h40.791a2.549 2.549 0 0 0 2.549-2.548V107.1l23.99 17.992zM66.3 112.199H56.094a2.549 2.549 0 0 0-2.548 2.549v20.4a2.549 2.549 0 0 0 2.548 2.549H66.3a2.549 2.549 0 0 0 2.549-2.549v-20.4a2.549 2.549 0 0 0-2.55-2.55zm-2.55 20.4h-5.097v-15.303h5.098zM40.801 112.199H30.596a2.549 2.549 0 0 0-2.549 2.549v20.4a2.549 2.549 0 0 0 2.549 2.549h10.205a2.549 2.549 0 0 0 2.55-2.549v-20.4a2.549 2.549 0 0 0-2.55-2.55zm-2.548 20.4h-5.108v-15.303h5.108zM12.754 112.199H2.55A2.549 2.549 0 0 0 0 114.748v20.4a2.549 2.549 0 0 0 2.549 2.549h10.205a2.549 2.549 0 0 0 2.549-2.549v-20.4a2.549 2.549 0 0 0-2.549-2.55zm-2.559 20.4H5.098v-15.303h5.097z"/></g></svg><svg viewBox="-78.67 -78.67 320.9 334.33" width="81.59" height="85" id="benefits-5" x="255" xmlns="http://www.w3.org/2000/svg"><g fill="#42A5F5"><path d="M41.45 65.46a16.81 16.81 0 0 0 10.47 3.67h4.86v2.47a7.42 7.42 0 0 0 7.41 7.4h32.1a7.41 7.41 0 0 0 7.4-7.4V59.25h2.47a7.37 7.37 0 0 0 5.48-12.34 7.29 7.29 0 0 0 0-9.88 7.27 7.27 0 0 0 0-9.87 7.35 7.35 0 0 0 1.93-4.94 7.43 7.43 0 0 0-7.41-7.41h-2.47v-7.4A7.41 7.41 0 0 0 96.29 0h-32.1a7.42 7.42 0 0 0-7.41 7.41v4.93h-4a16.77 16.77 0 0 0-7.49 1.77L34 19.75H0v4.94h35.15l12.31-6.16a11.89 11.89 0 0 1 5.29-1.25h4v36.66l11.29 1.88a4.21 4.21 0 0 1-.69 8.37H51.92a11.84 11.84 0 0 1-7.38-2.59l-9.11-7.28H0v4.93h33.7zm62.24-45.71h2.47a2.47 2.47 0 0 1 0 4.94h-2.47zm0 9.88h2.47a2.47 2.47 0 1 1 0 4.93h-2.47zm0 9.87h2.47a2.47 2.47 0 0 1 0 4.94h-2.47zm0 9.88h2.47a2.47 2.47 0 0 1 0 4.94h-2.47zM93.82 4.94h2.47a2.46 2.46 0 0 1 2.46 2.47V71.6a2.47 2.47 0 0 1-2.46 2.47h-2.47zm-32.1 64.19h5.66A9.15 9.15 0 0 0 68.89 51l-7.17-1.2V7.41a2.47 2.47 0 0 1 2.47-2.47h24.69v69.13H64.19a2.48 2.48 0 0 1-2.47-2.47z"/><path d="M83.94 24.69v-.002a9.49 9.49 0 0 0-.75-3.7 9.57 9.57 0 0 0 .75-3.71c-.174-5.454-4.736-9.734-10.19-9.56a9.88 9.88 0 0 0-9.56 9.56A9.57 9.57 0 0 0 64.94 21a9.49 9.49 0 0 0-.75 3.7c.174 5.454 4.736 9.735 10.19 9.561a9.88 9.88 0 0 0 9.56-9.56zm-5.63-2.46a4.8 4.8 0 0 1 .69 2.46 4.94 4.94 0 1 1-9.87 0 4.8 4.8 0 0 1 .69-2.46l.72-1.23-.72-1.25a4.8 4.8 0 0 1-.69-2.46 4.94 4.94 0 1 1 9.87 0 4.8 4.8 0 0 1-.69 2.46L77.59 21zM122.11 111.54a16.84 16.84 0 0 0-10.46-3.67h-4.87v-2.46a7.41 7.41 0 0 0-7.4-7.41h-32.1a7.42 7.42 0 0 0-7.41 7.41v12.34h-2.46a7.41 7.41 0 0 0-7.41 7.41 7.31 7.31 0 0 0 1.93 4.93 7.29 7.29 0 0 0 0 9.88 7.29 7.29 0 0 0 0 9.88 7.31 7.31 0 0 0-1.93 4.93 7.41 7.41 0 0 0 7.41 7.41h2.46v7.41a7.42 7.42 0 0 0 7.41 7.4h32.1a7.41 7.41 0 0 0 7.4-7.4v-4.94h4a16.77 16.77 0 0 0 7.49-1.77l11.28-5.64h34v-4.93h-35.13l-12.32 6.15a11.82 11.82 0 0 1-5.28 1.25h-4v-36.65l-11.29-1.89a4.21 4.21 0 0 1 .7-8.37h15.46a11.87 11.87 0 0 1 7.31 2.59l9.11 7.29h35.43v-4.94h-33.7zm-62.24 45.71h-2.46a2.47 2.47 0 1 1 0-4.93h2.46zm0-9.87h-2.46a2.47 2.47 0 0 1 0-4.94h2.46zm0-9.88h-2.46a2.47 2.47 0 0 1 0-4.94h2.46zm0-9.87h-2.46a2.47 2.47 0 0 1 0-4.94h2.46zm9.88 44.44h-2.47a2.48 2.48 0 0 1-2.47-2.47v-64.19a2.47 2.47 0 0 1 2.47-2.47h2.47zm32.1-64.2h-5.66a9.15 9.15 0 0 0-1.51 18.18l7.17 1.2v42.35a2.48 2.48 0 0 1-2.47 2.47H74.69v-69.13h24.69a2.47 2.47 0 0 1 2.47 2.47z"/><path d="M79.63 152.32a9.73 9.73 0 0 0 .74 3.7 9.7 9.7 0 0 0-.74 3.7c-.174 5.454 4.107 10.016 9.56 10.19 5.454.173 10.016-4.108 10.19-9.562a9.88 9.88 0 0 0 0-.628 9.71 9.71 0 0 0-.75-3.7 9.74 9.74 0 0 0 .75-3.7c.174-5.454-4.107-10.016-9.56-10.19a9.88 9.88 0 0 0-10.19 10.19zm5.63 2.45a4.8 4.8 0 0 1-.7-2.45 4.94 4.94 0 1 1 9.88 0 4.79 4.79 0 0 1-.69 2.45L93 156l.73 1.24a4.85 4.85 0 0 1 .69 2.46 4.94 4.94 0 1 1-9.88 0 4.86 4.86 0 0 1 .7-2.46L86 156z"/></g></svg><svg width="85" height="85" viewBox="-68 -68 289 289" id="benefits-6" x="336.59000000000003" xmlns="http://www.w3.org/2000/svg"><g fill="#42A5F5" transform="scale(.99954)"><path d="M32.1 79h4.94v44.44H32.1zM37 19.75h79v24.69h5v-32.1C120.995 5.52 115.461-.005 108.64 0h-64.2C37.627.005 32.106 5.527 32.1 12.34v12.35H37zm0-7.41a7.42 7.42 0 0 1 7.41-7.4h64.19a7.42 7.42 0 0 1 7.41 7.4v2.47H37zM116.04 98.75h4.94v24.69h-4.94zM32.1 140.73c.005 6.812 5.527 12.334 12.34 12.34h64.19c6.82.011 12.359-5.509 12.37-12.33v-12.36H32.1zm4.9-7.41h79v7.41a7.42 7.42 0 0 1-7.41 7.4H44.44a7.42 7.42 0 0 1-7.41-7.4z"/><use transform="translate(64.19 138.26)" xlink:href="#ipath-1"/><path d="M44.44 29.63H0v44.44h44.44zm-4.94 39.5H4.94V34.56H39.5z"/><use transform="translate(9.88 39.5)" xlink:href="#ipath-1"/><use transform="translate(9.88 49.38)" xlink:href="#ipath-1"/><use transform="translate(19.75 59.25)" xlink:href="#ipath-2"/><use transform="translate(29.63 59.25)" xlink:href="#ipath-2"/><use transform="translate(9.88 59.25)" xlink:href="#ipath-2"/><path d="M108.63 49.38v44.44h44.44V49.38zm39.5 39.5h-34.56V54.32h34.56z"/><use transform="translate(118.51 59.25)" xlink:href="#ipath-1"/><use transform="translate(118.51 69.13)" xlink:href="#ipath-1"/><use transform="translate(128.38 79)" xlink:href="#ipath-2"/><use transform="translate(138.26 79)" xlink:href="#ipath-2"/><use transform="translate(118.51 79)" xlink:href="#ipath-2"/><path d="M101.22 51.85a12.35 12.35 0 0 0-11-12.28l-1.29-1.71c-6.835-9.074-19.732-10.889-28.806-4.053A20.57 20.57 0 0 0 51.93 50.2V93a12.4 12.4 0 0 0-6.38 7.22L41 113.57h71l-4.46-13.38a12.41 12.41 0 0 0-6.32-7.19V51.85zM56.78 50.2v.001c.003-8.637 7.008-15.637 15.645-15.634a15.64 15.64 0 0 1 12.504 6.252l2.71 3.62h1.24a7.42 7.42 0 0 1 7.41 7.41v5.39a7.23 7.23 0 0 0-2.38-.45H91.35a27.29 27.29 0 0 1-16.3-5.43c-4.351-3.265-10.526-2.384-13.79 1.967a9.85 9.85 0 0 0-1.66 3.454h-.35a7.27 7.27 0 0 0-2.47.46zm39.51 14a2.48 2.48 0 0 1-2.47 2.47v-4.95a2.48 2.48 0 0 1 2.47 2.47zm-7.41-2.57V70a7.44 7.44 0 0 1-2.17 5.23l-5.54 5.54a2.47 2.47 0 0 1-1.74.72h-5.79a2.45 2.45 0 0 1-1.74-.72l-5.54-5.54A7.44 7.44 0 0 1 64.19 70V59.25a4.95 4.95 0 0 1 7.9-4 32.23 32.23 0 0 0 16.79 6.37zm-29.63.1v4.94a2.47 2.47 0 0 1 0-4.94zm-2.47 9.42a7.27 7.27 0 0 0 2.47.46h.16a12.19 12.19 0 0 0 3.46 7.1l5.53 5.54a7.36 7.36 0 0 0 5.24 2.17h5.79a7.32 7.32 0 0 0 5.23-2.17l5.54-5.55a12.22 12.22 0 0 0 3.46-7.1h.16a7.27 7.27 0 0 0 2.47-.46v20.07l-4.94-1.64v-3.16h-4.94v4.36l-2.77 5.55-3.32-5h-7.55l-3.49 5-2.62-5.24v-4.67h-4.94v3.16l-4.94 1.64zm46.13 30.61l2.29 6.88H47.87l2.29-6.88a7.41 7.41 0 0 1 4.68-4.68l7.94-2.65 5.81 11.64 6.77-9.77h2.32l6.57 9.84 5.88-11.76 8.09 2.7a7.41 7.41 0 0 1 4.69 4.67z"/></g><defs><path id="ipath-2" d="M0 0h4.94v4.94H0z"/><path id="ipath-1" d="M0 0h24.69v4.94H0z"/></defs></svg><svg width="85" height="85" viewBox="-68 -68 289 289" id="benefits-7" x="336.59000000000003" y="85" xmlns="http://www.w3.org/2000/svg"><g fill="#42A5F5" transform="scale(.99954)"><path d="M143.19 34.81V23.67L119.53 0H49.38v34.56h-37C5.554 34.549.011 40.074 0 46.9v79.01c.005 6.814 5.525 12.339 12.34 12.35H42v9.87h-9.9v4.94H121v-4.94h-9.9v-9.87h29.63c6.815-.011 12.334-5.535 12.34-12.35v-79a12.38 12.38 0 0 0-9.88-12.1zM118.51 6l18.72 18.73h-18.72zm-64.2-1h59.26v24.63h24.69v79H54.31zm51.85 143.19H46.91v-9.87h59.25zm42-22.22a7.41 7.41 0 0 1-7.4 7.41H12.34a7.41 7.41 0 0 1-7.4-7.41v-2.47h143.19zm0-7.4H4.94V46.91a7.42 7.42 0 0 1 7.4-7.41h37v74.07h93.81V40a7.38 7.38 0 0 1 4.94 6.95z"/><path d="M44.44 61.72c0-9.543-7.737-17.28-17.28-17.28-9.543 0-17.28 7.737-17.28 17.28C9.88 71.263 17.617 79 27.16 79c9.539-.011 17.269-7.741 17.28-17.28zm-14.81-4.94a2.47 2.47 0 1 1-2.47-2.46 2.47 2.47 0 0 1 2.47 2.46zm-2.47 17.29a12.22 12.22 0 0 1-4.84-1 4.94 4.94 0 0 1 9.67 0c-1.525.66-3.169 1-4.83 1zm0-9.88a9.86 9.86 0 0 0-9 5.9c-4.638-4.918-4.41-12.665.508-17.303a12.24 12.24 0 0 1 7.022-3.257 7.4 7.4 0 1 0 3 0c6.721.771 11.545 6.845 10.774 13.566a12.25 12.25 0 0 1-3.244 6.994 9.86 9.86 0 0 0-9.06-5.9zM29.63 91.35a2.47 2.47 0 1 1-2.47-2.47 2.48 2.48 0 0 1 2.47 2.47zM88.88 19.54v-4.73H64.19V39.5h24.69V25.6l8.84-6.31-2.87-4zm-4.94 3.53l-4.67 3.33-3.46-3.46-3.49 3.49 6.42 6.42 5.2-3.72v5.43H69.13V19.75h14.81zM88.88 49.17v-4.73H64.19v24.69h24.69v-13.9l8.84-6.31-2.87-4zm-4.94 3.52L79.27 56l-3.46-3.46-3.49 3.49 6.42 6.42 5.2-3.72v5.43H69.13V49.38h14.81zM88.88 78.79v-4.72H64.19v24.68h24.69V84.86l8.84-6.32-2.87-4zm-4.94 3.53l-4.67 3.34-3.46-3.46-3.49 3.49 6.42 6.41 5.2-3.71v5.43H69.13V79h14.81z"/><use transform="translate(98.75 34.56)" xlink:href="#jpath-1"/><use transform="translate(98.75 64.19)" xlink:href="#jpath-1"/><use transform="translate(98.75 93.82)" xlink:href="#jpath-1"/><use transform="translate(98.75 83.94)" xlink:href="#jpath-1"/><use transform="translate(98.75 54.32)" xlink:href="#jpath-1"/><path d="M98.75 24.69h9.88v4.94h-9.88z"/></g><defs><path id="jpath-1" d="M0 0h29.63v4.94H0z"/></defs></svg><svg viewBox="-36.44 -36.44 142.89 154.89" width="78.41" height="85" id="benefits-8" x="255" y="85" xmlns="http://www.w3.org/2000/svg"><g fill="#F5BE68" fill-rule="evenodd"><path d="M7.186 81H.67V68.994h6.318c2.286 0 3.456 1.458 3.456 3.06 0 1.512-.936 2.52-2.07 2.754 1.278.198 2.304 1.44 2.304 2.952 0 1.8-1.206 3.24-3.492 3.24zm-.756-7.2c.864 0 1.404-.54 1.404-1.296s-.54-1.314-1.404-1.314H3.226v2.61H6.43zm.09 4.986c.972 0 1.548-.522 1.548-1.386 0-.756-.54-1.404-1.548-1.404H3.226v2.79H6.52zM22.238 81h-2.934l-2.358-4.266h-1.872V81h-2.556V68.994h5.616c2.502 0 4.032 1.638 4.032 3.87 0 2.124-1.332 3.258-2.628 3.564l2.7 4.572zm-4.482-6.516c1.026 0 1.8-.612 1.8-1.62s-.774-1.62-1.8-1.62h-2.682v3.24h2.682zm11.939 6.732c-3.618 0-6.264-2.592-6.264-6.21s2.646-6.21 6.264-6.21c3.636 0 6.282 2.592 6.282 6.21s-2.646 6.21-6.282 6.21zm0-2.268c2.214 0 3.654-1.71 3.654-3.942 0-2.25-1.44-3.942-3.654-3.942s-3.636 1.692-3.636 3.942c0 2.232 1.422 3.942 3.636 3.942zM48.437 81h-2.466l-5.724-7.83V81h-2.556V68.994h2.628l5.562 7.542v-7.542h2.556V81zm11.002 0h-9.144v-2.07l5.67-7.686h-5.67v-2.25h9.018v2.052l-5.67 7.704h5.796V81zm10.355 0h-8.496V68.994h8.496v2.25h-5.94v2.538h5.814v2.25h-5.814v2.718h5.94V81zM59.468 41.794c-1.15 1.072-2.28 1.917-3.358 2.508-1.186.65-2.28.98-3.255.98-.818 0-1.597-.243-2.35-.735.254-.371.571-.777.96-1.177 1.621-1.672 3.748-2.517 6.32-2.517.767 0 1.574.074 2.42.223-.232.239-.48.48-.737.718m-10.25-6.352c-.176-1.409.1-2.915.82-4.51l.002.003c1.202 2.441 1.662 4.596 1.298 6.07a3.127 3.127 0 0 1-.883 1.547c-.683-.96-1.1-2.004-1.237-3.11m-8.635 11.517a3.27 3.27 0 0 1-1.356 1.16c-.245-.872-.4-2.023-.135-3.284.301-1.412 1.074-2.765 2.313-4.049.25 2.19.192 4.65-.822 6.173m-11.448 1.313a3.275 3.275 0 0 1-1.446-1.035c-1.135-1.423-1.405-3.853-1.351-6.045 1.314 1.145 2.191 2.396 2.619 3.743.337 1.061.397 2.182.178 3.337m-9.353-12.83c-.137 1.106-.554 2.15-1.237 3.11a3.146 3.146 0 0 1-.883-1.541c-.36-1.453.084-3.578 1.255-5.986.015-.03.03-.06.045-.094.72 1.594.996 3.102.82 4.51m-3.637 9.84c-1.859 0-4.12-1.183-6.541-3.42a25.028 25.028 0 0 1-.81-.785 13.993 13.993 0 0 1 2.421-.225c2.572 0 4.699.847 6.32 2.518.387.4.706.807.959 1.178-.752.492-1.531.735-2.35.735m-5.91-13.569c-.72 0-1.44-.288-2.203-.883-.764-.598-1.523-1.47-2.259-2.594a28.472 28.472 0 0 1-.288-.46c1.985.4 3.478 1.284 4.453 2.645a6.6 6.6 0 0 1 .7 1.261c-.138.02-.273.031-.403.031M8.626 17.545c-.605-.7-1.026-1.903-1.218-3.444.642.62 1.112 1.293 1.405 2.014.274.674.366 1.33.368 1.905a2.177 2.177 0 0 1-.555-.475m5.34-10.285c.245-.75.93-1.575 1.97-2.385a5.255 5.255 0 0 1-.887 1.656c-.358.442-.76.775-1.16 1.024.02-.107.048-.205.076-.295m-.791 14.664c.323-1.343 1.58-2.898 3.552-4.387-.119 1.54-.538 2.842-1.258 3.889a6.36 6.36 0 0 1-2.265 2.005 2.86 2.86 0 0 1-.03-1.507m42.624 1.507a6.36 6.36 0 0 1-2.265-2.005c-.72-1.047-1.139-2.347-1.257-3.889 1.969 1.488 3.224 3.038 3.55 4.38a2.86 2.86 0 0 1-.028 1.514M53.951 6.533a5.315 5.315 0 0 1-.89-1.658c1.04.809 1.726 1.63 1.972 2.38.03.092.057.19.078.3a4.685 4.685 0 0 1-1.16-1.022m5.112 23.888c.975-1.36 2.468-2.245 4.453-2.644-.094.155-.19.306-.288.459-.736 1.124-1.495 1.996-2.26 2.594-.762.595-1.482.883-2.202.883-.13 0-.266-.01-.403-.03.168-.4.395-.835.7-1.262m1.124-14.306c.293-.72.763-1.393 1.405-2.014-.19 1.538-.611 2.737-1.214 3.44-.14.161-.313.334-.559.479.002-.575.094-1.23.368-1.905M54.66 38.437c0-.004.003-.006.005-.008a31.118 31.118 0 0 0 2.153-4.265c.678.231 1.329.335 1.948.335 5.983 0 9.234-9.672 9.234-9.672a22.016 22.016 0 0 0-1.82-.078c-3.324 0-5.653.829-7.283 1.97.293-1.83.45-3.718.468-5.642 6.625-1.053 4.946-11.883 4.946-11.883-2.78 1.156-4.543 2.564-5.635 4.002a38.852 38.852 0 0 0-.936-4.004C59.353 3.439 49.974 0 49.974 0c-.828 7.44 2.99 9.89 5.273 10.687.207.703.914 3.29 1.205 6.888-2.626-2.943-6.607-4.777-6.607-4.777-1.946 10.036 3.849 12.996 6.247 13.779a30.132 30.132 0 0 1-2.1 7.102c-.914-4.148-3.92-8.014-3.92-8.014-6.465 8.152-2.879 13.6-.985 15.607a31.642 31.642 0 0 1-5.065 4.51c.998-4.455-.803-9.947-.803-9.947-8.437 5.255-7.427 11.27-6.355 14.006-.765.343-1.554.667-2.364.98a48.795 48.795 0 0 1-2.82-1.186c.798-2.876 1.109-8.806-7.58-13.218 0 0-1.04 4.443-.296 8.481a30.923 30.923 0 0 1-3.89-3.626c1.893-2.006 5.477-7.455-.986-15.607 0 0-3.006 3.867-3.92 8.011a30.028 30.028 0 0 1-2.1-7.1c2.4-.782 8.193-3.743 6.249-13.778 0 0-3.983 1.834-6.609 4.777.29-3.583.998-6.181 1.207-6.889C16.038 9.89 19.854 7.44 19.025 0c0 0-9.388 3.442-7.763 9.2-.15.5-.564 1.962-.936 3.998-1.094-1.44-2.857-2.848-5.637-4.004 0 0-1.68 10.83 4.946 11.883.018 1.924.175 3.812.468 5.642-1.63-1.141-3.959-1.97-7.283-1.97-.575 0-1.182.025-1.82.078 0 0 3.251 9.672 9.234 9.672.62 0 1.27-.104 1.948-.335a31.099 31.099 0 0 0 2.157 4.273 12.689 12.689 0 0 0-3.124-.371c-2.065 0-4.494.437-7.338 1.527 0 0 5.91 8.475 12.268 8.475 1.605 0 3.237-.541 4.811-1.894 2.724 2.328 5.92 4.33 9.577 6.004-2.79.843-5.798 1.534-9.02 2.075L21.973 57c4.583-.767 8.76-1.836 12.526-3.204 3.766 1.368 7.944 2.437 12.526 3.204l.462-2.747c-3.222-.54-6.23-1.232-9.021-2.075 3.658-1.673 6.853-3.676 9.577-6.004 1.572 1.353 3.206 1.894 4.811 1.894 6.357 0 12.268-8.475 12.268-8.475-2.844-1.09-5.273-1.527-7.338-1.527-1.151 0-2.19.135-3.125.371"/><path d="M46 21.55L34.79 15 24 21.544V27l10.832-6.57L46 26.959z"/></g></svg><svg viewBox="-36.44 -36.44 139.89 154.89" width="76.77" height="85" id="benefits-9" y="254.41" xmlns="http://www.w3.org/2000/svg"><g fill="silver" fill-rule="evenodd"><path d="M10.758 81.216c-2.304 0-3.96-.774-5.076-1.908l1.386-1.944a5.264 5.264 0 0 0 3.816 1.62c1.404 0 2.088-.648 2.088-1.332 0-2.124-6.912-.666-6.912-5.184 0-1.998 1.728-3.654 4.554-3.654 1.908 0 3.492.576 4.68 1.674l-1.422 1.872c-.972-.9-2.268-1.314-3.492-1.314-1.098 0-1.71.486-1.71 1.206 0 1.908 6.894.63 6.894 5.112 0 2.196-1.566 3.852-4.806 3.852zM19.762 81h-2.556V68.994h2.556V81zm9.923 0h-7.632V68.994h2.556v9.756h5.076V81zm6.646 0h-3.204l-4.644-12.006h2.916l3.33 9.234 3.312-9.234h2.916L36.331 81zm14.152 0h-8.496V68.994h8.496v2.25h-5.94v2.538h5.814v2.25h-5.814v2.718h5.94V81zm11.633 0h-2.934l-2.358-4.266h-1.872V81h-2.556V68.994h5.616c2.502 0 4.032 1.638 4.032 3.87 0 2.124-1.332 3.258-2.628 3.564l2.7 4.572zm-4.482-6.516c1.026 0 1.8-.612 1.8-1.62s-.774-1.62-1.8-1.62h-2.682v3.24h2.682zM58.46 41.87c-1.149 1.073-2.28 1.92-3.357 2.513-1.185.65-2.28.98-3.254.98-.818 0-1.597-.242-2.35-.735.254-.372.571-.779.96-1.18 1.62-1.674 3.747-2.52 6.319-2.52.767 0 1.574.073 2.42.222-.233.24-.48.48-.738.72m-10.248-6.364c-.176-1.411.1-2.92.82-4.519l.002.004c1.202 2.446 1.662 4.605 1.298 6.08-.106.434-.315.99-.883 1.55-.683-.96-1.1-2.007-1.237-3.115m-8.634 11.539c-.372.56-.852.923-1.355 1.16-.246-.872-.401-2.025-.135-3.289.3-1.414 1.073-2.77 2.312-4.056.25 2.194.192 4.66-.822 6.185m-11.447 1.314a3.275 3.275 0 0 1-1.445-1.036c-1.135-1.426-1.405-3.86-1.352-6.056 1.315 1.147 2.192 2.4 2.62 3.75.337 1.063.396 2.185.177 3.342m-9.35-12.853c-.138 1.108-.555 2.154-1.238 3.115a3.153 3.153 0 0 1-.883-1.543c-.36-1.456.084-3.584 1.255-5.997l.045-.094c.72 1.597.996 3.108.82 4.519m-3.637 9.858c-1.858 0-4.12-1.186-6.54-3.427a25.048 25.048 0 0 1-.81-.787c.847-.149 1.654-.225 2.42-.225 2.573 0 4.699.849 6.32 2.523.387.4.706.808.959 1.18-.752.493-1.531.736-2.35.736M9.233 31.77c-.72 0-1.439-.289-2.201-.886-.765-.599-1.524-1.472-2.26-2.598a28.537 28.537 0 0 1-.288-.46c1.985.4 3.478 1.286 4.453 2.65.305.427.53.862.7 1.263-.138.02-.273.03-.404.03M7.626 17.578c-.606-.702-1.027-1.906-1.219-3.451.642.623 1.112 1.296 1.405 2.018.274.676.366 1.333.368 1.908a2.178 2.178 0 0 1-.554-.475m5.338-10.304c.245-.751.93-1.577 1.97-2.389a5.268 5.268 0 0 1-.887 1.66c-.358.442-.76.775-1.16 1.025.021-.108.048-.206.077-.296m-.792 14.69c.324-1.345 1.58-2.903 3.552-4.394-.119 1.543-.538 2.847-1.258 3.895a6.364 6.364 0 0 1-2.265 2.01 2.87 2.87 0 0 1-.029-1.51m42.619 1.51a6.363 6.363 0 0 1-2.266-2.01c-.72-1.048-1.138-2.35-1.257-3.895 1.969 1.49 3.224 3.043 3.55 4.388a2.87 2.87 0 0 1-.027 1.516M52.945 6.544a5.328 5.328 0 0 1-.89-1.66c1.039.81 1.726 1.633 1.971 2.384.03.092.057.191.078.3a4.687 4.687 0 0 1-1.16-1.024m5.112 23.933c.975-1.364 2.467-2.25 4.452-2.65-.094.155-.19.307-.288.46-.736 1.126-1.494 2-2.26 2.598-.762.597-1.481.886-2.201.886-.13 0-.266-.01-.403-.031.168-.4.395-.836.7-1.263m1.124-14.333c.292-.722.763-1.395 1.405-2.018-.19 1.542-.612 2.743-1.215 3.447-.139.161-.313.334-.558.48a5.104 5.104 0 0 1 .368-1.909m-5.526 22.363a31.199 31.199 0 0 0 2.157-4.28 6.016 6.016 0 0 0 1.948.334c5.982 0 9.233-9.69 9.233-9.69a21.971 21.971 0 0 0-1.82-.077c-3.324 0-5.653.83-7.282 1.974.292-1.834.45-3.725.468-5.653C64.982 20.06 63.304 9.21 63.304 9.21c-2.78 1.159-4.543 2.57-5.635 4.01-.374-2.05-.789-3.52-.936-4.012C58.346 3.445 48.968 0 48.968 0c-.828 7.453 2.989 9.909 5.273 10.706.206.704.913 3.296 1.204 6.9-2.625-2.947-6.606-4.785-6.606-4.785-1.946 10.054 3.848 13.02 6.246 13.804a30.228 30.228 0 0 1-2.1 7.115c-.913-4.155-3.919-8.028-3.919-8.028-6.464 8.166-2.878 13.625-.985 15.635a31.658 31.658 0 0 1-5.064 4.518c.997-4.463-.804-9.965-.804-9.965-8.435 5.265-7.425 11.29-6.354 14.031-.764.344-1.554.669-2.363.981a48.744 48.744 0 0 1-2.82-1.187c.798-2.88 1.109-8.822-7.578-13.242 0 0-1.04 4.45-.297 8.497a30.944 30.944 0 0 1-3.89-3.633c1.893-2.01 5.477-7.469-.986-15.635 0 0-3.005 3.873-3.919 8.025a30.124 30.124 0 0 1-2.1-7.112c2.4-.784 8.193-3.75 6.248-13.804 0 0-3.982 1.838-6.607 4.786.29-3.59.997-6.193 1.206-6.901 2.284-.799 6.098-3.253 5.27-10.706 0 0-9.387 3.448-7.762 9.216-.15.501-.564 1.966-.936 4.006C8.23 11.78 6.469 10.368 3.688 9.21c0 0-1.678 10.85 4.946 11.905a38.25 38.25 0 0 0 .468 5.653c-1.63-1.144-3.958-1.974-7.282-1.974-.575 0-1.182.025-1.82.078 0 0 3.25 9.69 9.233 9.69.619 0 1.27-.105 1.948-.336a31.178 31.178 0 0 0 2.157 4.281 12.664 12.664 0 0 0-3.124-.372c-2.065 0-4.494.437-7.338 1.53 0 0 5.91 8.49 12.267 8.49 1.605 0 3.236-.542 4.81-1.897 2.724 2.332 5.92 4.338 9.577 6.014-2.79.845-5.798 1.538-9.02 2.08l.462 2.751c4.581-.768 8.758-1.84 12.524-3.21 3.766 1.37 7.943 2.442 12.524 3.21l.462-2.752c-3.222-.541-6.229-1.234-9.02-2.079 3.658-1.676 6.853-3.682 9.576-6.014 1.573 1.355 3.206 1.897 4.811 1.897 6.356 0 12.266-8.49 12.266-8.49-2.843-1.093-5.272-1.53-7.337-1.53-1.151 0-2.19.135-3.124.372"/><path d="M44.544 21.094l-11.107-6.193-10.693 6.187v5.158l10.734-6.21 11.066 6.17z"/><path d="M44.544 11.877L33.437 5.684 22.744 11.87v5.158l10.734-6.21 11.066 6.17z"/></g></svg></svg>