<?xml version="1.0" encoding="UTF-8"?><svg version="1.1" viewBox="0 0 70 82" xmlns="http://www.w3.org/2000/svg" xmlns:xlink="http://www.w3.org/1999/xlink"><!--Generated by IJSVG (https://github.com/curthard89/IJSVG)--><g fill="#F5BE68" fill-rule="evenodd" stroke="none" stroke-width="1"><path d="M6.516,12.204h-6.516v-12.006h6.318c2.286,0 3.456,1.458 3.456,3.06c0,1.512 -0.936,2.52 -2.07,2.754c1.278,0.198 2.304,1.44 2.304,2.952c0,1.8 -1.206,3.24 -3.492,3.24Zm-0.756,-7.2c0.864,0 1.404,-0.54 1.404,-1.296c0,-0.756 -0.54,-1.314 -1.404,-1.314h-3.204v2.61h3.204Zm0.09,4.986c0.972,0 1.548,-0.522 1.548,-1.386c0,-0.756 -0.54,-1.404 -1.548,-1.404h-3.294v2.79h3.294Zm15.7183,2.214h-2.934l-2.358,-4.266h-1.872v4.266h-2.556v-12.006h5.616c2.502,0 4.032,1.638 4.032,3.87c0,2.124 -1.332,3.258 -2.628,3.564l2.7,4.572Zm-4.482,-6.516c1.026,0 1.8,-0.612 1.8,-1.62c0,-1.008 -0.774,-1.62 -1.8,-1.62h-2.682v3.24h2.682Zm11.9383,6.732c-3.618,0 -6.264,-2.592 -6.264,-6.21c0,-3.618 2.646,-6.21 6.264,-6.21c3.636,0 6.282,2.592 6.282,6.21c0,3.618 -2.646,6.21 -6.282,6.21Zm0,-2.268c2.214,0 3.654,-1.71 3.654,-3.942c0,-2.25 -1.44,-3.942 -3.654,-3.942c-2.214,0 -3.636,1.692 -3.636,3.942c0,2.232 1.422,3.942 3.636,3.942Zm18.7423,2.052h-2.466l-5.724,-7.83v7.83h-2.556v-12.006h2.628l5.562,7.542v-7.542h2.556v12.006Zm11.0023,0h-9.144v-2.07l5.67,-7.686h-5.67v-2.25h9.018v2.052l-5.67,7.704h5.796v2.25Zm10.3543,0h-8.496v-12.006h8.496v2.25h-5.94v2.538h5.814v2.25h-5.814v2.718h5.94v2.25Z" transform="translate(0.670143, 68.796)"></path><g transform="translate(1, 0)"><g fill="#F5BE68" fill-rule="evenodd" stroke="none" stroke-width="1"><path d="M58.4677,41.7943c-1.14919,1.07136 -2.27982,1.91625 -3.35739,2.50802c-1.18582,0.64909 -2.27982,0.979474 -3.25505,0.979474c-0.817928,0 -1.59697,-0.242627 -2.34943,-0.734606c0.253615,-0.371431 0.570458,-0.777422 0.958917,-1.17752c1.62156,-1.67138 3.74798,-2.51627 6.32018,-2.51627c0.766756,0 1.5744,0.0734842 2.42093,0.222458c-0.233288,0.238853 -0.480522,0.479711 -0.738156,0.718446m-10.2499,-6.35266c-0.175971,-1.40835 0.0999808,-2.91424 0.819701,-4.51025l0.0021272,0.0040104c1.20225,2.4409 1.66233,4.59589 1.29845,6.06934c-0.106244,0.43253 -0.314951,0.987613 -0.8834,1.54682c-0.682966,-0.959187 -1.09991,-2.00401 -1.23688,-3.10993m-8.63475,11.5178c-0.372151,0.559093 -0.852791,0.922268 -1.35565,1.15912c-0.245461,-0.87143 -0.400869,-2.02229 -0.134962,-3.28367c0.300533,-1.412 1.07343,-2.76515 2.31244,-4.04871c0.249597,2.18978 0.19228,4.65073 -0.821828,6.17326m-11.4484,1.31222c-0.519285,-0.191908 -1.0264,-0.512266 -1.44547,-1.03468c-1.13489,-1.4225 -1.40469,-3.85291 -1.35163,-6.04469c1.31476,1.14496 2.1919,2.39596 2.61935,3.74274c0.337406,1.06122 0.396614,2.18152 0.177744,3.33663m-9.35222,-12.8301c-0.136971,1.10604 -0.55403,2.15086 -1.23711,3.10993c-0.566321,-0.557206 -0.77491,-1.11017 -0.883282,-1.54081c-0.359978,-1.45282 0.08379,-3.57737 1.25543,-5.98536c0.0142999,-0.0305496 0.0285997,-0.0610992 0.0450268,-0.0938899c0.71972,1.59389 0.995672,3.1019 0.819937,4.51013m-3.63772,9.84027c-1.85863,0 -4.11989,-1.18353 -6.54082,-3.42026c-0.284224,-0.263269 -0.554149,-0.526538 -0.809773,-0.785679c0.846528,-0.148973 1.65417,-0.224581 2.42093,-0.224581c2.5722,0 4.69862,0.846896 6.32018,2.51816c0.386332,0.399975 0.70542,0.806203 0.958799,1.17763c-0.752219,0.492096 -1.53138,0.734724 -2.34931,0.734724m-5.91116,-13.5687c-0.71972,0 -1.43944,-0.287685 -2.20206,-0.883579c-0.764865,-0.597899 -1.52347,-1.46933 -2.25949,-2.59377c-0.0982081,-0.153102 -0.194171,-0.306204 -0.288242,-0.459188c1.98532,0.399858 3.47794,1.28355 4.45328,2.64472c0.30467,0.426515 0.529567,0.861286 0.699275,1.26114c-0.136853,0.0204057 -0.271934,0.0306676 -0.402759,0.0306676m-1.60714,-14.1678c-0.605203,-0.700871 -1.0264,-1.90292 -1.21856,-3.44479c0.642075,0.621372 1.11232,1.29382 1.40469,2.01427c0.274061,0.67445 0.366005,1.33062 0.368014,1.90493c-0.243334,-0.143784 -0.417177,-0.314224 -0.554149,-0.474403m5.33881,-10.2853c0.245343,-0.749939 0.930199,-1.57454 1.9709,-2.38464c-0.212607,0.635762 -0.509122,1.18884 -0.8873,1.65605c-0.357733,0.441849 -0.76061,0.774474 -1.15935,1.02347c0.0204453,-0.107101 0.0470359,-0.205119 0.0757538,-0.29488m-0.791337,14.6637c0.323106,-1.34288 1.58043,-2.89797 3.55168,-4.38652c-0.118535,1.54069 -0.537722,2.84158 -1.25744,3.88841c-0.570458,0.830619 -1.3332,1.50413 -2.26552,2.00519c-0.179989,-0.635644 -0.118653,-1.1347 -0.0287179,-1.50707m42.6235,1.50719c-0.932208,-0.50106 -1.69495,-1.17445 -2.2654,-2.00519c-0.719602,-1.04694 -1.13879,-2.34678 -1.25732,-3.88841c1.96901,1.48773 3.22444,3.03762 3.54955,4.38039c0.0918263,0.37438 0.153162,0.874379 -0.026827,1.51321m-1.84622,-16.8983c-0.378296,-0.468388 -0.674811,-1.02135 -0.889427,-1.65723c1.03869,0.808208 1.72567,1.62951 1.97102,2.37957c0.0304906,0.0917667 0.0573175,0.190847 0.0777628,0.299952c-0.398741,-0.248997 -0.801501,-0.581622 -1.15935,-1.02229m5.11166,23.8888c0.975226,-1.36129 2.46785,-2.24498 4.45328,-2.64484c-0.0940718,0.155225 -0.190153,0.306086 -0.288361,0.459188c-0.736029,1.12444 -1.49463,1.99587 -2.25938,2.59377c-0.762619,0.595776 -1.48234,0.883579 -2.20218,0.883579c-0.130826,0 -0.265788,-0.0101439 -0.40276,-0.0305496c0.167698,-0.399858 0.394723,-0.834747 0.699393,-1.26114m1.12461,-14.3066c0.292261,-0.720451 0.762619,-1.3929 1.40469,-2.01427c-0.190153,1.53869 -0.611348,2.73767 -1.21454,3.44078c-0.139098,0.161123 -0.312824,0.333687 -0.558167,0.478414c0.0020091,-0.574545 0.0939536,-1.23048 0.368014,-1.90493m-5.52695,22.3226c0,-0.0040104 0.0022455,-0.0061335 0.0041363,-0.0080208c0.821828,-1.35716 1.54167,-2.78155 2.15301,-4.26515c0.678829,0.230714 1.32906,0.334512 1.94856,0.334512c5.98277,0 9.2338,-9.67207 9.2338,-9.67207c-0.637939,-0.0529605 -1.24527,-0.0774946 -1.81974,-0.0774946c-3.32454,0 -5.65352,0.828614 -7.28311,1.97027c0.292379,-1.8305 0.449913,-3.7182 0.468231,-5.64259c6.62473,-1.05284 4.94609,-11.8832 4.94609,-11.8832c-2.78079,1.15617 -4.54333,2.56428 -5.63509,4.002c-0.374041,-2.04588 -0.78921,-3.51309 -0.936463,-4.00388c1.61328,-5.75288 -7.76576,-9.19154 -7.76576,-9.19154c-0.828091,7.43948 2.98938,9.89052 5.27334,10.6863c0.206461,0.703112 0.91389,3.28968 1.20426,6.8884c-2.62526,-2.94267 -6.60629,-4.7773 -6.60629,-4.7773c-1.94667,10.0364 3.84808,12.9966 6.24655,13.779c-0.0614539,0.359164 -0.126926,0.714318 -0.198425,1.06735c-0.431596,2.11217 -1.06942,4.12832 -1.90164,6.03443c-0.913772,-4.14696 -3.91958,-8.01296 -3.91958,-8.01296c-6.46531,8.15167 -2.87888,13.6003 -0.985508,15.6064c-1.47619,1.64071 -3.16724,3.14484 -5.06463,4.51013c0.997681,-4.45493 -0.803628,-9.94666 -0.803628,-9.94666c-8.43656,5.25488 -7.42635,11.269 -6.35492,14.0056c-0.764747,0.342769 -1.55396,0.667255 -2.36361,0.979474c-0.971208,-0.373436 -1.91169,-0.769402 -2.81955,-1.18554c0.797483,-2.87544 1.10818,-8.80595 -7.57975,-13.2179c0,0 -1.0407,4.44278 -0.296515,8.48135c-1.42928,-1.12231 -2.72548,-2.33238 -3.89098,-3.62644c1.89325,-2.00601 5.47767,-7.45469 -0.985626,-15.6064c0,0 -3.00569,3.86612 -3.9197,8.01084c-0.823955,-1.88358 -1.45575,-3.87543 -1.88723,-5.96095c-0.0777628,-0.37556 -0.147253,-0.755129 -0.212607,-1.13883c2.40048,-0.782612 8.19299,-3.74368 6.24856,-13.779c0,0 -3.98316,1.83463 -6.60842,4.7773c0.29037,-3.58256 0.997799,-6.18128 1.20639,-6.8884c2.28384,-0.797002 6.09918,-3.24687 5.27109,-10.6863c0,0 -9.38909,3.44184 -7.76364,9.19967c-0.149262,0.499999 -0.564194,1.96213 -0.936345,3.99787c-1.09388,-1.4389 -2.85642,-2.84795 -5.63721,-4.004c-4.44089e-16,0 -1.67876,10.8304 4.94609,11.8832c0.0184362,1.92439 0.175853,3.81221 0.468231,5.64259c-1.62959,-1.14166 -3.95858,-1.97027 -7.28311,-1.97027c-0.574712,0 -1.18181,0.0245341 -1.81974,0.0774946c0,0 3.25103,9.67207 9.23369,9.67207c0.619503,0 1.26973,-0.103916 1.94868,-0.334512c0.611348,1.4836 1.33107,2.90811 2.15301,4.26515c0.0021272,0.0020052 0.0040181,0.0040104 0.0040181,0.0080208c-0.934454,-0.236612 -1.97314,-0.371431 -3.12422,-0.371431c-2.06521,0 -4.49429,0.436777 -7.33842,1.52654c4.44089e-16,0 5.91116,8.47533 12.2681,8.47533c1.60513,0 3.23673,-0.540928 4.81125,-1.89384c2.72347,2.32837 5.91931,4.33038 9.57735,6.00376c-2.79095,0.842886 -5.79865,1.53467 -9.0212,2.07549l0.462086,2.74687c4.58222,-0.767396 8.75954,-1.83663 12.5257,-3.20393c3.76642,1.3673 7.94363,2.43654 12.5258,3.20393l0.462086,-2.74687c-3.22243,-0.54081 -6.23013,-1.2326 -9.0212,-2.07549c3.65793,-1.67327 6.85376,-3.67539 9.57735,-6.00376c1.57239,1.35291 3.20612,1.89384 4.81125,1.89384c6.35682,0 12.268,-8.47533 12.268,-8.47533c-2.84402,-1.08976 -5.27322,-1.52654 -7.33819,-1.52654c-1.15132,0 -2.19024,0.134583 -3.12469,0.371431"></path><path d="M22,6.55082l-11.2093,-6.55082l-10.7907,6.54419v5.45581l10.832,-6.56919l11.168,6.5267Z" transform="translate(23, 15)"></path></g></g></g></svg>