<?xml version="1.0" encoding="UTF-8"?><svg version="1.1" viewBox="0 0 67 82" xmlns="http://www.w3.org/2000/svg" xmlns:xlink="http://www.w3.org/1999/xlink"><!--Generated by IJSVG (https://github.com/curthard89/IJSVG)--><g fill="#C0C0C0" fill-rule="evenodd" stroke="none" stroke-width="1"><path d="M5.076,12.402c-2.304,0 -3.96,-0.774 -5.076,-1.908l1.386,-1.944c0.846,0.882 2.16,1.62 3.816,1.62c1.404,0 2.088,-0.648 2.088,-1.332c0,-2.124 -6.912,-0.666 -6.912,-5.184c0,-1.998 1.728,-3.654 4.554,-3.654c1.908,0 3.492,0.576 4.68,1.674l-1.422,1.872c-0.972,-0.9 -2.268,-1.314 -3.492,-1.314c-1.098,0 -1.71,0.486 -1.71,1.206c0,1.908 6.894,0.63 6.894,5.112c0,2.196 -1.566,3.852 -4.806,3.852Zm9.00429,-0.216h-2.556v-12.006h2.556v12.006Zm9.92229,0h-7.632v-12.006h2.556v9.756h5.076v2.25Zm6.64629,0h-3.204l-4.644,-12.006h2.916l3.33,9.234l3.312,-9.234h2.916l-4.626,12.006Zm14.1523,0h-8.496v-12.006h8.496v2.25h-5.94v2.538h5.814v2.25h-5.814v2.718h5.94v2.25Zm11.6323,0h-2.934l-2.358,-4.266h-1.872v4.266h-2.556v-12.006h5.616c2.502,0 4.032,1.638 4.032,3.87c0,2.124 -1.332,3.258 -2.628,3.564l2.7,4.572Zm-4.482,-6.516c1.026,0 1.8,-0.612 1.8,-1.62c0,-1.008 -0.774,-1.62 -1.8,-1.62h-2.682v3.24h2.682Z" transform="translate(5.68214, 68.814)"></path><g fill="#C0C0C0" fill-rule="evenodd" stroke="none" stroke-width="1"><path d="M58.4604,41.87c-1.14904,1.0733 -2.27954,1.91972 -3.35697,2.51256c-1.18568,0.650266 -2.27954,0.981249 -3.25464,0.981249c-0.817825,0 -1.59677,-0.243067 -2.34914,-0.735937c0.253584,-0.372104 0.570386,-0.778831 0.958797,-1.17965c1.62135,-1.67441 3.74751,-2.52083 6.31939,-2.52083c0.76666,0 1.5742,0.0736173 2.42063,0.222861c-0.233259,0.239286 -0.480462,0.48058 -0.738064,0.719748m-10.2486,-6.36417c-0.175949,-1.4109 0.0999683,-2.91952 0.819598,-4.51842l0.002127,0.0040177c1.2021,2.44532 1.66212,4.60421 1.29829,6.08034c-0.106231,0.433314 -0.314912,0.989402 -0.883289,1.54963c-0.68288,-0.960924 -1.09977,-2.00764 -1.23672,-3.11556m-8.63366,11.5387c-0.372104,0.560106 -0.852684,0.923938 -1.35548,1.16122c-0.24543,-0.873009 -0.400818,-2.02595 -0.134945,-3.28962c0.300496,-1.41456 1.0733,-2.77016 2.31215,-4.05604c0.249566,2.19375 0.192256,4.65916 -0.821725,6.18444m-11.447,1.31459c-0.51922,-0.192256 -1.02627,-0.513194 -1.44529,-1.03655c-1.13475,-1.42508 -1.40452,-3.85989 -1.35146,-6.05564c1.31459,1.14704 2.19162,2.4003 2.61903,3.74952c0.337363,1.06314 0.396564,2.18548 0.177721,3.34267m-9.35105,-12.8534c-0.136954,1.10804 -0.553961,2.15475 -1.23696,3.11556c-0.56625,-0.558215 -0.774813,-1.11218 -0.883171,-1.5436c-0.359933,-1.45545 0.0837796,-3.58385 1.25528,-5.9962c0.014298,-0.030605 0.0285961,-0.0612099 0.0450211,-0.09406c0.71963,1.59677 0.995547,3.10752 0.819834,4.51831m-3.63726,9.8581c-1.85839,0 -4.11938,-1.18568 -6.54,-3.42645c-0.284189,-0.263746 -0.554079,-0.527492 -0.809672,-0.787102c0.846422,-0.149243 1.65397,-0.224988 2.42063,-0.224988c2.57188,0 4.69804,0.84843 6.31939,2.52272c0.386284,0.4007 0.705331,0.807663 0.958679,1.17977c-0.752125,0.492988 -1.53119,0.736055 -2.34902,0.736055m-5.91042,-13.5933c-0.71963,0 -1.43926,-0.288206 -2.20178,-0.88518c-0.764769,-0.598982 -1.52328,-1.47199 -2.25921,-2.59847c-0.0981958,-0.153379 -0.194146,-0.306758 -0.288206,-0.460019c1.98507,0.400582 3.4775,1.28588 4.45272,2.64951c0.304631,0.427288 0.529501,0.862847 0.699187,1.26343c-0.136836,0.0204426 -0.271899,0.0307231 -0.402709,0.0307231m-1.60694,-14.1935c-0.605127,-0.702141 -1.02627,-1.90637 -1.21841,-3.45103c0.641995,0.622497 1.11218,1.29616 1.40452,2.01792c0.274026,0.675672 0.365959,1.33303 0.367968,1.90838c-0.243303,-0.144044 -0.417125,-0.314794 -0.554079,-0.475263m5.33814,-10.3039c0.245312,-0.751298 0.930083,-1.5774 1.97065,-2.38896c-0.21258,0.636914 -0.509058,1.19099 -0.887189,1.65905c-0.357688,0.442649 -0.760515,0.775877 -1.15921,1.02532c0.0204426,-0.107295 0.0470299,-0.20549 0.0757442,-0.295414m-0.791238,14.6903c0.323065,-1.34532 1.58023,-2.90322 3.55124,-4.39447c-0.11852,1.54348 -0.537654,2.84673 -1.25728,3.89545c-0.570386,0.832123 -1.33303,1.50685 -2.26524,2.00882c-0.179966,-0.636795 -0.118638,-1.13675 -0.0287143,-1.5098m42.6181,1.50992c-0.932092,-0.501968 -1.69473,-1.17658 -2.26512,-2.00882c-0.719511,-1.04884 -1.13865,-2.35103 -1.25717,-3.89545c1.96876,1.49042 3.22404,3.04312 3.54911,4.38832c0.0918148,0.375058 0.153143,0.875963 -0.0268237,1.51595m-1.84599,-16.9289c-0.378249,-0.469236 -0.674727,-1.0232 -0.889316,-1.66023c1.03856,0.809672 1.72546,1.63246 1.97077,2.38388c0.0304868,0.091933 0.0573104,0.191192 0.0777531,0.300496c-0.398691,-0.249448 -0.8014,-0.582675 -1.15921,-1.02414m5.11102,23.9321c0.975104,-1.36375 2.46754,-2.24905 4.45272,-2.64963c-0.09406,0.155506 -0.190129,0.30664 -0.288325,0.460019c-0.735937,1.12647 -1.49444,1.99948 -2.25909,2.59847c-0.762524,0.596855 -1.48215,0.88518 -2.2019,0.88518c-0.130809,0 -0.265755,-0.0101623 -0.402709,-0.030605c0.167677,-0.400582 0.394674,-0.836259 0.699305,-1.26343m1.12447,-14.3326c0.292224,-0.721757 0.762524,-1.39542 1.40452,-2.01792c-0.190129,1.54147 -0.611272,2.74263 -1.21439,3.44701c-0.139081,0.161414 -0.312785,0.334291 -0.558097,0.47928c0.0020088,-0.575586 0.0939418,-1.23271 0.367968,-1.90838m-5.52626,22.363c0,-0.0040176 0.0022451,-0.0061446 0.0041358,-0.0080352c0.821725,-1.35962 1.54147,-2.78659 2.15274,-4.27287c0.678744,0.231132 1.32889,0.335118 1.94832,0.335118c5.98202,0 9.23265,-9.68959 9.23265,-9.68959c-0.637859,-0.0530564 -1.24511,-0.0776349 -1.81952,-0.0776349c-3.32412,0 -5.65281,0.830115 -7.2822,1.97384c0.292342,-1.83381 0.449857,-3.72494 0.468173,-5.65281c6.6239,-1.05475 4.94547,-11.9047 4.94547,-11.9047c-2.78044,1.15826 -4.54277,2.56892 -5.63438,4.00925c-0.373995,-2.04959 -0.789111,-3.51945 -0.936346,-4.01114c1.61308,-5.7633 -7.76479,-9.20819 -7.76479,-9.20819c-0.827988,7.45295 2.989,9.90844 5.27268,10.7057c0.206436,0.704386 0.913776,3.29564 1.20411,6.90088c-2.62493,-2.948 -6.60547,-4.78595 -6.60547,-4.78595c-1.94643,10.0546 3.8476,13.0201 6.24577,13.804c-0.0614463,0.359815 -0.12691,0.715612 -0.1984,1.06928c-0.431541,2.11599 -1.06928,4.1358 -1.90141,6.04536c-0.913658,-4.15447 -3.91909,-8.02747 -3.91909,-8.02747c-6.4645,8.16644 -2.87852,13.625 -0.985384,15.6346c-1.47601,1.64369 -3.16684,3.15054 -5.06399,4.51831c0.997556,-4.463 -0.803527,-9.96468 -0.803527,-9.96468c-8.4355,5.2644 -7.42542,11.2894 -6.35413,14.031c-0.764651,0.34339 -1.55376,0.668464 -2.36332,0.981249c-0.971086,-0.374113 -1.91145,-0.770795 -2.8192,-1.18768c0.797383,-2.88065 1.10804,-8.8219 -7.5788,-13.2419c0,0 -1.04057,4.45083 -0.296478,8.49671c-1.4291,-1.12435 -2.72514,-2.33661 -3.89049,-3.63301c1.89302,-2.00965 5.47698,-7.4682 -0.985503,-15.6346c0,0 -3.00531,3.87312 -3.9192,8.02535c-0.823852,-1.88699 -1.45557,-3.88245 -1.88699,-5.97174c-0.0777531,-0.37624 -0.147235,-0.756497 -0.21258,-1.14089c2.40018,-0.78403 8.19196,-3.75046 6.24778,-13.804c0,0 -3.98266,1.83795 -6.60759,4.78595c0.290333,-3.58905 0.997674,-6.19248 1.20624,-6.90088c2.28355,-0.798446 6.09842,-3.25275 5.27043,-10.7057c0,0 -9.38792,3.44808 -7.76266,9.21634c-0.149243,0.500905 -0.564123,1.96569 -0.936227,4.00511c-1.09374,-1.4415 -2.85607,-2.85311 -5.63651,-4.01126c4.44089e-16,0 -1.67854,10.85 4.94547,11.9047c0.0184339,1.92787 0.175831,3.81912 0.468173,5.65281c-1.62939,-1.14373 -3.95808,-1.97384 -7.2822,-1.97384c-0.57464,0 -1.18166,0.0245785 -1.81952,0.0776349c0,0 3.25062,9.68959 9.23253,9.68959c0.619425,0 1.26957,-0.104104 1.94844,-0.335118c0.611272,1.48629 1.3309,2.91338 2.15274,4.27287c0.0021269,0.0020088 0.0040176,0.0040176 0.0040176,0.0080352c-0.934337,-0.23704 -1.9729,-0.372104 -3.12383,-0.372104c-2.06495,0 -4.49373,0.437568 -7.3375,1.5293c0,0 5.91042,8.49068 12.2666,8.49068c1.60493,0 3.23632,-0.541908 4.81065,-1.89727c2.72313,2.33259 5.91857,4.33822 9.57616,6.01464c-2.7906,0.844413 -5.79792,1.53746 -9.02007,2.07925l0.462028,2.75184c4.58164,-0.768787 8.75845,-1.83996 12.5242,-3.20974c3.76594,1.36978 7.94263,2.44095 12.5243,3.20974l0.462028,-2.75184c-3.22203,-0.54179 -6.22935,-1.23483 -9.02007,-2.07925c3.65747,-1.6763 6.85291,-3.68205 9.57616,-6.01464c1.5722,1.35536 3.20572,1.89727 4.81065,1.89727c6.35602,0 12.2664,-8.49068 12.2664,-8.49068c-2.84366,-1.09173 -5.27256,-1.5293 -7.33727,-1.5293c-1.15117,0 -2.18997,0.134827 -3.1243,0.372104" transform="translate(4.72663e-05, -7.10543e-15)"></path><path d="M21.8002,6.19331l-11.1075,-6.19331l-10.6927,6.18704v5.15805l10.7336,-6.21067l11.0666,6.1705Z" transform="translate(22.7442, 14.9008)"></path><path d="M21.8002,6.19331l-11.1075,-6.19331l-10.6927,6.18704v5.15805l10.7336,-6.21068l11.0666,6.1705Z" transform="translate(22.7442, 5.6839)"></path></g></g></svg>