<?xml version="1.0" encoding="UTF-8"?><svg width="153" height="153" version="1.1" viewBox="0 0 153 153" xmlns="http://www.w3.org/2000/svg" xmlns:xlink="http://www.w3.org/1999/xlink"><!--Generated by IJSVG (https://github.com/curthard89/IJSVG)--><g transform="scale(0.999543)"><g fill="#42A5F5"><path d="M0,0h4.94v44.44h-4.94Z" transform="translate(32.1, 79)"></path><path d="M4.9,19.7553h79v24.69h5v-32.1l3.54889e-07,0.0004491c-0.00526587,-6.82071 -5.53882,-12.3457 -12.3595,-12.3405c-0.00334008,2.57868e-06 -0.00668016,6.51235e-06 -0.0100202,1.1801e-05h-64.1904l4.14975e-07,-3.3587e-10c-6.81291,0.00551407 -12.3345,5.52709 -12.34,12.34v12.35h4.9Zm0,-7.41l4.29497e-08,-1.59333e-05c0.0110192,-4.08624 3.32376,-7.3945 7.41002,-7.39998h64.19l-2.82408e-07,-3.79575e-10c4.08625,0.00549209 7.39899,3.31376 7.41,7.4v2.47h-79.01Z" transform="translate(32.1, -0.00527839)"></path><path d="M0,0h4.94v24.69h-4.94Z" transform="translate(116.04, 98.75)"></path><path d="M3.63674e-07,12.35l-3.63674e-07,-0.000459899c0.00526059,6.81291 5.52663,12.3347 12.3395,12.3405h64.19l-6.59245e-07,-1.09239e-09c6.82071,0.0113023 12.3591,-5.50881 12.3704,-12.3295c5.78892e-06,-0.0034935 1.00955e-05,-0.006987 1.29198e-05,-0.0104805v-12.35h-88.9Zm4.9,-7.41h79v7.41l-4.20901e-08,1.56145e-05c-0.0110191,4.08624 -3.32376,7.3945 -7.41002,7.39998h-64.15l-3.66268e-07,-4.92321e-10c-4.08625,-0.00549245 -7.39899,-3.31376 -7.41,-7.4Z" transform="translate(32.1, 128.38)"></path><use transform="translate(64.19, 138.26)" xlink:href="#path-1"></use><path d="M44.44,0h-44.44v44.44h44.44Zm-4.94,39.5h-34.56v-34.57h34.56Z" transform="translate(0, 29.63)"></path><use transform="translate(9.88, 39.5)" xlink:href="#path-1"></use><use transform="translate(9.88, 49.38)" xlink:href="#path-1"></use><use transform="translate(19.75, 59.25)" xlink:href="#path-2"></use><use transform="translate(29.63, 59.25)" xlink:href="#path-2"></use><use transform="translate(9.88, 59.25)" xlink:href="#path-2"></use><path d="M0,0v44.44h44.44v-44.44Zm39.5,39.5h-34.56v-34.56h34.56Z" transform="translate(108.63, 49.38)"></path><use transform="translate(118.51, 59.25)" xlink:href="#path-1"></use><use transform="translate(118.51, 69.13)" xlink:href="#path-1"></use><use transform="translate(128.38, 79)" xlink:href="#path-2"></use><use transform="translate(138.26, 79)" xlink:href="#path-2"></use><use transform="translate(118.51, 79)" xlink:href="#path-2"></use><path d="M60.22,24.8788l-8.60435e-08,0.00025695c0.00217511,-6.29978 -4.73773,-11.5915 -10.9997,-12.2802l-1.29,-1.71l7.10589e-07,9.43317e-07c-6.83538,-9.07406 -19.7325,-10.8889 -28.8066,-4.05349c-5.14906,3.87872 -8.18197,9.947 -8.19342,16.3935v42.8l9.39818e-08,-4.51753e-08c-3.01296,1.44827 -5.31351,4.05172 -6.38,7.22l-4.55026,13.35h71l-4.46,-13.38l4.94816e-07,1.46787e-06c-1.06032,-3.14543 -3.33654,-5.735 -6.32,-7.19v-41.15Zm-44.44,-1.65l-4.86967e-07,0.00126242c0.00298331,-8.63773 7.00767,-15.6376 15.6454,-15.6346c4.91929,0.00169903 9.55111,2.31776 12.5038,6.25233l2.71,3.62h1.24l-1.44852e-07,-1.95087e-10c4.09015,0.00550854 7.40449,3.31985 7.41,7.41v5.39l-5.13983e-07,-1.90636e-07c-0.762384,-0.282768 -1.56701,-0.434902 -2.38,-0.45h-2.55924l4.57474e-07,6.14087e-10c-5.87624,-0.00788792 -11.593,-1.9123 -16.3,-5.43l1.75903e-07,1.31982e-07c-4.35135,-3.26487 -10.5255,-2.3841 -13.7904,1.96725c-0.773956,1.03151 -1.33783,2.20497 -1.65961,3.45376h-0.35l9.15089e-08,-9.56909e-10c-0.84379,0.0088236 -1.6796,0.164481 -2.47,0.46Zm39.51,14l-2.29711e-08,5.70663e-06c-0.00548355,1.36187 -1.10814,2.46452 -2.47001,2.46999v-4.95l-7.82246e-08,-3.14607e-10c1.36187,0.00547725 2.46453,1.10813 2.47001,2.47Zm-7.41,-2.57v8.37l-9.32687e-08,3.18589e-05c-0.00574573,1.9612 -0.785632,3.84081 -2.17002,5.22999l-5.54,5.54l-4.98295e-09,4.96331e-09c-0.46217,0.460349 -1.08768,0.719181 -1.74,0.72h-5.78998l-1.80396e-08,3.80993e-11c-0.652756,0.00137869 -1.27907,-0.257787 -1.74,-0.72l-5.54,-5.54l-7.45214e-07,-7.47797e-07c-1.38439,-1.38919 -2.16427,-3.26881 -2.17,-5.23002v-10.75l-3.91046e-08,-7.70499e-06c-0.0138724,-2.73377 2.19104,-4.96118 4.92482,-4.97505c1.07111,-0.00543528 2.11508,0.336708 2.97519,0.975067l-3.33477e-06,-2.50858e-06c4.88016,3.6711 10.7029,5.88019 16.79,6.37Zm-29.63,0.1v4.94h-2.43734e-08c-1.36414,-5.96286e-08 -2.47,-1.10586 -2.47,-2.47c5.96286e-08,-1.36414 1.10586,-2.47 2.47,-2.47Zm-2.47,9.42l5.84061e-07,2.18372e-07c0.790398,0.295519 1.62621,0.451176 2.47,0.46h0.16l1.29054e-07,1.03931e-06c0.333414,2.68507 1.55067,5.18291 3.46,7.1l5.53,5.54l-3.23573e-07,-3.25358e-07c1.38664,1.39429 3.27358,2.17572 5.24,2.17h5.79l-3.9152e-08,-1.49939e-10c1.96384,0.00752108 3.84834,-0.774384 5.23,-2.17l5.54,-5.55l2.96778e-07,-2.98485e-07c1.90745,-1.91843 3.12438,-4.41558 3.46,-7.1h0.16l1.39566e-07,-1.45947e-09c0.84379,-0.00882363 1.6796,-0.164481 2.47,-0.46v20.07l-4.94,-1.64v-3.16h-4.94v4.36l-2.77,5.55l-3.32,-5h-7.55l-3.49,5l-2.62,-5.24v-4.67h-4.94v3.16l-4.94,1.64Zm46.13,30.61l2.29,6.88h-57.33l2.29,-6.88l-8.83359e-08,2.64397e-07c0.737942,-2.20872 2.47128,-3.94206 4.68,-4.68l7.94,-2.65l5.81,11.64l6.77,-9.77h2.32l6.57,9.84l5.88,-11.76l8.09,2.7l-5.42311e-07,-1.799e-07c2.2103,0.73322 3.94734,2.46285 4.69,4.67Z" transform="translate(41, 26.9712)"></path></g></g><defs><path id="path-2" d="M0,0h4.94v4.94h-4.94Z"></path><path id="path-1" d="M0,0h24.69v4.94h-24.69Z"></path></defs></svg>