<?xml version="1.0" encoding="UTF-8"?><svg width="153" height="151" version="1.1" viewBox="0 0 153 151" xmlns="http://www.w3.org/2000/svg" xmlns:xlink="http://www.w3.org/1999/xlink"><!--Generated by IJSVG (https://github.com/curthard89/IJSVG)--><g transform="scale(0.999543)"><g fill="#42A5F5"><path d="M148.13,47.26v-33.14l1.25,0.71l2.45,-4.28l-18.51,-10.55l-18.51,10.55l2.45,4.28l1.25,-0.71v23.26h4.93v-26.08l9.88,-5.64l9.87,5.64v36h-133.31v-31l9.87,-5.64l9.88,5.64v16.2h4.93v-13.44l1.25,0.71l2.45,-4.28l-18.51,-10.58l-18.51,10.58l2.45,4.28l1.25,-0.71v28.2h-4.94v79h153.07v-79Zm-143.19,4.93h9.62l3.12274e-07,-1.51854e-06c-0.995925,4.84302 -4.77801,8.62904 -9.62,9.63Zm0,69.13v-9.62l2.5316e-07,5.18657e-08c4.84306,0.992214 8.62779,4.77694 9.62,9.62Zm143.19,0h-9.62l2.39002e-07,-1.16659e-06c0.992215,-4.84306 4.77694,-8.62779 9.62,-9.62Zm0,-14.61l-1.34611e-08,1.95993e-09c-7.56586,1.10158 -13.5084,7.04414 -14.61,14.61h-114l-8.63362e-08,-5.92274e-07c-1.10129,-7.55491 -7.02737,-13.4932 -14.58,-14.61v-39.9l1.18233e-06,-1.72771e-07c7.56743,-1.10582 13.5094,-7.05181 14.61,-14.62h114l-1.63227e-07,-1.12579e-06c1.09753,7.56975 7.041,13.5173 14.61,14.62Zm0,-44.89l-1.0913e-06,-2.25599e-07c-4.84199,-1.00096 -8.62407,-4.78698 -9.62,-9.63h9.62Z" transform="translate(0, 5)"></path><path d="M29.63,0l-1.29517e-06,3.55271e-14c-16.3642,7.15302e-07 -29.63,13.2658 -29.63,29.63c7.15302e-07,16.3642 13.2658,29.63 29.63,29.63c16.3642,-7.15302e-07 29.63,-13.2658 29.63,-29.63l1.01494e-06,0.0010213c-0.015974,-16.3573 -13.2716,-29.6139 -29.629,-29.631Zm0,54.32l-1.07923e-06,-1.42109e-14c-13.6359,-5.96045e-07 -24.69,-11.0541 -24.69,-24.69c5.96045e-07,-13.6359 11.0541,-24.69 24.69,-24.69c13.6359,5.96045e-07 24.69,11.0541 24.69,24.69l7.24064e-07,-0.000915873c-0.0105239,13.6313 -11.0577,24.6794 -24.6891,24.6909Z" transform="translate(46.9, 62.13)"></path><use transform="translate(0, 136.2)" xlink:href="#path-1"></use><use transform="translate(0, 146.07)" xlink:href="#path-1"></use><use transform="translate(130.85, 42.38)" xlink:href="#path-2"></use><path d="M0,0h4.94v19.75h-4.94Z" transform="translate(130.85, 17.69)"></path><path d="M0,0h4.94v24.69h-4.94Z" transform="translate(17.28, 22.63)"></path><path d="M11.14,14.64v27.74h4.94v-30.7l9.87,-5.92l9.88,5.92v30.7h4.94v-27.74l8.6,5.17l2.55,-4.23l-25.97,-15.58l-25.95,15.58l2.54,4.23l8.6,-5.17Z" transform="translate(50.58, 0)"></path><path d="M0,0h4.94v34.56h-4.94Z" transform="translate(74.07, 12.75)"></path><use transform="translate(29.63, 42.38)" xlink:href="#path-2"></use><path d="M16.05,5h-1.24v-5h-4.93v5h-1.24l-3.77666e-07,1.42109e-14c-4.77174,2.08579e-07 -8.64,3.86826 -8.64,8.64c2.08579e-07,4.77174 3.86826,8.64 8.64,8.64h7.41h-1.61732e-07c2.04345,-8.93222e-08 3.7,1.65655 3.7,3.7c8.93222e-08,2.04345 -1.65655,3.7 -3.7,3.7h-7.41h-1.61732e-07c-2.04345,-8.93222e-08 -3.7,-1.65655 -3.7,-3.7c0,0 0,0 0,0v-1.28h-4.94v1.23l-1.03127e-07,-8.96583e-05c0.00546121,4.76946 3.87045,8.63453 8.63991,8.64009h1.24v4.94h4.93009v-4.94h1.24l-3.77666e-07,-1.42109e-14c4.77174,2.08579e-07 8.64,-3.86826 8.64,-8.64c2.08579e-07,-4.77174 -3.86826,-8.64 -8.64,-8.64h-7.41l1.71299e-07,8.9024e-09c-2.04622,-0.106342 -3.61879,-1.85133 -3.51245,-3.89755c0.0986143,-1.89753 1.61493,-3.41384 3.51246,-3.51245h7.41l-8.72305e-08,-2.35119e-10c2.04507,0.00551229 3.70001,1.66492 3.7,3.71v1.23h4.94v-1.23l2.77768e-07,4.0061e-05c-0.0329232,-4.74992 -3.88993,-8.58464 -8.63996,-8.59004Z" transform="translate(64.19, 72)"></path></g></g><defs><path id="path-1" d="M0,0h153.07v4.94h-153.07Z"></path><path id="path-2" d="M0,0h4.94v4.94h-4.94Z"></path></defs></svg>