<?xml version="1.0" encoding="UTF-8"?><svg width="128" height="153" version="1.1" viewBox="0 0 128 153" xmlns="http://www.w3.org/2000/svg" xmlns:xlink="http://www.w3.org/1999/xlink"><!--Generated by IJSVG (https://github.com/curthard89/IJSVG)--><g transform="scale(0.999543)"><g fill="#42A5F5"><path d="M119.903,0h-66.33l-2.89625e-07,3.77867e-10c-4.22269,0.00550923 -7.64449,3.42731 -7.65,7.65v29.35l-25.92,20l-7.02777e-07,4.39375e-07c-2.78709,1.74248 -4.78792,4.4999 -5.58,7.69l-13.73,54.7l-1.27095e-06,5.05488e-06c-0.461188,1.83425 -0.692959,3.71865 -0.689999,5.60999v28.1h5.1v-28.1l-7.13974e-07,-0.00502046c-2.20974e-07,-1.46345 0.181803,-2.92122 0.541232,-4.33984l13.6888,-54.7751l-2.26084e-07,9.09508e-07c0.481687,-1.93777 1.70662,-3.60814 3.41,-4.65l0.22,-0.15l23,-17.63v32l-9.46,9.46l3.61,3.6l33.03,-33.04l7.11923e-08,-6.93145e-08c2.56419,-2.49655 6.66673,-2.44172 9.16329,0.122466c1.16038,1.19182 1.81801,2.78423 1.83671,4.44753v0.4l7.18542e-08,3.61764e-05c0.00301747,1.52135 -0.531827,2.99481 -1.51002,4.15999l-20.79,23l2.8875e-09,-3.16487e-09c-0.518151,0.567926 -0.749965,1.34064 -0.63,2.1l0.240023,1.29997c2.55,16.61 -6.86,31 -24,36.74l1.61,4.85l-1.00618e-06,3.19262e-07c7.46089,-2.36734 14.1295,-6.73582 19.28,-12.63h18.39l-9.6,13.71l-8.4647e-08,1.20771e-07c-3.24729,4.63312 -7.82643,8.16949 -13.13,10.14l-11.52,4.32l1.78335e-07,-6.7822e-08c-0.992404,0.377418 -1.64884,1.32825 -1.65,2.39v2.55h5.1v-0.78l9.87,-3.7l-1.60017e-06,5.9724e-07c6.2674,-2.33922 11.6786,-6.52314 15.52,-12l11.68,-16.68h36.9h-3.34829e-07c4.2305,1.84921e-07 7.66,-3.4295 7.66,-7.66v-104.6l1.35416e-07,0.000104272c-0.00546022,-4.2266 -3.4333,-7.65005 -7.6599,-7.6501Zm2.56,112.25l7.11111e-11,-1.82043e-08c-0.00550762,1.40994 -1.15005,2.55001 -2.56,2.55h-57.9l-5.5651e-07,9.55425e-07c4.32945,-7.43287 5.92145,-16.1464 4.5,-24.63v-0.0700037l20,-22.1l-6.29723e-08,7.32819e-08c1.8007,-2.09551 2.79057,-4.76709 2.79,-7.53v-0.47l2.595e-07,0.00245047c0,-6.38993 -5.18007,-11.57 -11.57,-11.57c-3.06711,0 -6.00871,1.21783 -8.17827,3.38582l-18.5417,18.5617v-62.73l-7.67428e-08,1.9704e-05c0.00550114,-1.41384 1.1561,-2.55552 2.56994,-2.55002c1.30207e-05,5.06627e-08 2.60415e-05,1.01425e-07 3.90622e-05,1.52286e-07h66.33l-1.11827e-07,8.56204e-13c1.40995,-1.08187e-05 2.55449,1.14006 2.56,2.55Z" transform="translate(-0.00296018, 0)"></path><path d="M0,0h5.1v38.27h-5.1Z" transform="translate(56.13, 15.31)"></path><path d="M0,0h5.1v25.51h-5.1Z" transform="translate(66.33, 17.86)"></path><path d="M0,0h5.1v10.21h-5.1Z" transform="translate(84.19, 76.54)"></path><path d="M0,0h5.1v12.76h-5.1Z" transform="translate(84.19, 91.84)"></path><use transform="translate(102.05, 56.13)" xlink:href="#path-1"></use><use transform="translate(112.25, 56.13)" xlink:href="#path-1"></use></g></g><defs><path id="path-1" d="M0,0h5.1v51.02h-5.1Z"></path></defs></svg>