<?xml version="1.0" encoding="UTF-8"?><svg width="153" height="153" version="1.1" viewBox="0 0 153 153" xmlns="http://www.w3.org/2000/svg" xmlns:xlink="http://www.w3.org/1999/xlink"><!--Generated by IJSVG (https://github.com/curthard89/IJSVG)--><g transform="scale(0.999543)"><g fill="#42A5F5"><path d="M109.66,12.76l-3.57653e-07,-6.99742e-10c-5.63264,-0.0110203 -10.1945,-4.57736 -10.2,-10.21v0c0,-1.40833 -1.14167,-2.55 -2.55,-2.55h-81.64l-7.76848e-09,1.21872e-10c-1.39268,0.0218487 -2.51017,1.15715 -2.51,2.55l-2.76543e-11,2.83082e-08c-0.00550063,5.63264 -4.56736,10.199 -10.2,10.21l1.42249e-08,5.57847e-11c-1.40832,-0.00552286 -2.55446,1.13167 -2.55998,2.53998c-1.30976e-05,0.00333985 -1.96336e-05,0.00667973 -1.96079e-05,0.0100196v20.41l-7.53602e-11,1.92229e-05c-2.12651e-07,1.40833 1.14167,2.55 2.55,2.55c0.00333988,5.04315e-10 0.00667975,-6.56063e-06 0.0100196,-1.96834e-05l-1.99147e-07,-3.89718e-10c5.62873,0.0110149 10.189,4.57127 10.2,10.2l-1.5734e-09,4.0122e-07c-0.00552263,1.40832 1.13167,2.55446 2.53998,2.55998c0.00333985,1.3097e-05 0.00667973,1.96325e-05 0.0100196,1.96063e-05h81.64l4.14987e-08,3.2685e-13c1.40833,1.08062e-05 2.55001,-1.14165 2.55002,-2.54998c2.56272e-08,-0.00333988 -6.51039e-06,-0.00667975 -1.9608e-05,-0.0100196l-3.99354e-08,2.04374e-05c0.0109932,-5.62874 4.57124,-10.189 10.2,-10.2l-1.11464e-07,-1.42109e-14c1.40833,6.15599e-08 2.55,-1.14167 2.55,-2.55v-20.41l1.92625e-08,-0.000313431c0,-1.40833 -1.14167,-2.55 -2.55,-2.55c-0.0134318,0 -0.0268633,0.000106125 -0.0402934,0.000318364Zm-2.55,20.63l-1.16287e-06,1.98507e-07c-6.4175,1.0955 -11.4445,6.1225 -12.54,12.54h-77l4.33686e-07,2.54777e-06c-1.09035,-6.40549 -6.09803,-11.4292 -12.5,-12.54v-15.74l8.23312e-07,-1.40543e-07c6.4175,-1.0955 11.4445,-6.1225 12.54,-12.54h77l1.67726e-07,9.8255e-07c1.0955,6.4175 6.1225,11.4445 12.54,12.54Z" transform="translate(10.24, 30.61)"></path><path d="M12.76,9.23706e-14l3.18518e-07,-9.23706e-14c-7.04715,1.98821e-06 -12.76,5.71285 -12.76,12.76c1.98821e-06,7.04715 5.71285,12.76 12.76,12.76c7.04715,-1.98821e-06 12.76,-5.71285 12.76,-12.76c-9.40062e-10,-0.00333203 -1.30702e-06,-0.00666405 -3.91825e-06,-0.00999608l4.32077e-07,0.00027787c-0.0108718,-7.04096 -5.71875,-12.7446 -12.7597,-12.7503Zm0,20.41l-1.62709e-07,-2.1241e-10c-4.2305,-0.00552294 -7.65552,-3.4395 -7.64999,-7.66999c0.00552294,-4.2305 3.4395,-7.65552 7.66999,-7.64999c4.22659,0.00551784 7.65,3.43339 7.65,7.65999l2.64322e-12,6.36471e-06c0,4.2305 -3.4295,7.66 -7.66,7.66c-0.00333546,0 -0.00667091,-2.17858e-06 -0.0100064,-6.53573e-06Z" transform="translate(53.57, 43.37)"></path><path d="M150.52,0h-127.52h-1.11464e-07c-1.40833,6.15599e-08 -2.55,1.14167 -2.55,2.55c0,0 0,0 0,0v7.65h-7.69l1.42249e-08,5.57776e-11c-1.40832,-0.00552286 -2.55446,1.13167 -2.55998,2.53998c-1.30976e-05,0.00333985 -1.96336e-05,0.00667973 -1.96079e-05,0.0100196v7.66h-7.65l-1.45616e-07,-1.79199e-11c-1.40833,-0.000173196 -2.55014,1.14136 -2.55031,2.54969c-1.65268e-06,0.0134385 0.000102927,0.0268769 0.000313728,0.0403138v66.29l2.84217e-14,3.85039e-07c2.12651e-07,1.40833 1.14167,2.55 2.55,2.55h127.56h-1.11464e-07c1.40833,6.15599e-08 2.55,-1.14167 2.55,-2.55c0,0 0,-1.42109e-14 0,-1.42109e-14v-7.65h7.65l4.14987e-08,3.2685e-13c1.40833,1.08062e-05 2.55001,-1.14165 2.55002,-2.54998c2.56273e-08,-0.00333988 -6.51039e-06,-0.00667975 -1.9608e-05,-0.0100196v-7.65h7.66l-1.11464e-07,-1.42109e-14c1.40833,6.15599e-08 2.55,-1.14167 2.55,-2.55c0,0 0,-1.42109e-14 0,-1.42109e-14v-66.33h2.84217e-14c0,-1.40833 -1.14167,-2.55 -2.55,-2.55Zm-23,79.08v7.66h-122.42v-61.23h122.46Zm10.2,-2.55h-5.1v-53.53v0c0,-1.40833 -1.14167,-2.55 -2.55,-2.55c0,0 0,0 0,0h-114.76v-5.1h122.45Zm10.28,-10.2h-5.11v-53.58v0c0,-1.40833 -1.14167,-2.55 -2.55,-2.55c0,0 0,0 0,0h-114.83v-5.1h122.49Z" transform="translate(-0.000315379, 0)"></path><path d="M78.0612,23.8453l-30.61,-23l5.02358e-08,3.74678e-08c-1.13334,-0.845288 -2.73733,-0.611778 -3.58262,0.521561c-0.31912,0.427867 -0.496518,0.944782 -0.507379,1.47844v10.2h-40.82l-8.73566e-08,6.68322e-10c-1.40828,0.0107742 -2.54119,1.16115 -2.53042,2.56943c7.79558e-05,0.0101895 0.000216987,0.0203785 0.000417087,0.0305664v20.41l2.84217e-14,-3.85039e-07c-2.12651e-07,1.40833 1.14167,2.55 2.55,2.55c0,0 0,0 0,0h40.82v12.76l-3.49548e-08,3.42806e-06c-0.0144149,1.41378 1.11999,2.57155 2.53377,2.58597c0.603915,0.00615752 1.19056,-0.201397 1.65624,-0.585973l30.59,-25.52l2.80106e-08,-2.3298e-08c1.08275,-0.90058 1.23042,-2.50838 0.329839,-3.59113c-0.126884,-0.15255 -0.27114,-0.289768 -0.429839,-0.408871Zm-29.6,22.1v-9.86h-1.42109e-14c0,-1.40833 -1.14167,-2.55 -2.55,-2.55c0,0 -1.42109e-14,0 -1.42109e-14,0h-40.81v-15.34h40.81l-1.11464e-07,-1.42109e-14c1.40833,6.15599e-08 2.55,-1.14167 2.55,-2.55v-7.65l24,18Z" transform="translate(73.9888, 99.1547)"></path><path d="M12.76,0h-10.21l-1.11464e-07,1.42109e-14c-1.40833,6.15599e-08 -2.55,1.14167 -2.55,2.55v20.41l2.84217e-14,-3.85039e-07c-2.12651e-07,1.40833 1.14167,2.55 2.55,2.55c0,0 7.10543e-15,0 7.10543e-15,0h10.21h-1.11464e-07c1.40833,6.15599e-08 2.55,-1.14167 2.55,-2.55c0,0 0,0 0,0v-20.41v1.42109e-14c0,-1.40833 -1.14167,-2.55 -2.55,-2.55Zm-2.55,20.41h-5.1v-15.31h5.1Z" transform="translate(53.57, 112.25)"></path><path d="M12.76,0h-10.21l-1.11464e-07,1.42109e-14c-1.40833,6.15599e-08 -2.55,1.14167 -2.55,2.55v20.41l2.84217e-14,-3.85039e-07c-2.12651e-07,1.40833 1.14167,2.55 2.55,2.55c0,0 1.42109e-14,0 1.42109e-14,0h10.21l-1.11464e-07,-2.84217e-14c1.40833,6.15599e-08 2.55,-1.14167 2.55,-2.55c0,0 0,0 0,0v-20.41v1.42109e-14c0,-1.40833 -1.14167,-2.55 -2.55,-2.55Zm-2.55,20.41h-5.11v-15.31h5.11Z" transform="translate(28.06, 112.25)"></path><path d="M12.76,0h-10.21l-1.11464e-07,1.42109e-14c-1.40833,6.15599e-08 -2.55,1.14167 -2.55,2.55v20.41l3.01981e-14,-3.85039e-07c-2.12651e-07,1.40833 1.14167,2.55 2.55,2.55c0,0 1.06581e-14,0 1.06581e-14,0h10.21l-1.11464e-07,-2.84217e-14c1.40833,6.15599e-08 2.55,-1.14167 2.55,-2.55c0,0 0,0 0,0v-20.41l-1.77636e-15,1.42109e-14c0,-1.40833 -1.14167,-2.55 -2.55,-2.55Zm-2.56,20.41h-5.1v-15.31h5.1Z" transform="translate(-2.12651e-07, 112.25)"></path></g></g></svg>