<?xml version="1.0" encoding="UTF-8"?><svg version="1.1" viewBox="0 0 163.57 177" xmlns="http://www.w3.org/2000/svg" xmlns:xlink="http://www.w3.org/1999/xlink"><!--Generated by IJSVG (https://github.com/curthard89/IJSVG)--><g fill="#42A5F5"><path d="M41.45,65.46l-7.87384e-07,-6.28237e-07c2.9741,2.37297 6.66524,3.66681 10.47,3.67h4.86v2.47l4.29461e-08,1.59319e-05c0.0110192,4.08624 3.32377,7.3945 7.41002,7.39998h32.1l-3.53507e-07,4.76746e-10c4.08462,-0.00550841 7.39449,-3.31538 7.4,-7.4v-12.35h2.47l2.6241e-07,1.35412e-09c4.07028,0.0210039 7.38693,-3.26159 7.40793,-7.33187c0.00955863,-1.85234 -0.678757,-3.64035 -1.92793,-5.00813l6.40676e-08,-6.95279e-08c2.57198,-2.79118 2.57198,-7.08882 -1.28135e-07,-9.88l-1.28514e-07,1.3902e-07c2.57545,-2.78598 2.57545,-7.08402 2.57029e-07,-9.87l1.83274e-07,-2.00088e-07c1.23572,-1.34908 1.92389,-3.11052 1.93,-4.94l2.73984e-07,0.000102183c-0.0109327,-4.08787 -3.32203,-7.39906 -7.4099,-7.4101h-2.47v-7.4l2.92744e-12,-6.58933e-06c0,-4.08857 -3.31155,-7.40454 -7.40012,-7.40999h-32.1l3.80708e-07,-5.12728e-10c-4.09015,0.00550841 -7.40449,3.31985 -7.41,7.41v4.93h-4l-3.18564e-07,1.68392e-10c-2.60012,0.00137447 -5.16431,0.607331 -7.49,1.77l-11.29,5.64h-34v4.94h35.15l12.31,-6.16l1.71697e-07,-8.56366e-08c1.64316,-0.81955 3.4538,-1.2474 5.29,-1.25h4v36.66l11.29,1.88l1.88068e-07,2.91758e-08c2.29764,0.356442 3.87128,2.508 3.51484,4.80563c-0.320834,2.06811 -2.11212,3.58655 -4.20485,3.56437h-15.43l2.91944e-07,2.65061e-10c-2.68236,-0.00243543 -5.2844,-0.915618 -7.38,-2.59l-9.11,-7.28h-35.43v4.93h33.7Zm62.24,-45.71h2.47h-1.07967e-07c1.36414,-5.96286e-08 2.47,1.10586 2.47,2.47c5.96286e-08,1.36414 -1.10586,2.47 -2.47,2.47h-2.47Zm0,9.88h2.47l1.7392e-08,-1.1083e-09c1.36138,-0.0867544 2.53533,0.946535 2.62208,2.30792c0.0867544,1.36138 -0.946535,2.53533 -2.30792,2.62208c-0.104616,0.00666667 -0.20955,0.00666667 -0.314166,-2.21662e-09h-2.47Zm0,9.87h2.47l1.02886e-07,1.42109e-14c1.36414,1.0299e-07 2.47,1.10586 2.47,2.47c-1.0299e-07,1.36414 -1.10586,2.47 -2.47,2.47h-2.47Zm0,9.88h2.47h1.02886e-07c1.36414,1.0299e-07 2.47,1.10586 2.47,2.47c-1.0299e-07,1.36414 -1.10586,2.47 -2.47,2.47h-2.47Zm-9.87,-44.44h2.47l-1.68273e-08,1.42109e-13c1.35862,-1.12346e-05 2.46001,1.10136 2.46002,2.45998c2.76199e-08,0.00334012 -6.74744e-06,0.00668023 -2.03251e-05,0.0100203v64.19l8.29488e-11,2.0243e-05c0,1.36025 -1.09978,2.46448 -2.46002,2.46998h-2.46998Zm-32.1,64.19h5.66l-1.64123e-07,4.13851e-09c5.0518,-0.127386 9.04383,-4.32595 8.91644,-9.37774c-0.108284,-4.29428 -3.18924,-7.93507 -7.40644,-8.75226l-7.17,-1.2v-42.39l2.84217e-14,3.7296e-07c-2.0598e-07,-1.36414 1.10586,-2.47 2.47,-2.47h24.69v69.13h-24.69l-4.89599e-08,-1.97034e-10c-1.36187,-0.00548044 -2.46452,-1.10813 -2.47,-2.47Z" transform="translate(0, -9.29734e-09)"></path><path d="M19.7517,17.1465l2.94672e-07,-0.00236492c0,-1.27112 -0.255359,-2.52928 -0.750922,-3.69981l9.4695e-08,-2.24892e-07c0.494504,-1.1744 0.74949,-2.43573 0.75,-3.71l2.90032e-07,9.11308e-06c-0.17357,-5.45381 -4.73546,-9.73429 -10.1893,-9.56072c-5.21001,0.165811 -9.3949,4.3507 -9.56072,9.56071l-2.76886e-07,0.000445594c-0.000764636,1.27843 0.254627,2.54406 0.751094,3.72215l-9.72479e-08,2.29862e-07c-0.495271,1.17066 -0.750317,2.42888 -0.75,3.7l-2.68334e-07,-8.43132e-06c0.17357,5.45381 4.73546,9.73429 10.1893,9.56072c5.21001,-0.165811 9.3949,-4.3507 9.56072,-9.56071Zm-5.63,-2.46l-3.01526e-08,-4.9979e-08c0.448018,0.742606 0.686465,1.59272 0.69,2.46l-4.09038e-09,-9.08442e-08c0.12272,2.72553 -1.98727,5.03448 -4.7128,5.1572c-2.72553,0.12272 -5.03448,-1.98727 -5.1572,-4.7128c-0.00666667,-0.148062 -0.00666667,-0.296348 -8.18076e-09,-0.44441l-9.29526e-08,2.28212e-05c0.00353042,-0.867278 0.241974,-1.7174 0.689988,-2.46l0.720012,-1.23002l-0.72,-1.25l1.08969e-07,1.8062e-07c-0.448018,-0.742606 -0.686466,-1.59272 -0.69,-2.46l2.87572e-09,6.38675e-08c-0.12272,-2.72553 1.98727,-5.03448 4.7128,-5.1572c2.72553,-0.12272 5.03448,1.98727 5.1572,4.7128c0.00666667,0.148062 0.00666667,0.296348 5.75145e-09,0.44441l9.35554e-08,-2.29694e-05c-0.0035304,0.867278 -0.241974,1.7174 -0.689988,2.46l-0.720012,1.25002Z" transform="translate(64.1883, 7.54354)"></path><path d="M72.752,13.54l-3.23312e-07,-2.57635e-07c-2.97258,-2.36873 -6.65907,-3.66218 -10.46,-3.67h-4.87v-2.46l3.06954e-12,-6.74824e-06c0,-4.08853 -3.31148,-7.40448 -7.40001,-7.40999h-32.1l3.80708e-07,-5.12728e-10c-4.09015,0.00550841 -7.40449,3.31985 -7.41,7.41v12.34h-2.46h-3.23901e-07c-4.09243,1.78886e-07 -7.41,3.31757 -7.41,7.41c0,1.25107e-07 1.42109e-14,2.64704e-07 2.13163e-14,3.89811e-07l-1.27119e-07,-4.91371e-05c0.00471973,1.82676 0.693239,3.58555 1.92997,4.93001l-4.95936e-07,5.38203e-07c-2.57198,2.79118 -2.57198,7.08882 9.91872e-07,9.88l-4.95936e-07,5.38203e-07c-2.57198,2.79118 -2.57198,7.08882 9.91872e-07,9.88l1.48665e-07,-1.61615e-07c-1.23673,1.34447 -1.92525,3.10327 -1.92997,4.93003l8.52651e-14,1.11888e-06c6.1794e-07,4.09243 3.31757,7.41 7.41,7.41h2.46v7.41l4.29497e-08,1.59333e-05c0.0110192,4.08624 3.32376,7.3945 7.41002,7.39998h32.1l-3.53507e-07,4.76717e-10c4.08462,-0.00550841 7.39449,-3.31538 7.4,-7.4v-4.94h4l8.51623e-07,-4.50171e-10c2.60012,-0.00137455 5.16431,-0.607331 7.49,-1.77l11.28,-5.64h34v-4.93h-35.13l-12.32,6.15l7.44754e-07,-3.72753e-07c-1.63926,0.820457 -3.44688,1.2484 -5.28,1.25h-4v-36.65l-11.29,-1.89l-3.95079e-07,-6.12094e-08c-2.29771,-0.355983 -3.87178,-2.50722 -3.5158,-4.80493c0.3211,-2.07255 2.11871,-3.59269 4.2158,-3.56507h15.46l2.13158e-07,1.64671e-09c2.65792,0.0205334 5.23204,0.932568 7.31,2.59l9.11,7.29h35.43v-4.94h-33.7Zm-62.24,45.71h-2.46l6.09618e-08,-3.88479e-09c-1.36138,0.0867545 -2.53533,-0.946535 -2.62208,-2.30792c-0.0867545,-1.36138 0.946535,-2.53533 2.30792,-2.62208c0.104616,-0.00666667 0.20955,-0.00666667 0.314166,-7.76959e-09h2.46Zm0,-9.87h-2.46h1.02886e-07c-1.36414,1.0299e-07 -2.47,-1.10586 -2.47,-2.47c-1.0299e-07,-1.36414 1.10586,-2.47 2.47,-2.47c5.48669e-08,0 1.09734e-07,0 1.64601e-07,0h2.46Zm0,-9.88h-2.46h1.02886e-07c-1.36414,1.0299e-07 -2.47,-1.10586 -2.47,-2.47c-1.0299e-07,-1.36414 1.10586,-2.47 2.47,-2.47c5.48669e-08,0 1.09734e-07,0 1.64601e-07,0h2.46Zm0,-9.87h-2.46h-2.43734e-08c-1.36414,-5.96286e-08 -2.47,-1.10586 -2.47,-2.47c5.96286e-08,-1.36414 1.10586,-2.47 2.47,-2.47h2.46Zm9.88,44.44h-2.47l-4.89599e-08,-1.97019e-10c-1.36187,-0.00548044 -2.46452,-1.10813 -2.47,-2.47v-64.19l2.84217e-14,-3.7296e-07c2.0598e-07,-1.36414 1.10586,-2.47 2.47,-2.47h2.47Zm32.1,-64.2h-5.66l-4.47253e-08,-1.63013e-10c-5.05337,-0.0184173 -9.16487,4.06322 -9.18329,9.11659c-0.0163861,4.49605 3.23614,8.33782 7.67329,9.06341l7.17,1.2v42.35l-2.29711e-08,5.70663e-06c-0.00548355,1.36187 -1.10814,2.46452 -2.47001,2.46999h-24.69v-69.13h24.69h-1.07967e-07c1.36414,-5.96286e-08 2.47,1.10586 2.47,2.47Z" transform="translate(49.358, 98)"></path><path d="M0.173557,10.3628l8.00073e-08,3.53645e-05c0.00287506,1.2698 0.254273,2.52677 0.740013,3.7l-3.30339e-08,7.96512e-08c-0.486483,1.173 -0.737906,2.43012 -0.74,3.7l-2.68334e-07,8.43132e-06c-0.17357,5.45381 4.10691,10.0157 9.56072,10.1893c5.45381,0.17357 10.0157,-4.10691 10.1893,-9.56072c0.00666649,-0.20947 0.00666631,-0.4191 -5.36675e-07,-0.62857l3.05897e-07,7.04248e-05c-0.00551403,-1.27052 -0.26032,-2.52761 -0.749973,-3.7l1.81993e-07,-4.36492e-07c0.488916,-1.17262 0.743702,-2.42956 0.75,-3.7l2.90032e-07,-9.11308e-06c0.17357,-5.45381 -4.10691,-10.0157 -9.56072,-10.1893c-5.45381,-0.17357 -10.0157,4.10691 -10.1893,9.56072c-0.00666647,0.20947 -0.00666628,0.4191 5.80072e-07,0.62857Zm5.63,2.45l3.0692e-07,5.04055e-07c-0.449791,-0.738691 -0.691646,-1.58518 -0.7,-2.45l5.68434e-14,-5.78732e-07c4.1196e-07,-2.72829 2.21171,-4.94 4.94,-4.94c2.72829,4.1196e-07 4.94,2.21171 4.94,4.94l8.66925e-08,-1.54781e-05c-0.00483756,0.863949 -0.243253,1.71051 -0.689992,2.45l-0.750008,1.23001l0.73,1.24l7.64788e-08,1.27586e-07c0.445732,0.743592 0.684,1.59307 0.69,2.46v-1.67187e-07c0,2.72829 -2.21171,4.94 -4.94,4.94c-2.72829,0 -4.94,-2.21171 -4.94,-4.94l-3.38974e-08,3.09362e-06c0.00950828,-0.867791 0.251211,-1.71721 0.699998,-2.46l0.760002,-1.24Z" transform="translate(79.4564, 141.957)"></path></g></svg>