<?xml version="1.0" encoding="UTF-8"?><svg width="153" height="125" version="1.1" viewBox="0 0 153 125" xmlns="http://www.w3.org/2000/svg" xmlns:xlink="http://www.w3.org/1999/xlink"><!--Generated by IJSVG (https://github.com/curthard89/IJSVG)--><g transform="scale(0.999543)"><g fill="#42A5F5"><path d="M131.38,4.51988e-08h-118.5l5.87143e-07,-4.5479e-10c-7.10724,0.00550489 -12.869,5.76276 -12.88,12.87v67l-4.54653e-07,-0.000146953c0.0219292,7.10105 5.77878,12.8491 12.8799,12.8601h118.5l1.54682e-07,-2.39652e-10c7.10886,-0.0110131 12.869,-5.77114 12.88,-12.88v-67l-1.79904e-07,-5.79369e-05c-0.0220607,-7.09937 -5.78051,-12.8444 -12.8799,-12.8499Zm7.72,79.85l2.70006e-12,6.46831e-06c0,4.26526 -3.45475,7.72448 -7.72001,7.72999h-118.5l-3.33177e-07,-4.30191e-10c-4.26688,-0.00550939 -7.72449,-3.46312 -7.73,-7.73v-67l9.21533e-09,-3.56709e-06c0.0110141,-4.26297 3.46702,-7.7145 7.73,-7.72h118.5l-3.5498e-07,-4.59224e-10c4.26526,0.0055176 7.72,3.46474 7.72,7.73Z" transform="translate(-4.53742e-07, 31.87)"></path><path d="M28.34,7.50432e-08h-25.76h-1.12775e-07c-1.42489,6.22841e-08 -2.58,1.15511 -2.58,2.58v20.61l-7.36122e-11,1.90673e-05c-2.14319e-07,1.41937 1.15063,2.57 2.57,2.57c0.00333983,5.04301e-10 0.00667965,-6.50937e-06 0.0100195,-1.95296e-05h25.76h-1.12338e-07c1.41937,6.20427e-08 2.57,-1.15063 2.57,-2.57v-20.61l7.27809e-11,-1.93799e-05c0,-1.421 -1.14903,-2.57448 -2.57002,-2.57998Zm-2.58,20.61h-20.64v-15.45h20.64Z" transform="translate(12.88, 44.74)"></path><use transform="translate(15.46, 55.05)" xlink:href="#path-1"></use><use transform="translate(33.49, 55.05)" xlink:href="#path-1"></use><use transform="translate(12.88, 85.96)" xlink:href="#path-2"></use><use transform="translate(38.64, 85.96)" xlink:href="#path-2"></use><use transform="translate(64.4, 85.96)" xlink:href="#path-2"></use><path d="M0,0h66.98v5.15h-66.98Z" transform="translate(12.88, 101.42)"></path><path d="M135.9,19.8959l-117.01,-18.78l7.59828e-07,1.20716e-07c-7.02381,-1.11589 -13.6243,3.66776 -14.75,10.69l-4.14,25.76l5.08,0.82l4.15,-25.76l-8.57094e-08,5.30256e-07c0.680624,-4.21079 4.63593,-7.08007 8.85,-6.42l117,18.75l3.58876e-07,5.72075e-08c4.20794,0.670777 7.07949,4.62028 6.42,8.83v0l-8.69,55.23l5.1,0.8l8.67,-55.21v0l5.67976e-07,-3.6627e-06c1.08624,-7.00485 -3.68308,-13.5738 -10.68,-14.71Z" transform="translate(6.32, -0.955893)"></path><use transform="translate(92.74, 47.32)" xlink:href="#path-3"></use><use transform="translate(103.04, 47.32)" xlink:href="#path-3"></use><use transform="translate(113.34, 47.32)" xlink:href="#path-3"></use><use transform="translate(123.65, 47.32)" xlink:href="#path-3"></use><g transform="translate(80.22, 178.04)"><g fill="#42A5F5" transform="scale(1) rotate(-80.35)"><path d="M0,0h5.15v7.84h-5.15Z" transform="translate(142.96, 37.6)"></path></g></g><g transform="translate(21.83, 79.33)"><g fill="#42A5F5" transform="scale(1) rotate(-80.27)"><path d="M0,0h5.15v91.47h-5.15Z" transform="translate(55.39, -19.02)"></path></g></g></g></g><defs><path id="path-2" d="M0,0h15.46v5.15h-15.46Z"></path><path id="path-3" d="M0,0h5.15v10.3h-5.15Z"></path><path id="path-1" d="M0,0h7.73v5.15h-7.73Z"></path></defs></svg>