<?xml version="1.0" encoding="UTF-8"?><svg width="153" height="153" version="1.1" viewBox="0 0 153 153" xmlns="http://www.w3.org/2000/svg" xmlns:xlink="http://www.w3.org/1999/xlink"><!--Generated by IJSVG (https://github.com/curthard89/IJSVG)--><g transform="scale(0.999543)"><g fill="#42A5F5"><path d="M77.7136,107l-15.07,-3.48v-6.3l-8.65433e-07,7.75104e-07c3.73304,-3.3434 6.24246,-7.83784 7.13,-12.77l7.07626e-07,-5.6539e-07c6.52534,-5.21372 10.3442,-13.0977 10.39,-21.45v-9.53l1.56241e-07,9.40255e-05c-0.00634478,-3.83175 -2.71269,-7.12797 -6.46991,-7.88008l5.10275e-07,8.93266e-07c-6.20543,-10.863 -18.4833,-16.7551 -30.84,-14.8l-2.9121e-06,4.51314e-07c-1.7899,0.277397 -3.5483,0.729558 -5.24999,1.35v-20.66l10,-5.72l10,5.72v16.43h5v-13.56l1.26,0.72l2.48,-4.35l-18.7201,-10.72l-18.77,10.72l2.49,4.35l1.26,-0.72v20.14l-2.21331e-06,1.26767e-06c-14.315,8.19893 -19.2731,26.4501 -11.0742,40.7651c1.01518,1.77247 2.20949,3.43613 3.56418,4.96486v0.26l-2.89832e-07,-0.00360162c9.65733e-07,6.39576 2.73154,12.4871 7.50731,16.7412v6.3l-15.0773,3.48239l-1.96875e-07,4.46576e-08c-10.2614,2.32762 -17.5236,11.4781 -17.46,22v24.12h95.12v-24.12l4.986e-07,-8.93545e-05c0.0587009,-10.5236 -7.20681,-19.673 -17.4701,-21.9999Zm-11.55,2.47l-6.79,10.19l-7.38,-4.43l8.76,-7Zm-18.54,2.84l-10,-8v-3.67l-3.54647e-07,-1.78328e-07c6.29138,3.1635 13.7086,3.1635 20,3.56655e-07v3.67Zm-22.53,-50.64v9.6l-2.61313e-07,-5.48119e-07c-5.94178,-12.4632 -0.65511,-27.3834 11.8081,-33.3252c12.1993,-5.81596 26.8122,-0.883934 32.9919,11.1352l0.7,1.36h1.53h-1.31134e-07c1.65685,-7.24234e-08 3,1.34315 3,3v9.56l6.0136e-07,-0.000210869c-0.0146285,5.13793 -1.77799,10.1178 -4.99987,14.12v-15.3998l-3.46,1.43c-0.06,0 -5.74,2.31 -19,2.31c-13.26,0 -19,-2.28 -19,-2.3Zm5,18.81v-11.68l-7.01558e-06,-1.47725e-06c5.76206,1.2133 11.6425,1.7735 17.53,1.67l3.84374e-06,6.77301e-08c5.88421,0.103685 11.7613,-0.45652 17.52,-1.67v11.68l7.52865e-07,-1.28522e-05c-0.566159,9.66498 -8.86014,17.041 -18.5251,16.4749c-8.87458,-0.519858 -15.955,-7.60029 -16.4749,-16.4749Zm4.39,27.74l8.76,7l-7.38,4.43l-6.79,-10.19Zm3.39,39.84h-17.79v-12.51h-5v12.51h-10v-19.06l2.54295e-07,7.09115e-05c-0.029308,-8.16805 5.6144,-15.2622 13.5799,-17.0701l5.21,-1.2l10.49,15.73l3,-1.79l2.7,4Zm14.46,0h-9.43l2.3,-20.65l-3.58,-5.41l6,-3.6l6,3.6l-3.58,5.37Zm37.84,0h-10v-12.51h-5v12.51h-17.8l-2.16,-19.39l2.7,-4l3,1.79l10.49,-15.73l5.21,1.2l9.40633e-07,2.14641e-07c7.95759,1.81583 13.5914,8.90793 13.56,17.07v19.11Z" transform="translate(28.7164, 0)"></path><use transform="translate(28.78, 108.01)" xlink:href="#path-1"></use><path d="M28.78,11.48v91.53h5v-88.66l1.26,0.72l2.49,-4.35l-18.77,-10.72l-18.76,10.72l2.48,4.35l1.27,-0.72v138.72h5v-141.59l10.01,-5.72l10.02,5.72Z"></path><path d="M0,0h5.01v120.15h-5.01Z" transform="translate(16.26, 12.89)"></path><use transform="translate(143.92, 148.06)" xlink:href="#path-1"></use><use transform="translate(118.89, 103.01)" xlink:href="#path-1"></use><path d="M18.77,0l-18.77,10.72l2.49,4.34l1.26,-0.72v56.12h5v-58.98l10.02,-5.72l10.01,5.72v104.04h5.01v-101.18l1.26,0.72l2.48,-4.34l-18.76,-10.72Z" transform="translate(115.14, 27.54)"></path><path d="M0,0h5.01v92.62h-5.01Z" transform="translate(131.41, 40.43)"></path><path d="M0,0h5.01v12.52h-5.01Z" transform="translate(73.83, 12.89)"></path><use transform="translate(16.26, 138.05)" xlink:href="#path-1"></use><use transform="translate(16.26, 148.06)" xlink:href="#path-1"></use><path d="M0,0h5.01v15.02h-5.01Z" transform="translate(131.41, 138.05)"></path></g></g><defs><path id="path-1" d="M0,0h5.01v5.01h-5.01Z"></path></defs></svg>