<svg id="Layer_1" xmlns="http://www.w3.org/2000/svg" xmlns:xlink="http://www.w3.org/1999/xlink" width="20" height="80" viewBox="0 0 20 80" enable-background="new 0 0 20 80"><path fill="#1e88e5" d="M3 40h14c1.656.0 3 1.344 3 3.001v14C20 58.657 18.656 60 17 60H3c-1.657.0-3-1.343-3-2.999v-14C0 41.344 1.343 40 3 40z"/><path fill="#cfd8dc" d="M3 0h14c1.656.0 3 1.344 3 3.001v14C20 18.657 18.656 20 17 20H3c-1.657.0-3-1.343-3-2.999v-14C0 1.344 1.343.0 3 0z"/><path fill="#b0bec5" d="M3 20h14c1.656.0 3 1.344 3 3.001v14C20 38.657 18.656 40 17 40H3c-1.657.0-3-1.343-3-2.999v-14C0 21.344 1.343 20 3 20z"/><path fill="#fff" d="M8 55.091 3.939 51.029 6.061 48.909 8 50.85 13.939 44.909 16.061 47.029z"/><path fill="#42a5f5" d="M3 60h14c1.656.0 3 1.344 3 3.001v14C20 78.657 18.656 80 17 80H3c-1.657.0-3-1.343-3-2.999v-14C0 61.344 1.343 60 3 60z"/><path fill="#fff" d="M8 75.091 3.939 71.029 6.061 68.909 8 70.85 13.939 64.909 16.061 67.029z"/></svg>