<svg id="Layer_1" xmlns="http://www.w3.org/2000/svg" xmlns:xlink="http://www.w3.org/1999/xlink" width="40" height="44" viewBox="0 0 40 44" enable-background="new 0 0 40 44"><path fill="#263238" d="M0 0h40v44H0z"/><path fill="#2a363c" d="M20.712 14.009C21.178 18.569 23.194 22 25.611 22H15.61c2.421.0 4.44-3.442 4.9-8.014C20.053 16.274 18.032 18 15.609 18c-2.76.0-5-2.24-5-5 0-6.53 10-9.465 10-13 0 2.765 6.111 5.16 8.781 9.19-1.615.515-2.78 2.025-2.78 3.81.0 1.64.985 3.05 2.4 3.665C28.12 17.495 26.925 18 25.61 18 23.196 18 21.18 16.286 20.712 14.009zM26.671 1.061c-.977.976-1.061 2.475-1.061 2.475s1.498-.084 2.475-1.061S29.146.0 29.146.0 27.647.084 26.671 1.061z"/><path fill="#2a363c" d="M40 44h-4.999c2.421.0 4.44-3.442 4.9-8.014C39.443 38.274 37.423 40 35 40c-2.76.0-5-2.24-5-5 0-6.529 10-9.465 10-13V44z"/><path fill="#2a363c" d="M0 22c0 2.766 6.111 5.16 8.781 9.189-1.615.516-2.78 2.025-2.78 3.811.0 1.64.985 3.05 2.4 3.665C7.511 39.495 6.315 40 5.001 40c-2.414.0-4.431-1.714-4.898-3.991C.568 40.568 2.585 44 5.002 44H0V22zm6.062 1.061c-.977.977-1.061 2.475-1.061 2.475s1.498-.084 2.475-1.061S8.536 22 8.536 22 7.038 22.084 6.062 23.061z"/></svg>