<?xml version="1.0"?>
<!--Icons from directory ""-->
<svg xmlns="http://www.w3.org/2000/svg" width="16" height="126" viewBox="0 0 16 126"><svg width="15" height="16" id="user-pop-1" y="0"><g fill="#8F96A1" fill-rule="nonzero"><path d="M6.827 9.113l.855-7.026a6.853 6.853 0 1 0 5.534 4.26c-.02-.047-6.39 2.766-6.39 2.766z"/><path d="M14.648 3.542A5.871 5.871 0 0 0 9.961 0l-.723 5.83 5.41-2.287v-.001z"/></g></svg><svg xmlns:xlink="http://www.w3.org/1999/xlink" width="14" height="16" id="user-pop-2" y="16"><defs><path id="user-pop-2-a" d="M1108 213.51c0 .78-.24 1.38-.73 1.83-.48.44-1.12.66-1.92.66h-8.7c-.8 0-1.44-.22-1.92-.66a2.35 2.35 0 0 1-.73-1.83 9.18 9.18 0 0 1 .6-3.53c.16-.35.37-.68.64-1 .27-.3.58-.54.93-.71l-.9-2.12h2.13a3.65 3.65 0 0 1-.2-1.53c-1.28-.26-1.93-.57-1.93-.93 0-.36.7-.68 2.1-.95a7.6 7.6 0 0 1 1.2-2.38.98.98 0 0 1 .76-.36c.2 0 .48.1.83.3.36.2.64.3.84.3.2 0 .48-.1.84-.3.35-.2.63-.3.83-.3.3 0 .54.12.76.36a7.61 7.61 0 0 1 1.21 2.38c1.4.27 2.09.59 2.09.95s-.65.67-1.93.93a3.6 3.6 0 0 1-.2 1.53h2.13l-.82 2.17c.42.2.78.52 1.07.93.3.4.51.86.65 1.37a9.94 9.94 0 0 1 .37 2.89zm-4.14-8.45a.22.22 0 0 0-.04-.06 2.85 2.85 0 0 0-.95-.08c-.46 0-1.02.06-1.66.19a.84.84 0 0 1-.21.01l-.2-.01a9.12 9.12 0 0 0-1.67-.19c-.57 0-.89.03-.95.08a.22.22 0 0 0-.04.06c.01.11.02.2.04.26 0 .02.03.04.07.06.04.02.06.06.08.1l.07.2a7.92 7.92 0 0 0 .14.36 1.8 1.8 0 0 0 .18.3c.04.06.08.1.12.13l.14.09a.5.5 0 0 0 .17.07 4.65 4.65 0 0 0 .45.06c.24 0 .43-.04.58-.12a.76.76 0 0 0 .33-.29c.06-.1.1-.22.14-.33.04-.1.07-.2.12-.28.04-.08.1-.12.17-.12h.12c.07 0 .13.04.17.12.05.08.08.17.12.28.03.11.08.22.14.33.07.12.17.21.33.3.15.07.34.11.58.11.09 0 .17 0 .25-.02l.2-.04a.5.5 0 0 0 .17-.07l.14-.1a10.46 10.46 0 0 0 .3-.43 3.12 3.12 0 0 0 .21-.55.17.17 0 0 1 .08-.1.25.25 0 0 0 .07-.06c.02-.06.03-.15.04-.26zm-1.59 9.7l1.28-6.14-1.28.61-.95 1.23zm-2.54 0l.95-4.3-.95-1.23-1.28-.61z"/></defs><use fill="#8f96a1" xlink:href="#user-pop-2-a" transform="translate(-1094 -200)"/></svg><svg xmlns:xlink="http://www.w3.org/1999/xlink" width="16" height="15" id="user-pop-3" y="32"><defs><path id="user-pop-3-a" d="M1107.21 241h-12.84c-.17 0-.37.14-.37.31v8.24c0 .17.2.33.37.33h2.2v3.42l3.47-3.42h7.17c.18 0 .29-.16.29-.33v-8.24c0-.17-.11-.31-.29-.31z"/><path id="user-pop-3-b" d="M1109.71 243.42h-1.24v6.4c0 .62-.27 1.02-.97 1.02h-6.95l-1.5 1.5h4.99l3.46 3.43v-3.43h2.21c.17 0 .3-.16.3-.33v-8.24c0-.17-.13-.35-.3-.35z"/></defs><use fill="#8f96a1" xlink:href="#user-pop-3-a" transform="translate(-1094 -241)"/><use fill="#8f96a1" xlink:href="#user-pop-3-b" transform="translate(-1094 -241)"/></svg><svg xmlns:xlink="http://www.w3.org/1999/xlink" width="16" height="16" id="user-pop-4" y="47"><defs><path id="user-pop-4-a" d="M1101.8 290.8a2.83 2.83 0 0 1-2.8-2.8c0-1.52 1.27-2.8 2.8-2.8 1.51 0 2.8 1.28 2.8 2.8 0 1.52-1.29 2.8-2.8 2.8zm5.91-2c0-.24.08-.48.08-.8 0-.32 0-.56-.08-.8l1.68-1.36c.16-.16.16-.32.08-.48l-1.6-2.8c-.08-.08-.24-.16-.48-.08l-2 .8a7.6 7.6 0 0 0-1.36-.8l-.32-2.08c.08-.24-.16-.4-.32-.4h-3.2c-.16 0-.4.16-.4.32l-.32 2.16c-.48.16-.88.48-1.36.8l-1.92-.8c-.24-.08-.4 0-.56.16l-1.6 2.8c-.08.08 0 .32.16.48l1.68 1.28c0 .24-.08.48-.08.8 0 .32 0 .56.08.8l-1.68 1.36c-.16.16-.16.32-.08.48l1.6 2.8c.08.08.24.16.48.08l2-.8c.4.32.88.56 1.36.8l.32 2.08c0 .16.16.32.4.32h3.2c.16 0 .4-.16.4-.32l.32-2.08c.48-.24.96-.48 1.36-.8l2 .8c.16.08.4 0 .48-.16l1.6-2.8c.08-.16.08-.4-.08-.48l-1.84-1.28z"/></defs><use fill="#8f96a1" xlink:href="#user-pop-4-a" transform="translate(-1094 -280)"/></svg><svg xmlns:xlink="http://www.w3.org/1999/xlink" width="16" height="16" id="user-pop-5" y="63"><defs><path id="user-pop-5-a" d="M1095.78 334.22h7.1V336h-7.1c-.98 0-1.78-.8-1.78-1.78v-12.44c0-.98.8-1.78 1.78-1.78h7.1v1.78h-7.1zM1110 328l-5.33-4v2.67H1098v2.66h6.67V332z"/></defs><use fill="#8f96a1" xlink:href="#user-pop-5-a" transform="translate(-1094 -320)"/></svg><svg width="15" height="16" id="user-pop-6" y="79"><g fill="#45AF37" fill-rule="nonzero"><path d="M6.827 9.113l.855-7.026a6.853 6.853 0 1 0 5.534 4.26c-.02-.047-6.39 2.766-6.39 2.766z"/><path d="M14.648 3.542A5.871 5.871 0 0 0 9.961 0l-.723 5.83 5.41-2.287v-.001z"/></g></svg><svg width="16" height="16" id="user-pop-7" y="95"><path d="M16 8l-5.333-4v2.667H4v2.666h6.667V12L16 8zM1.778 14.222h7.11V16h-7.11C.8 16 0 15.2 0 14.222V1.778C0 .8.8 0 1.778 0h7.11v1.778h-7.11v12.444z" fill="#45AF37" fill-rule="nonzero"/></svg><svg width="16" height="15" id="user-pop-8" y="111"><g fill="#45AF37" fill-rule="nonzero"><path d="M13.214 0H.369C.198 0 0 .144 0 .314v8.239c0 .17.197.332.37.332h2.207v3.419l3.466-3.42h7.17c.173 0 .287-.161.287-.331V.313c0-.169-.114-.313-.286-.313z"/><path d="M15.708 2.423h-1.246V8.83c0 .614-.266 1.016-.968 1.016H6.542l-1.496 1.5h4.988L13.5 14.77v-3.423h2.208c.172 0 .292-.164.292-.334V2.773c0-.17-.12-.35-.292-.35z"/></g></svg></svg>
