<svg xmlns="http://www.w3.org/2000/svg" xmlns:xlink="http://www.w3.org/1999/xlink" width="15" height="15" viewBox="0 0 15 15"><defs><path id="7efba" d="M1128.46 199.38h-1.33a4.97 4.97 0 0 0 0-3.75h1.33a6.24 6.24 0 0 1 0 3.75zm-3.94 4.03c.23-.35 1.62-2.46 1.88-2.78h1.5a6.27 6.27 0 0 1-3.38 2.78zm-2.32.32l-.93-1.39a5 5 0 0 0 2.46 0l-.93 1.4h-.6zm-5.1-3.1h1.5c.26.32 1.65 2.43 1.88 2.78a6.27 6.27 0 0 1-3.38-2.78zm-.56-5h1.33a4.97 4.97 0 0 0 0 3.75h-1.33a6.24 6.24 0 0 1 0-3.75zm3.94-4.04c-.23.35-1.62 2.46-1.88 2.78h-1.5a6.28 6.28 0 0 1 3.38-2.78zm2.32-.32l.93 1.39a5 5 0 0 0-2.46 0l.93-1.4.3-.01.3.02zm-4.05 6.23a3.75 3.75 0 1 1 7.5 0 3.75 3.75 0 0 1-7.5 0zm9.15-3.13h-1.5c-.26-.32-1.65-2.43-1.88-2.78 1.44.5 2.63 1.5 3.38 2.78zm-5.4-4.37a7.5 7.5 0 0 0 0 15 7.5 7.5 0 0 0 0-15z"/></defs><g><g transform="translate(-1115 -190)"><use fill="#fff" xlink:href="#7efba"/></g></g></svg>