<svg xmlns="http://www.w3.org/2000/svg" xmlns:xlink="http://www.w3.org/1999/xlink" width="8" height="10" viewBox="0 0 8 10"><defs><path id="tdloa" d="M905 392a4 4 0 0 0-4 4c0 2.2 4 6 4 6s4-3.8 4-6a4 4 0 0 0-4-4z"/><path id="tdlob" d="M899 404.38v-14.76h12v14.76zm6-12.38a4 4 0 0 0-4 4c0 2.2 4 6 4 6s4-3.8 4-6a4 4 0 0 0-4-4z"/><mask id="tdlod" width="2" height="2" x="-1" y="-1"><path fill="#fff" d="M901 392h8v10h-8z"/><use xlink:href="#tdloa"/></mask><filter id="tdloc" width="38" height="41" x="886" y="382" filterUnits="userSpaceOnUse"><feOffset dy="1" in="SourceGraphic" result="FeOffset1023Out"/><feGaussianBlur in="FeOffset1023Out" result="FeGaussianBlur1024Out" stdDeviation="2 2"/></filter><clipPath id="tdloe"><use fill="#fff" xlink:href="#tdlob"/></clipPath></defs><g><g transform="translate(-901 -392)"><g filter="url(#tdloc)"><use fill="none" stroke-opacity=".25" stroke-width="0" mask="url(&quot;#tdlod&quot;)" xlink:href="#tdloa"/><use fill-opacity=".25" xlink:href="#tdloa"/></g><use fill="#45af37" xlink:href="#tdloa"/><use fill="#fff" fill-opacity="0" stroke="#fff" stroke-miterlimit="50" stroke-width="4" clip-path="url(&quot;#tdloe&quot;)" xlink:href="#tdloa"/></g></g></svg>