<svg xmlns="http://www.w3.org/2000/svg" xmlns:xlink="http://www.w3.org/1999/xlink" width="12" height="12" viewBox="0 0 12 12"><defs><path id="996ia" d="M155 1670a6 6 0 1 0 0 12 6 6 0 0 0 0-12m3.76 9.91l-.33-.48s-.45-.78-2.29-.86c-.18 0-.27-.12-.27-.3v-.27-.1c.22-.09.46-.23.73-.43 0 0 .69-.44.69-.9 0 0 .28-1.47.28-2 0-1.33-.6-2.57-2.57-2.57-2 0-2.57 1.24-2.57 2.57 0 .54.28 2 .28 2 0 .47.69.9.69.9.28.2.52.33.73.42v.38c0 .18-.09.3-.27.3-1.81.07-2.29.86-2.29.86l-.33.48a5.4 5.4 0 0 1 3.76-9.34 5.43 5.43 0 0 1 3.76 9.34"/></defs><g><g transform="translate(-149 -1670)"><use fill="#8f96a1" xlink:href="#996ia"/></g></g></svg>